<svg xmlns="http://www.w3.org/2000/svg" width="110" height="101" viewBox="0 0 110 101">
  <g id="ic-cloud" transform="translate(-585 -3329)">
    <path id="Path_537" data-name="Path 537" d="M94.286,245.013H88.676A23.5,23.5,0,0,0,77.082,214.9a22.376,22.376,0,0,1-6.142,11.861A29.2,29.2,0,0,0,64,237.933a3.869,3.869,0,0,0-.717-.069H46.722a3.877,3.877,0,0,0-.72.069,28.581,28.581,0,0,0-6.816-11.042,22.494,22.494,0,0,1-4.774-6.988,19.262,19.262,0,0,0-13.762,25.11H15.714a15.769,15.769,0,0,0,0,31.538H94.286a15.769,15.769,0,0,0,0-31.538Z" transform="translate(585 3153.448)" fill="#83c6f2"/>
    <g id="Group_270" data-name="Group 270" transform="translate(600.005 3329)">
      <g id="Group_262" data-name="Group 262" transform="translate(17.272 16.659)">
        <g id="Group_256" data-name="Group 256" transform="translate(0)">
          <g id="Group_255" data-name="Group 255">
            <path id="Path_539" data-name="Path 539" d="M172.757,91.1A22.72,22.72,0,0,0,157.3,129.926a28.23,28.23,0,0,1,6.849,11.14,3.748,3.748,0,0,1,.866-.1H181.63a3.74,3.74,0,0,1,.864.1,28.748,28.748,0,0,1,6.979-11.268,22.72,22.72,0,0,0-16.716-38.7Z" transform="translate(-150.599 -91.093)" fill="#f9bf00"/>
          </g>
        </g>
        <g id="Group_257" data-name="Group 257" transform="translate(9.549 9.549)">
          <circle id="Ellipse_35" data-name="Ellipse 35" cx="13.175" cy="13.175" r="13.175" fill="#fee97d"/>
        </g>
        <path id="Path_541" data-name="Path 541" d="M202.182,127.884a14.791,14.791,0,0,0-1.617,29.493v12.358H203.8V157.377a14.791,14.791,0,0,0-1.617-29.493Zm1.617,26.234v-5.4a6.238,6.238,0,0,1-3.234,0v5.4a11.558,11.558,0,1,1,3.234,0Z" transform="translate(-179.458 -119.952)" fill="#fff"/>
        <path id="Path_542" data-name="Path 542" d="M223.224,326.152a4.048,4.048,0,0,0-3.906-5.147H202.7a4.058,4.058,0,1,0,0,8.117l.521.216H218.3A12.889,12.889,0,0,1,223.224,326.152Z" transform="translate(-188.287 -271.438)" fill="#9a9a9a"/>
        <g id="Group_261" data-name="Group 261" transform="translate(10.358 57.684)">
          <path id="Path_543" data-name="Path 543" d="M232.528,396.54c0-.418.022-.832.061-1.24h-11.2l.94,4.354a6.706,6.706,0,0,0,11.693,2.9A12.776,12.776,0,0,1,232.528,396.54Z" transform="translate(-216.488 -387.399)" fill="#333"/>
          <path id="Path_546" data-name="Path 546" d="M218.511,358.653H202.7a4.058,4.058,0,1,0,0,8.117H214.73A12.824,12.824,0,0,1,218.511,358.653Z" transform="translate(-198.645 -358.653)" fill="#9a9a9a"/>
        </g>
      </g>
      <g id="Group_268" data-name="Group 268">
        <g id="Group_263" data-name="Group 263" transform="translate(38.378)">
          <path id="Path_548" data-name="Path 548" d="M250.117,22.544a1.617,1.617,0,0,1-1.617-1.617V12.768a1.617,1.617,0,1,1,3.234,0v8.159A1.617,1.617,0,0,1,250.117,22.544Z" transform="translate(-248.5 -11.151)" fill="#f9bf00"/>
        </g>
        <g id="Group_264" data-name="Group 264" transform="translate(0 38.57)">
          <path id="Path_549" data-name="Path 549" d="M79.373,193.289H71.214a1.617,1.617,0,1,1,0-3.234h8.159a1.617,1.617,0,0,1,0,3.234Z" transform="translate(-69.597 -190.055)" fill="#f9bf00"/>
        </g>
        <g id="Group_265" data-name="Group 265" transform="translate(68.598 38.57)">
          <path id="Path_550" data-name="Path 550" d="M399.333,193.289h-8.159a1.617,1.617,0,1,1,0-3.234h8.159a1.617,1.617,0,1,1,0,3.234Z" transform="translate(-389.557 -190.055)" fill="#f9bf00"/>
        </g>
        <g id="Group_266" data-name="Group 266" transform="translate(59.691 11.297)">
          <path id="Path_551" data-name="Path 551" d="M349.859,72.555a1.617,1.617,0,0,1-1.143-2.76l5.769-5.769a1.617,1.617,0,0,1,2.287,2.287L351,72.081A1.612,1.612,0,0,1,349.859,72.555Z" transform="translate(-348.242 -63.552)" fill="#f9bf00"/>
        </g>
        <g id="Group_267" data-name="Group 267" transform="translate(11.297 11.297)">
          <path id="Path_552" data-name="Path 552" d="M129.383,72.555a1.611,1.611,0,0,1-1.143-.474l-5.769-5.769a1.617,1.617,0,0,1,2.287-2.287l5.769,5.769a1.617,1.617,0,0,1-1.143,2.76Z" transform="translate(-121.997 -63.552)" fill="#f9bf00"/>
        </g>
      </g>
      <g id="Group_269" data-name="Group 269" transform="translate(33.528 33.248)">
        <circle id="Ellipse_36" data-name="Ellipse 36" cx="6.468" cy="6.468" r="6.468" fill="#ff9130"/>
      </g>
    </g>
    <g id="Group_273" data-name="Group 273" transform="translate(601.484 3409.335)">
      <g id="Group_271" data-name="Group 271">
        <path id="Path_554" data-name="Path 554" d="M95.4,408.234H78.077a1.617,1.617,0,1,1,0-3.234H95.4a1.617,1.617,0,0,1,0,3.234Z" transform="translate(-76.46 -405)" fill="#f7f7f7"/>
      </g>
      <g id="Group_272" data-name="Group 272" transform="translate(0 5.938)">
        <path id="Path_555" data-name="Path 555" d="M95.4,435.776H78.077a1.617,1.617,0,1,1,0-3.234H95.4a1.617,1.617,0,0,1,0,3.234Z" transform="translate(-76.46 -432.542)" fill="#f7f7f7"/>
      </g>
    </g>
    <g id="Group_277" data-name="Group 277" transform="translate(643.385 3395.408)">
      <g id="Group_274" data-name="Group 274">
        <circle id="Ellipse_37" data-name="Ellipse 37" cx="13.076" cy="13.076" r="13.076" fill="#1f89cd"/>
      </g>
      <g id="Group_276" data-name="Group 276" transform="translate(5.549 8.416)">
        <path id="Path_557" data-name="Path 557" d="M304.481,389.412a1.612,1.612,0,0,1-1.144-.474l-5.079-5.079a1.617,1.617,0,0,1,2.287-2.287l3.936,3.936,5.6-5.6a1.617,1.617,0,1,1,2.286,2.287l-6.741,6.74a1.611,1.611,0,0,1-1.143.473Z" transform="translate(-297.784 -379.438)" fill="#fff"/>
      </g>
    </g>
  </g>
</svg>
