<svg xmlns="http://www.w3.org/2000/svg" width="85" height="85" viewBox="0 0 85 85">
  <g id="ic-dinning" transform="translate(-1178 -4685)">
    <g id="dinning-table" transform="translate(1182.919 4690)">
      <path id="Path_154" data-name="Path 154" d="M24.793,33.948H9.514A79.681,79.681,0,0,0,6.968,12.812,2.766,2.766,0,0,0,3.912,11.03,2.619,2.619,0,0,0,2.13,14.085C4.421,21.979,4.676,29.364,4.676,36.24V56.611a2.406,2.406,0,0,0,2.546,2.546,2.406,2.406,0,0,0,2.546-2.546V46.425H25.048V56.611a2.406,2.406,0,0,0,2.546,2.546,2.406,2.406,0,0,0,2.546-2.546V38.786A5.493,5.493,0,0,0,24.793,33.948Zm0,7.639H9.514V39.041H24.793Z" transform="translate(0 13.888)" fill="#1f89cd"/>
      <path id="Path_155" data-name="Path 155" d="M50.29,21.093H32.465V49.1a2.546,2.546,0,0,1-5.093,0V21.093H9.546A2.406,2.406,0,0,1,7,18.546,2.406,2.406,0,0,1,9.546,16H50.29a2.406,2.406,0,0,1,2.546,2.546A2.406,2.406,0,0,1,50.29,21.093Z" transform="translate(7.607 21.65)" fill="#1f89cd"/>
      <path id="Path_156" data-name="Path 156" d="M45.074,11.081a2.417,2.417,0,0,0-3.056,1.783A79.681,79.681,0,0,0,39.472,34H24.193A5.108,5.108,0,0,0,19.1,39.092V56.917a2.406,2.406,0,0,0,2.546,2.546,2.406,2.406,0,0,0,2.546-2.546V46.732H39.472V56.917a2.546,2.546,0,1,0,5.093,0V36.546c0-6.875.255-14.515,2.546-22.154A3.412,3.412,0,0,0,45.074,11.081ZM39.217,41.639H23.938V39.092H39.217Z" transform="translate(26.319 13.837)" fill="#1f89cd"/>
      <path id="Path_157" data-name="Path 157" d="M23.732,2a2.406,2.406,0,0,0-2.546,2.546V9.894A12.808,12.808,0,0,0,11,22.372a2.406,2.406,0,0,0,2.546,2.546H33.918a2.406,2.406,0,0,0,2.546-2.546A12.808,12.808,0,0,0,26.279,9.894V4.546A2.406,2.406,0,0,0,23.732,2Zm7.13,17.825H16.348a7.417,7.417,0,0,1,7.13-5.093A7.743,7.743,0,0,1,30.862,19.825Z" transform="translate(13.793 0)" fill="#1f89cd"/>
    </g>
    <rect id="Rectangle_90" data-name="Rectangle 90" width="85" height="85" transform="translate(1178 4685)" fill="none"/>
  </g>
</svg>
