<svg xmlns="http://www.w3.org/2000/svg" width="75" height="75" viewBox="0 0 75 75">
  <g id="ic-dessert" transform="translate(-960 -2941)">
    <g id="Page-1" transform="translate(967 2953)">
      <g id="_008---Coffee-and-Croissant" data-name="008---Coffee-and-Croissant">
        <path id="Shape" d="M57.65,43H50.905a13.9,13.9,0,0,0,6.171-5.214,1.9,1.9,0,0,0,.109-1.748c-.066-.15-.148-.33-.24-.526a18.261,18.261,0,0,0,2.615-5.633,20.785,20.785,0,0,0,.312-6.638A2.441,2.441,0,0,0,58.243,21.2c-1.014-4.866-2.379-5.643-2.841-5.9a2.218,2.218,0,0,0-1.924-.136c-2.476.943-2.485,3.156-2.493,5.107,0,.467-.015.944-.045,1.42a2.839,2.839,0,0,0-2.048,1.867,6.865,6.865,0,0,1-.824,1.646,12.137,12.137,0,0,0-1.273-.586,1.826,1.826,0,0,0-1.282,0l-5.135,1.962a1.861,1.861,0,0,0-.951.825,13.648,13.648,0,0,0-.641,1.337A6.88,6.88,0,0,1,38,28.453V17a2,2,0,0,0-2-2H12a2,2,0,0,0-2,2v1.362A11.252,11.252,0,0,0,7.17,18C0,18,0,25.88,0,28.47,0,34.259,2.814,38,7.17,38a12.651,12.651,0,0,0,3.411-.488A10.926,10.926,0,0,0,14.663,43H6.35A2.172,2.172,0,0,0,4,45v2c0,2.243,2.218,4,5.05,4h45.9C57.782,51,60,49.243,60,47V45a2.172,2.172,0,0,0-2.35-2ZM54.188,17.026a.228.228,0,0,1,.236.012c.171.095.992.726,1.747,4.037-.841.035-1.931.109-3.2.273.013-.373.016-.737.017-1.076C52.993,18.2,53.094,17.443,54.188,17.026ZM50.8,24.164a.852.852,0,0,1,.67-.565c.185-.038.368-.065.571-.1a33.189,33.189,0,0,1,5.284-.463h.066a.468.468,0,0,1,.495.4A18.768,18.768,0,0,1,57.62,29.4a15.057,15.057,0,0,1-1.737,4.047,22.9,22.9,0,0,0-6.11-7.2A8.857,8.857,0,0,0,50.8,24.164Zm-9.65,4.261,5.013-1.915c5.353,2.1,8.6,8.972,9.2,10.26-.553.956-2.333,3.369-6.909,5.115A16.669,16.669,0,0,1,43.548,43H42.229a7.913,7.913,0,0,1-2.054-.37c-.057-.245-.134-.581-.211-.985-.476-2.477-1.307-8.7,1.182-13.22ZM35.059,41.457a18.969,18.969,0,0,0,3.065,1.172c.03.14.058.259.083.371H33.3a11.038,11.038,0,0,0,1.759-1.543ZM37.732,40.4a13.352,13.352,0,0,1-3.752-1.945,17.23,17.23,0,0,1-3.753-4.41.6.6,0,0,1,.18-.73c.013-.012.026-.024.037-.036a35.526,35.526,0,0,1,4.391-3.231c.159-.1.318-.207.511-.319a.732.732,0,0,1,.771-.017,8,8,0,0,0,2.015.915,24.807,24.807,0,0,0-.4,9.773ZM29.076,26.728a.334.334,0,0,1,.218-.223c1.06-.4,1.545.078,2.78,1.661.212.271.439.561.683.852-1.09.731-1.987,1.409-2.665,1.955-1.04-2.318-1.226-3.7-1.016-4.245ZM10,31.373A7.157,7.157,0,0,1,7.17,32C6.41,32,6,30.181,6,28.47,6,24,6.676,24,7.17,24a4.264,4.264,0,0,1,2.83.925Zm-8-2.9C2,24.527,2.588,20,7.17,20a9.012,9.012,0,0,1,2.83.441V22.59A6.681,6.681,0,0,0,7.17,22C4.242,22,4,25.061,4,28.47,4,31.933,5.185,34,7.17,34A8.769,8.769,0,0,0,10,33.5V34a10.822,10.822,0,0,0,.126,1.561A10.729,10.729,0,0,1,7.17,36C3.933,36,2,33.185,2,28.47Zm10.233,7.551A8.8,8.8,0,0,1,12,34V17H36V27.645a2.721,2.721,0,0,0-1.517.3c-.289-.33-.567-.67-.832-1.01-1.133-1.452-2.54-3.263-5.068-2.3A2.324,2.324,0,0,0,27.212,26c-.521,1.343-.067,3.459,1.359,6.431a2.519,2.519,0,0,0-.045,2.666,19.241,19.241,0,0,0,4.229,4.939c.175.135.356.258.537.382A8.925,8.925,0,0,1,27,43H21a8.95,8.95,0,0,1-8.767-6.979ZM58,47c0,1.084-1.4,2-3.05,2H9.05C7.4,49,6,48.084,6,47V45.091A.638.638,0,0,1,6.35,45h51.3a.638.638,0,0,1,.35.091Z" fill="#fff" stroke="#fff" stroke-width="0.5"/>
        <path id="Shape-2" data-name="Shape" d="M22,11a1,1,0,0,0,2,0,2.583,2.583,0,0,1,.781-1.875,4.615,4.615,0,0,0,0-6.25A2.583,2.583,0,0,1,24,1a1,1,0,0,0-2,0,4.527,4.527,0,0,0,1.219,3.125,2.641,2.641,0,0,1,0,3.75A4.527,4.527,0,0,0,22,11Z" fill="#fff" stroke="#fff" stroke-width="0.5"/>
        <path id="Shape-3" data-name="Shape" d="M16,11a1,1,0,0,0,2,0,2.583,2.583,0,0,1,.781-1.875,4.615,4.615,0,0,0,0-6.25A2.583,2.583,0,0,1,18,1a1,1,0,0,0-2,0,4.527,4.527,0,0,0,1.219,3.125,2.641,2.641,0,0,1,0,3.75A4.527,4.527,0,0,0,16,11Z" fill="#fff" stroke="#fff" stroke-width="0.5"/>
        <path id="Shape-4" data-name="Shape" d="M28,11a1,1,0,0,0,2,0,2.583,2.583,0,0,1,.781-1.875,4.615,4.615,0,0,0,0-6.25A2.583,2.583,0,0,1,30,1a1,1,0,0,0-2,0,4.527,4.527,0,0,0,1.219,3.125,2.641,2.641,0,0,1,0,3.75A4.527,4.527,0,0,0,28,11Z" fill="#fff" stroke="#fff" stroke-width="0.5"/>
      </g>
    </g>
    <rect id="Rectangle_130" data-name="Rectangle 130" width="75" height="75" transform="translate(960 2941)" fill="none"/>
  </g>
</svg>
