<svg xmlns="http://www.w3.org/2000/svg" width="75" height="75" viewBox="0 0 75 75">
  <g id="ic-drink" transform="translate(-989 -4015)">
    <path id="soda" d="M117.485,11.244h-9.767V4.074l8.578-1.3a1.394,1.394,0,1,0-.419-2.756L106.115,1.5a1.394,1.394,0,0,0-1.185,1.378v8.368H95.182A4.187,4.187,0,0,0,91,15.426v2.788a1.394,1.394,0,0,0,1.394,1.394h1.517l2.663,26.716a1.394,1.394,0,0,0,1.387,1.256H114.7a1.394,1.394,0,0,0,1.387-1.256l2.654-26.716h1.535a1.394,1.394,0,0,0,1.394-1.394V15.426a4.187,4.187,0,0,0-4.182-4.182Zm-3.072,23.7H98.241l-.556-5.58h17.283ZM99.222,44.792l-.7-7.063h15.618l-.7,7.063Zm16.022-18.219H97.407l-.694-6.965h19.224Zm3.634-9.753H93.788V15.426a1.4,1.4,0,0,1,1.394-1.394h22.3a1.4,1.4,0,0,1,1.394,1.394Z" transform="translate(920 4029.001)" fill="#fff"/>
    <rect id="Rectangle_132" data-name="Rectangle 132" width="75" height="75" transform="translate(989 4015)" fill="none"/>
  </g>
</svg>
