<svg xmlns="http://www.w3.org/2000/svg" width="110" height="101" viewBox="0 0 110 101">
  <g id="ic-edit-easier" transform="translate(-1152 -3904)">
    <g id="Group_287" data-name="Group 287" transform="translate(-8197 -571.951)">
      <g id="menu_1_" data-name="menu (1)" transform="translate(9360 4477.951)">
        <g id="Group_215" data-name="Group 215" transform="translate(0 5.624)">
          <path id="Path_274" data-name="Path 274" d="M8.309,39.513H2.731a2.731,2.731,0,0,1,0-5.462H8.309a2.731,2.731,0,0,1,0,5.462Zm0,0" transform="translate(0 -34.051)" fill="#d8d6d4"/>
          <path id="Path_275" data-name="Path 275" d="M8.309,121.677H2.731a2.731,2.731,0,0,1,0-5.462H8.309a2.731,2.731,0,0,1,0,5.462Zm0,0" transform="translate(0 -102.644)" fill="#d8d6d4"/>
          <path id="Path_276" data-name="Path 276" d="M8.309,203.845H2.731a2.731,2.731,0,0,1,0-5.462H8.309a2.731,2.731,0,0,1,0,5.462Zm0,0" transform="translate(0 -171.241)" fill="#d8d6d4"/>
          <path id="Path_277" data-name="Path 277" d="M8.309,286.009H2.731a2.731,2.731,0,1,1,0-5.462H8.309a2.731,2.731,0,1,1,0,5.462Zm0,0" transform="translate(0 -239.835)" fill="#d8d6d4"/>
          <path id="Path_278" data-name="Path 278" d="M8.309,368.176H2.731a2.731,2.731,0,1,1,0-5.461H8.309a2.731,2.731,0,1,1,0,5.461Zm0,0" transform="translate(0 -308.431)" fill="#d8d6d4"/>
          <path id="Path_279" data-name="Path 279" d="M8.309,450.341H2.731a2.731,2.731,0,0,1,0-5.462H8.309a2.731,2.731,0,0,1,0,5.462Zm0,0" transform="translate(0 -377.025)" fill="#d8d6d4"/>
        </g>
        <path id="Path_280" data-name="Path 280" d="M94.828,84.563H33.647a2,2,0,0,1-2-2V2a2,2,0,0,1,2-2h61.18a2,2,0,0,1,2,2V82.565a2,2,0,0,1-2,2Zm0,0" transform="translate(-26.421 0)" fill="#83c6f2"/>
        <path id="Path_282" data-name="Path 282" d="M216.912,83.109h-4.74l-.475-4.534a1.473,1.473,0,0,1,1.465-1.626h2.76a1.472,1.472,0,0,1,1.465,1.626Zm0,0" transform="translate(-176.726 -64.24)" fill="#fff"/>
        <path id="Path_283" data-name="Path 283" d="M155.47,127.165H119.219v-1.54a18.125,18.125,0,1,1,36.251,0Zm0,0" transform="translate(-99.528 -89.745)" fill="#fff"/>
        <path id="Path_285" data-name="Path 285" d="M141.635,218.609H100.353a.719.719,0,0,0-.719.719v2.666a.719.719,0,0,0,.719.719h41.282a.719.719,0,0,0,.719-.719v-2.666A.719.719,0,0,0,141.635,218.609Zm0,0" transform="translate(-83.178 -182.503)" fill="#fff"/>
        <path id="Path_286" data-name="Path 286" d="M106.392,348.325a.727.727,0,0,1-.674.4.705.705,0,0,1-.657-.4l-1.76-3.3v6.7c0,.413-.5.627-.994.627-.505,0-.995-.214-.995-.627v-9.563a.913.913,0,0,1,.995-.995c.719,0,1.04.153,1.545,1.056l1.882,3.427,1.882-3.427c.5-.9.841-1.056,1.561-1.056a.913.913,0,0,1,.994.995v9.563c0,.413-.5.627-.994.627-.505,0-.995-.214-.995-.627v-6.579Zm0,0" transform="translate(-84.579 -284.817)" fill="#1f89cd"/>
        <path id="Path_287" data-name="Path 287" d="M178.426,345.969h2.326c.4,0,.627.383.627.8a.693.693,0,0,1-.627.765h-2.326V350.6h4.33c.4,0,.627.414.627.888,0,.413-.2.857-.627.857h-5.447c-.444,0-.872-.214-.872-.627v-9.93c0-.413.428-.627.872-.627h5.447c.428,0,.627.444.627.857,0,.474-.23.887-.627.887h-4.33Zm0,0" transform="translate(-147.296 -284.816)" fill="#1f89cd"/>
        <path id="Path_288" data-name="Path 288" d="M241.186,351.722l-3.29-6.151v6.151c0,.413-.505.627-.995.627-.505,0-.995-.214-.995-.627v-9.93c0-.429.49-.628.995-.628.719,0,1.01.153,1.485,1.056l2.953,5.707v-6.151c0-.428.49-.612.994-.612s.995.184.995.612v9.945c0,.413-.505.627-.995.627a1.2,1.2,0,0,1-1.147-.627Zm0,0" transform="translate(-196.943 -284.816)" fill="#1f89cd"/>
        <path id="Path_289" data-name="Path 289" d="M307.406,341.776c0-.428.49-.612.995-.612.49,0,.994.184.994.612v7.161c0,2.555-1.622,3.5-3.672,3.5s-3.672-.948-3.672-3.5v-7.161c0-.428.49-.612.994-.612s.995.184.995.612v7.161a1.685,1.685,0,1,0,3.366,0v-7.161Zm0,0" transform="translate(-252.163 -284.816)" fill="#1f89cd"/>
        <path id="Path_290" data-name="Path 290" d="M135.822,307.777H93.1a1.292,1.292,0,1,0,0,2.584h42.721a1.292,1.292,0,0,0,0-2.584Zm0,0" transform="translate(-76.645 -256.944)" fill="#1f89cd"/>
        <path id="Path_291" data-name="Path 291" d="M135.822,427.227H93.1a1.292,1.292,0,1,0,0,2.584h42.721a1.292,1.292,0,0,0,0-2.584Zm0,0" transform="translate(-76.645 -356.665)" fill="#1f89cd"/>
      </g>
      <g id="pencil" transform="translate(9395.56 4522.556)">
        <path id="Union_4" data-name="Union 4" d="M.46,5.56A1.575,1.575,0,0,1,.118,3.849L1.664.092,5.143.877,6.021,0,6,1.071,7.41,1.39l-1.438.863-.045,2.1L2.172,5.9A1.574,1.574,0,0,1,.46,5.56Z" transform="translate(0 46.087)" fill="#ff9130"/>
        <path id="Union_5" data-name="Union 5" d="M2.965,10.842,0,7.877,3.244,0l6.908,3.657,2.082-2.081-.04,3.162L12.7,5l-.511.307L12.14,8.9,4.263,12.14Z" transform="translate(1.665 38.302)" fill="#ffd19c"/>
        <path id="Union_3" data-name="Union 3" d="M1.9,17.855,0,18.529l2.058-2.218L3.152,5.37,7.6.921a3.145,3.145,0,0,1,4.448,0l2.224,2.224L16.5,5.37a3.144,3.144,0,0,1,0,4.447l-4.448,4.448L5.165,16.7l-3.5,3.5Z" transform="translate(34.69)" fill="#ff9130"/>
        <path id="Path_298" data-name="Path 298" d="M297.294,117.077l12.232,3.336,3.336-3.336-2.224-2.224Z" transform="translate(-266.125 -102.811)" fill="#dff5ff"/>
        <path id="Path_299" data-name="Path 299" d="M339.122,57.885l-6.672-6.672-3.336,3.336,2.224,11.12Z" transform="translate(-294.609 -45.843)" fill="#fff"/>
        <path id="Union_2" data-name="Union 2" d="M6.675,36.267l.006-.013-.009.008L0,29.592,29.593,0l6.671,6.671,0,0,.013-.006L38.5,8.894,8.9,38.491Z" transform="translate(4.905 8.708)" fill="#f9bf00"/>
      </g>
    </g>
    <rect id="Rectangle_118" data-name="Rectangle 118" width="110" height="101" transform="translate(1152 3904)" fill="none"/>
  </g>
</svg>
