<svg xmlns="http://www.w3.org/2000/svg" width="110" height="101" viewBox="0 0 110 101">
  <g id="ic-easier" transform="translate(-1295 -3629)">
    <g id="Group_298" data-name="Group 298" transform="translate(13.5 43.278)">
      <g id="cashier_1_" data-name="cashier (1)" transform="translate(1304.303 3596.722)">
        <path id="Path_571" data-name="Path 571" d="M174.7,286.27h23.709v11.6H174.7Z" transform="translate(-146.425 -240.599)" fill="#1f89cd"/>
        <path id="Path_573" data-name="Path 573" d="M78.6,371.628H1.847A1.847,1.847,0,0,1,0,369.781V350.058a1.847,1.847,0,0,1,1.847-1.847H78.6a1.847,1.847,0,0,1,1.847,1.847v19.723A1.847,1.847,0,0,1,78.6,371.628Z" transform="translate(0 -292.514)" fill="#83c6f2"/>
        <path id="Path_574" data-name="Path 574" d="M112.671,51.37h-61.1A1.475,1.475,0,0,1,50.1,49.895V5.6a1.475,1.475,0,0,1,1.475-1.475h61.1A1.475,1.475,0,0,1,114.146,5.6v44.3A1.475,1.475,0,0,1,112.671,51.37Z" transform="translate(-41.987 -4.125)" fill="#83c6f2"/>
        <path id="Path_575" data-name="Path 575" d="M84.486,72.9V40.238a1.723,1.723,0,0,1,1.723-1.723h49.47a1.723,1.723,0,0,1,1.723,1.723V72.9a1.723,1.723,0,0,1-1.723,1.723H86.209A1.723,1.723,0,0,1,84.486,72.9Z" transform="translate(-70.81 -32.948)" fill="#f2f5fb"/>
        <circle id="Ellipse_41" data-name="Ellipse 41" cx="3.545" cy="3.545" r="3.545" transform="translate(65.487 63.861)" fill="#e7e7e7"/>
        <path id="Path_579" data-name="Path 579" d="M312.591,185.584H303.57a1.292,1.292,0,0,1-1.292-1.292v-5.175a1.292,1.292,0,0,1,1.292-1.292h9.022a1.292,1.292,0,0,1,1.292,1.292v5.175A1.292,1.292,0,0,1,312.591,185.584Z" transform="translate(-253.348 -149.709)" fill="#ffa05b"/>
        <path id="Path_581" data-name="Path 581" d="M118,415.471H74.338a1.214,1.214,0,1,1,0-2.428H118a1.214,1.214,0,0,1,0,2.428Z" transform="translate(-61.287 -346.851)" fill="#1f89cd"/>
        <path id="Path_582" data-name="Path 582" d="M315.953,134.5h-7.421a1.214,1.214,0,1,1,0-2.428h7.421a1.214,1.214,0,0,1,0,2.428Z" transform="translate(-257.572 -111.364)" fill="#9a9a9a"/>
        <path id="Path_583" data-name="Path 583" d="M315.953,102.516h-7.421a1.214,1.214,0,1,1,0-2.428h7.421a1.214,1.214,0,0,1,0,2.428Z" transform="translate(-257.572 -84.554)" fill="#9a9a9a"/>
      </g>
      <g id="easy" transform="translate(1286.5 3604.621)">
        <g id="Group_297" data-name="Group 297" transform="translate(0 3.954)">
          <g id="Group_291" data-name="Group 291" transform="translate(0 16.587)">
            <path id="Path_564" data-name="Path 564" d="M32.626,148.446H27.591a1.14,1.14,0,1,1,0-2.28h5.035a1.14,1.14,0,1,1,0,2.28Z" transform="translate(-26.451 -146.166)" fill="#ff9130"/>
          </g>
          <g id="Group_292" data-name="Group 292" transform="translate(4.722 30.658)">
            <path id="Path_565" data-name="Path 565" d="M59.6,253.279a1.14,1.14,0,0,1-.571-2.127l4.361-2.516a1.14,1.14,0,0,1,1.139,1.974l-4.361,2.516A1.136,1.136,0,0,1,59.6,253.279Z" transform="translate(-58.455 -248.483)" fill="#ff9130"/>
          </g>
          <g id="Group_293" data-name="Group 293" transform="translate(53.367 30.657)">
            <path id="Path_566" data-name="Path 566" d="M414.039,253.277a1.134,1.134,0,0,1-.569-.153l-4.361-2.516a1.14,1.14,0,0,1,1.139-1.974l4.361,2.516a1.14,1.14,0,0,1-.571,2.127Z" transform="translate(-408.539 -248.481)" fill="#ff9130"/>
          </g>
          <g id="Group_294" data-name="Group 294" transform="translate(57.415 16.587)">
            <path id="Path_567" data-name="Path 567" d="M442.148,148.446h-5.035a1.14,1.14,0,1,1,0-2.28h5.035a1.14,1.14,0,1,1,0,2.28Z" transform="translate(-435.973 -146.166)" fill="#ff9130"/>
          </g>
          <g id="Group_295" data-name="Group 295" transform="translate(53.367 0)">
            <path id="Path_568" data-name="Path 568" d="M409.681,31.592a1.14,1.14,0,0,1-.571-2.127l4.361-2.516a1.14,1.14,0,0,1,1.139,1.974l-4.361,2.516A1.134,1.134,0,0,1,409.681,31.592Z" transform="translate(-408.54 -26.796)" fill="#ff9130"/>
          </g>
          <g id="Group_296" data-name="Group 296" transform="translate(4.722)">
            <path id="Path_569" data-name="Path 569" d="M63.953,31.592a1.135,1.135,0,0,1-.569-.153l-4.361-2.516a1.14,1.14,0,1,1,1.139-1.974l4.361,2.516a1.14,1.14,0,0,1-.571,2.127Z" transform="translate(-58.454 -26.796)" fill="#ff9130"/>
          </g>
        </g>
        <path id="Path_570" data-name="Path 570" d="M158.791,26.662a3.406,3.406,0,0,0-3.41-1.039.259.259,0,0,1-.254-.069.278.278,0,0,1,0-.383l.237-.245a3.753,3.753,0,0,0,.055-5.16,3.4,3.4,0,0,0-3.5-.892.438.438,0,0,1-.452-.114.478.478,0,0,1-.11-.47,3.7,3.7,0,0,0-.863-3.626,3.4,3.4,0,0,0-3.653-.841.168.168,0,0,1-.181-.04.183.183,0,0,1,0-.252l7.064-7.314a3.766,3.766,0,0,0,.007-5.209,3.4,3.4,0,0,0-4.88.049L134.4,16.016a.559.559,0,0,1-.958-.411V12.193A3.613,3.613,0,0,0,129.888,8.5a3.551,3.551,0,0,0-3.417,3.607V22.231a4.9,4.9,0,0,1-1.361,3.4l-.089.092a4.932,4.932,0,0,0,0,6.8l9.856,10.2a4.535,4.535,0,0,0,6.571,0l.969-1a2.284,2.284,0,0,1,1.643-.7h3.684a4.568,4.568,0,0,0,3.285-1.409l7.615-7.884a3.758,3.758,0,0,0,.146-5.071Z" transform="translate(-109.317 0)" fill="#f9bf00"/>
      </g>
    </g>
    <rect id="Rectangle_116" data-name="Rectangle 116" width="110" height="101" transform="translate(1295 3629)" fill="none"/>
  </g>
</svg>
