<svg xmlns="http://www.w3.org/2000/svg" width="100" height="100" viewBox="0 0 100 100">
  <g id="ic-finance" transform="translate(-913 -1263)">
    <g id="budget" transform="translate(913 1261)">
      <path id="Union_1" data-name="Union 1" d="M56.694,16.53V74.142c0,.115,0,.23-.008.345a7.438,7.438,0,0,1-7.431,7.091H7.439A7.438,7.438,0,0,1,0,74.142V7.439A7.427,7.427,0,0,1,7.439,0H40.655a7.415,7.415,0,0,1,3.23.74c2.01.967,2.575,2.189,6.187,5.882,4.155,4.511,5.146,4.973,5.993,6.927A7.357,7.357,0,0,1,56.694,16.53Z" transform="translate(19.958 3)" fill="#bbb"/>
      <g id="Group_1132" data-name="Group 1132" transform="translate(3.731)">
        <rect id="Rectangle_12" data-name="Rectangle 12" width="43.572" height="58.654" rx="8" transform="translate(52.269 41.818)" fill="#1f89cd"/>
        <path id="Path_72" data-name="Path 72" d="M366.372,370.618v4.554a1.457,1.457,0,0,1-1.456,1.457H360.36a1.457,1.457,0,0,1-1.458-1.457v-4.554a1.457,1.457,0,0,1,1.458-1.457h4.556A1.457,1.457,0,0,1,366.372,370.618Z" transform="translate(-288.809 -293.393)" fill="#f9bf00"/>
        <path id="Path_73" data-name="Path 73" d="M320.456,208.425V213.3a3.142,3.142,0,0,1-3.142,3.142H292.177a3.143,3.143,0,0,1-3.142-3.142v-4.879a3.143,3.143,0,0,1,3.142-3.142h25.136A3.142,3.142,0,0,1,320.456,208.425Z" transform="translate(-230.917 -157.605)" fill="#fff"/>
        <g id="Group_58" data-name="Group 58" transform="translate(58.118 63.859)">
          <path id="Path_75" data-name="Path 75" d="M296.5,370.618v4.554a1.457,1.457,0,0,1-1.457,1.457h-4.555a1.458,1.458,0,0,1-1.457-1.457v-4.554a1.458,1.458,0,0,1,1.457-1.457h4.555A1.457,1.457,0,0,1,296.5,370.618Z" transform="translate(-289.034 -357.253)" fill="#f9bf00"/>
          <path id="Path_76" data-name="Path 76" d="M366.372,301.143V305.7a1.457,1.457,0,0,1-1.456,1.457H360.36A1.457,1.457,0,0,1,358.9,305.7v-4.554a1.457,1.457,0,0,1,1.458-1.457h4.556A1.457,1.457,0,0,1,366.372,301.143Z" transform="translate(-346.927 -299.686)" fill="#f9bf00"/>
        </g>
        <path id="Path_77" data-name="Path 77" d="M437.082,301.143V305.7a1.457,1.457,0,0,1-1.458,1.457h-4.554a1.457,1.457,0,0,1-1.457-1.457v-4.554a1.457,1.457,0,0,1,1.457-1.457h4.554A1.457,1.457,0,0,1,437.082,301.143Z" transform="translate(-347.398 -235.827)" fill="#fff"/>
        <g id="Group_59" data-name="Group 59" transform="translate(58.118 63.859)">
          <path id="Path_78" data-name="Path 78" d="M296.5,301.143V305.7a1.457,1.457,0,0,1-1.457,1.457h-4.555a1.458,1.458,0,0,1-1.457-1.457v-4.554a1.458,1.458,0,0,1,1.457-1.457h4.555A1.457,1.457,0,0,1,296.5,301.143Z" transform="translate(-289.034 -299.686)" fill="#ffd15b"/>
          <path id="Path_79" data-name="Path 79" d="M366.372,436.691v4.556a1.457,1.457,0,0,1-1.456,1.457H360.36a1.457,1.457,0,0,1-1.458-1.457v-4.556a1.457,1.457,0,0,1,1.458-1.456h4.556A1.456,1.456,0,0,1,366.372,436.691Z" transform="translate(-346.927 -412.001)" fill="#ffd15b"/>
          <path id="Path_80" data-name="Path 80" d="M296.5,436.691v4.556a1.457,1.457,0,0,1-1.457,1.457h-4.555a1.458,1.458,0,0,1-1.457-1.457v-4.556a1.458,1.458,0,0,1,1.457-1.456h4.555A1.457,1.457,0,0,1,296.5,436.691Z" transform="translate(-289.034 -412.001)" fill="#ffd15b"/>
        </g>
        <path id="Path_81" data-name="Path 81" d="M437.082,371.326v14.143a2.485,2.485,0,0,1-2.485,2.487h-2.5a2.485,2.485,0,0,1-2.485-2.487V371.326a2.165,2.165,0,0,1,2.165-2.165h3.139A2.164,2.164,0,0,1,437.082,371.326Z" transform="translate(-347.399 -293.393)" fill="#fff"/>
      </g>
      <path id="Path_90" data-name="Path 90" d="M351.1,16.811h-9.321a2.86,2.86,0,0,1-2.86-2.86V4a7.43,7.43,0,0,1,2.2,1.621l3.983,4.26,4.558,4.771A7.364,7.364,0,0,1,351.1,16.811Z" transform="translate(-275.076 -0.263)" fill="#9a9a9a"/>
      <g id="Group_62" data-name="Group 62" transform="translate(29.425 21.116)">
        <path id="Path_91" data-name="Path 91" d="M165.595,174.109h0c-1.753-.644-3.02-1.109-3.02-2.734,0-1.48.983-2.231,2.922-2.231a4.99,4.99,0,0,1,2.525.629,1.831,1.831,0,0,0,.812.277,1.381,1.381,0,0,0,1.226-1.416c0-1.2-1.954-1.792-3.7-1.949v-1.08a1.363,1.363,0,1,0-2.725,0v1.252a4.456,4.456,0,0,0-3.7,4.661c0,3.347,2.464,4.272,4.444,5.017,1.939.728,3.47,1.3,3.47,3.517,0,1.828-1.015,2.755-3.017,2.755a3.645,3.645,0,0,1-3.063-1.347c-.314-.339-.586-.631-1.013-.631a1.437,1.437,0,0,0-1.25,1.416c0,1.133,1.687,2.622,4.13,3.009V186.3a1.363,1.363,0,0,0,2.725,0v-1.072c2.627-.494,4.13-2.424,4.13-5.317C170.489,175.908,167.775,174.911,165.595,174.109Z" transform="translate(-158.257 -151.993)" fill="#fff"/>
        <path id="Path_92" data-name="Path 92" d="M323.221,100.861h3.612a1.438,1.438,0,1,0,0-2.876h-3.612a1.438,1.438,0,0,0,0,2.876Z" transform="translate(-290.533 -97.985)" fill="#fff"/>
        <path id="Path_93" data-name="Path 93" d="M154.2,100.861h25.5a1.438,1.438,0,1,0,0-2.876H154.2a1.438,1.438,0,1,0,0,2.876Z" transform="translate(-152.762 -97.985)" fill="#fff"/>
        <path id="Path_94" data-name="Path 94" d="M158.77,139.463a1.438,1.438,0,1,0,0-2.876H154.2a1.438,1.438,0,1,0,0,2.876Z" transform="translate(-152.762 -129.45)" fill="#fff"/>
        <path id="Path_95" data-name="Path 95" d="M234.567,136.587h-24.54a1.438,1.438,0,0,0,0,2.876h24.54a1.438,1.438,0,0,0,0-2.876Z" transform="translate(-198.268 -129.45)" fill="#fff"/>
      </g>
      <path id="Path_96" data-name="Path 96" d="M94.968,471.741a3.9,3.9,0,0,1-3.894,3.894H67.217a3.894,3.894,0,0,1,0-7.788H91.074A3.906,3.906,0,0,1,94.968,471.741Z" transform="translate(-50.922 -375.375)" fill="#ff9130"/>
      <path id="Path_97" data-name="Path 97" d="M94.968,432.337a3.9,3.9,0,0,1-3.894,3.894H67.217a3.894,3.894,0,0,1,0-7.788H91.074A3.906,3.906,0,0,1,94.968,432.337Z" transform="translate(-50.922 -343.759)" fill="#f9bf00"/>
      <path id="Path_98" data-name="Path 98" d="M94.968,392.933a3.9,3.9,0,0,1-3.894,3.894H67.217a3.894,3.894,0,0,1,0-7.788H91.074A3.906,3.906,0,0,1,94.968,392.933Z" transform="translate(-50.922 -312.143)" fill="#ff9130"/>
      <path id="Path_99" data-name="Path 99" d="M94.968,353.53a3.9,3.9,0,0,1-3.894,3.894H67.217a3.906,3.906,0,0,1-3.894-3.894,3.9,3.9,0,0,1,3.894-3.894H91.074A3.906,3.906,0,0,1,94.968,353.53Z" transform="translate(-50.922 -280.529)" fill="#f9bf00"/>
      <path id="Path_100" data-name="Path 100" d="M91.075,318.021H67.219a3.906,3.906,0,0,1-3.894-3.894h0a3.906,3.906,0,0,1,3.894-3.894H91.075a3.906,3.906,0,0,1,3.894,3.894h0A3.906,3.906,0,0,1,91.075,318.021Z" transform="translate(-50.924 -248.914)" fill="#ff9130"/>
      <path id="Path_101" data-name="Path 101" d="M17.724,381.232v25.351H13.845a12.643,12.643,0,0,1-8.969-3.193c-8.62-7.65-3.373-21.671,7.883-22.159Z" transform="translate(-0.583 -305.88)" fill="#ff9130"/>
      <path id="Path_102" data-name="Path 102" d="M51.17,394.323a12.686,12.686,0,0,1-25.351.084c0-.029,0-.056,0-.084a12.686,12.686,0,0,1,25.351-1Q51.189,393.828,51.17,394.323Z" transform="translate(-20.822 -305.836)" fill="#ffd575"/>
      <path id="Path_103" data-name="Path 103" d="M53.54,416.077c-.155.035-.309.066-.463.093a9.491,9.491,0,1,1,.463-.093Z" transform="translate(-33.769 -318.79)" fill="#f9bf00"/>
      <g id="Group_63" data-name="Group 63" transform="translate(0.031 79.654)">
        <path id="Path_106" data-name="Path 106" d="M75.239,409.441,75,409.353c-1.35-.5-1.487-.653-1.487-1.111,0-.385.142-.5.275-.57a1.983,1.983,0,0,1,.915-.178,2.5,2.5,0,0,1,1.307.328,1.751,1.751,0,0,0,.83.252,1.555,1.555,0,0,0,1.466-1.588c0-.935-.836-1.579-2.369-1.843v-.1a1.553,1.553,0,0,0-3.107,0v.295a3.486,3.486,0,0,0-2.369,3.491c0,2.614,1.9,3.328,3.287,3.85,1.323.5,1.78.715,1.78,1.615,0,.563-.151,1.083-1.251,1.083a1.685,1.685,0,0,1-1.462-.645,1.549,1.549,0,0,0-1.147-.621,1.6,1.6,0,0,0-1.481,1.588c0,1.062,1.1,2.07,2.645,2.479v.116a1.553,1.553,0,0,0,3.107,0v-.157a3.841,3.841,0,0,0,2.644-3.934C78.581,410.687,76.407,409.876,75.239,409.441Z" transform="translate(-56.46 -402.994)" fill="#fff"/>
        <path id="Path_107" data-name="Path 107" d="M10.325,409.992a12.645,12.645,0,0,0-1.48,3.066H3.895a12.488,12.488,0,0,1,1.478-3.066Z" transform="translate(-3.272 -408.609)" fill="#f9bf00"/>
        <path id="Path_108" data-name="Path 108" d="M5.795,440.968H.842A12.761,12.761,0,0,1,.827,437.9H5.782A12.716,12.716,0,0,0,5.795,440.968Z" transform="translate(-0.742 -431.002)" fill="#f9bf00"/>
        <path id="Path_109" data-name="Path 109" d="M10.839,469.582H5.885a12.586,12.586,0,0,1-1.566-3.066H9.272A12.508,12.508,0,0,0,10.839,469.582Z" transform="translate(-3.612 -453.961)" fill="#f9bf00"/>
      </g>
    </g>
    <rect id="Rectangle_84" data-name="Rectangle 84" width="100" height="100" transform="translate(913 1263)" fill="none"/>
  </g>
</svg>
