<svg xmlns="http://www.w3.org/2000/svg" width="85.961" height="85" viewBox="0 0 85.961 85">
  <g id="ic-fast" transform="translate(-349.5 -4079)">
    <g id="g2661" transform="translate(349.48 4768.431)">
      <g id="g2663" transform="translate(0 -682.665)">
        <g id="Group_133" data-name="Group 133">
          <g id="g2671" transform="translate(33.09 22.844)">
            <path id="path2673" d="M-349.608-174.8a25.2,25.2,0,0,1-25.2,25.2A25.2,25.2,0,0,1-400-174.8,25.2,25.2,0,0,1-374.8-200,25.2,25.2,0,0,1-349.608-174.8Z" transform="translate(399.999 200)" fill="none" stroke="#1f89cd" stroke-linecap="round" stroke-linejoin="round" stroke-miterlimit="10" stroke-width="5"/>
          </g>
          <g id="g2675" transform="translate(17.637 22.844)">
            <path id="path2677" d="M0,0H5.375" fill="none" stroke="#1f89cd" stroke-linecap="round" stroke-linejoin="round" stroke-miterlimit="10" stroke-width="5"/>
          </g>
          <g id="g2679" transform="translate(12.598 37.961)">
            <path id="path2681" d="M0,0H10.414" fill="none" stroke="#1f89cd" stroke-linecap="round" stroke-linejoin="round" stroke-miterlimit="10" stroke-width="5"/>
          </g>
          <g id="g2683" transform="translate(7.559 53.078)">
            <path id="path2685" d="M0,0H15.453" fill="none" stroke="#1f89cd" stroke-linecap="round" stroke-linejoin="round" stroke-miterlimit="10" stroke-width="5"/>
          </g>
          <g id="g2687" transform="translate(2.52 68.195)">
            <path id="path2689" d="M0,0H20.492" fill="none" stroke="#1f89cd" stroke-linecap="round" stroke-linejoin="round" stroke-miterlimit="10" stroke-width="5"/>
          </g>
          <g id="g2691" transform="translate(58.285 22.844)">
            <path id="path2693" d="M0,0V5.039" fill="none" stroke="#1f89cd" stroke-linecap="round" stroke-linejoin="round" stroke-miterlimit="10" stroke-width="5"/>
          </g>
          <g id="g2695" transform="translate(58.285 68.195)">
            <path id="path2697" d="M0,0V5.039" fill="none" stroke="#1f89cd" stroke-linecap="round" stroke-linejoin="round" stroke-miterlimit="10" stroke-width="5"/>
          </g>
          <g id="g2699" transform="translate(33.09 48.039)">
            <path id="path2701" d="M0,0H5.039" fill="none" stroke="#1f89cd" stroke-linecap="round" stroke-linejoin="round" stroke-miterlimit="10" stroke-width="5"/>
          </g>
          <g id="g2703" transform="translate(78.441 48.039)">
            <path id="path2705" d="M0,0H5.039" fill="none" stroke="#1f89cd" stroke-linecap="round" stroke-linejoin="round" stroke-miterlimit="10" stroke-width="5"/>
          </g>
          <g id="g2707" transform="translate(58.285 37.961)">
            <path id="path2709" d="M0,0V10.078H10.078" fill="none" stroke="#1f89cd" stroke-linecap="round" stroke-linejoin="round" stroke-miterlimit="10" stroke-width="5"/>
          </g>
          <g id="g2711" transform="translate(53.246 12.766)">
            <path id="path2713" d="M-69.922-34.961a5.039,5.039,0,0,1-5.039,5.039A5.039,5.039,0,0,1-80-34.961,5.039,5.039,0,0,1-74.961-40,5.039,5.039,0,0,1-69.922-34.961Z" transform="translate(80 40)" fill="none" stroke="#1f89cd" stroke-linecap="round" stroke-linejoin="round" stroke-miterlimit="10" stroke-width="5"/>
          </g>
        </g>
      </g>
    </g>
    <rect id="Rectangle_89" data-name="Rectangle 89" width="85" height="85" transform="translate(350 4079)" fill="none"/>
  </g>
</svg>
