<svg xmlns="http://www.w3.org/2000/svg" width="300" height="300" viewBox="0 0 300 300">
  <g id="ic-idea" transform="translate(-1320 -2057)">
    <g id="idea" transform="translate(1325.652 2057)" opacity="0.7">
      <g id="Line_18_" transform="translate(8.348 0)">
        <g id="Path_586" data-name="Path 586" transform="translate(10.137 18.463)" fill="#f7f7f7">
          <path d="M 132.9878082275391 280.9212341308594 L 119.3565521240234 280.9212341308594 C 114.8233947753906 280.9212341308594 110.4260864257812 280.0334777832031 106.2867431640625 278.2826538085938 C 102.2883682250977 276.5914611816406 98.69733428955078 274.1702880859375 95.61339569091797 271.0863342285156 C 92.52945709228516 268.0024108886719 90.10823822021484 264.411376953125 88.41705322265625 260.4129943847656 C 86.66623687744141 256.2736206054688 85.77848815917969 251.8763122558594 85.77848815917969 247.3431243896484 L 85.77848815917969 238.6244812011719 C 86.32015228271484 216.3320922851562 78.21221923828125 195.1010894775391 62.94767761230469 178.8447570800781 L 62.94414520263672 178.8409729003906 L 62.94052124023438 178.8372802734375 C 58.89342880249023 174.7021331787109 55.24589538574219 170.1455688476562 52.09923934936523 165.2940979003906 C 48.98252105712891 160.4887847900391 46.32992935180664 155.3525085449219 44.21511459350586 150.0279083251953 C 42.10030364990234 144.7033233642578 40.50589752197266 139.1466979980469 39.4762077331543 133.5123748779297 C 38.43677520751953 127.8246688842773 37.9638786315918 122.0083084106445 38.07065963745117 116.2238235473633 C 38.72348403930664 93.77649688720703 47.72304153442383 72.56496429443359 63.41176986694336 56.49887847900391 C 79.10170745849609 40.43156814575195 100.0932693481445 30.93115997314453 122.519645690918 29.7476921081543 C 123.7256622314453 29.69788360595703 124.950309753418 29.67259788513184 126.1581802368164 29.67259788513184 C 131.8682708740234 29.67259788513184 137.6037445068359 30.23309707641602 143.2053375244141 31.33850479125977 C 148.7607727050781 32.43481826782227 154.2362670898438 34.0771598815918 159.479736328125 36.21987915039062 C 164.728271484375 38.36469268798828 169.7914276123047 41.03015899658203 174.5284576416016 44.14219284057617 C 179.3137664794922 47.28594207763672 183.8121795654297 50.91578674316406 187.898681640625 54.93091201782227 C 192.1627655029297 59.12038040161133 196.0019836425781 63.73666000366211 199.3097381591797 68.65159606933594 C 202.5332641601562 73.44137573242188 205.2915496826172 78.5726318359375 207.5079650878906 83.90281677246094 C 209.6841735839844 89.13631439208984 211.3603363037109 94.61444091796875 212.4898681640625 100.1849746704102 C 213.6087341308594 105.7027206420898 214.2012329101562 111.3592224121094 214.2509307861328 116.9972839355469 C 214.3006134033203 122.6353454589844 213.8078918457031 128.3014068603516 212.7864532470703 133.8380737304688 C 211.7552337646484 139.4276580810547 210.1759033203125 144.9345092773438 208.0922393798828 150.2056274414062 C 205.9701080322266 155.5740966796875 203.3026428222656 160.7532196044922 200.1639862060547 165.5991668701172 C 196.9432983398438 170.5716857910156 193.1859588623047 175.2550354003906 188.9963073730469 179.5191040039062 L 188.993896484375 179.5215606689453 L 188.9915161132812 179.5240325927734 C 174.3401184082031 194.8512268066406 166.3758697509766 214.9686889648438 166.5658721923828 236.1705932617188 L 166.5658264160156 247.3431243896484 C 166.5658264160156 251.8763122558594 165.6780853271484 256.2736206054688 163.9272766113281 260.4129943847656 C 162.236083984375 264.411376953125 159.8148651123047 268.0024108886719 156.7309265136719 271.0863342285156 C 153.6470184326172 274.1702880859375 150.0559844970703 276.5914611816406 146.0576171875 278.2826538085938 C 141.9182739257812 280.0334777832031 137.5209655761719 280.9212341308594 132.9878082275391 280.9212341308594 Z M 99.43054962158203 253.6554718017578 L 99.66614532470703 254.3220977783203 C 102.6094284057617 262.6497802734375 110.5218353271484 268.2617492675781 119.3551483154297 268.2867431640625 L 132.9877777099609 268.2867431640625 C 141.8218078613281 268.2617492675781 149.7348022460938 262.6498107910156 152.6796722412109 254.3221588134766 L 152.9154205322266 253.6554718017578 L 152.2082672119141 253.6554718017578 L 100.137580871582 253.6554718017578 L 99.43054962158203 253.6554718017578 Z M 97.67014312744141 226.3946533203125 L 97.73186492919922 226.9499053955078 C 98.16055297851562 230.8065643310547 98.38864898681641 234.7328796386719 98.40970611572266 238.6197509765625 L 98.40970611572266 240.5259399414062 L 98.40970611572266 241.0259399414062 L 98.90970611572266 241.0259399414062 L 153.4346466064453 241.0259399414062 L 153.9346466064453 241.0259399414062 L 153.9346466064453 240.5259399414062 L 153.9346466064453 236.1645050048828 C 153.9346466064453 234.6047515869141 154.0387115478516 233.0321350097656 154.1393280029297 231.5112609863281 C 154.2393646240234 229.9993438720703 154.3428039550781 228.4359741210938 154.3428039550781 226.8946533203125 L 154.3428039550781 226.3946533203125 L 153.8428039550781 226.3946533203125 L 98.22880554199219 226.3946533203125 L 97.67014312744141 226.3946533203125 Z M 152.0503082275391 137.7933502197266 L 151.9851837158203 138.2174072265625 L 140.4669036865234 213.1875 L 140.3784027099609 213.7634429931641 L 140.9610900878906 213.7634429931641 L 156.2284240722656 213.7634429931641 L 156.6271820068359 213.7634429931641 L 156.7158966064453 213.3746948242188 C 160.3951416015625 197.2542266845703 168.4571838378906 182.4889984130859 180.0303649902344 170.67529296875 C 193.9328308105469 156.4917907714844 201.5948028564453 137.7434997558594 201.604736328125 117.8842239379883 C 201.6260223388672 76.27037811279297 167.7872467041016 42.39765930175781 126.1723937988281 42.37631607055664 L 123.0370178222656 42.37631607055664 L 123.0238647460938 42.37631607055664 L 123.0107116699219 42.37700271606445 C 83.57986450195312 44.45406723022461 51.81821060180664 76.99981689453125 50.70223999023438 116.4705352783203 C 50.28561019897461 136.4389801025391 58.06353378295898 156.0706787109375 72.03976440429688 170.3342437744141 C 83.5145263671875 182.3307800292969 91.57681274414062 197.2143096923828 95.35623931884766 213.3772888183594 L 95.44655609130859 213.7634429931641 L 95.84311676025391 213.7634429931641 L 111.3832092285156 213.7634429931641 L 111.9658966064453 213.7634429931641 L 111.8773956298828 213.1875 L 100.3591156005859 138.2174072265625 L 100.2939910888672 137.7933502197266 L 99.86492919921875 137.7933502197266 L 92.09568023681641 137.7933502197266 C 88.61324310302734 137.7933502197266 85.78008270263672 134.9601593017578 85.78008270263672 131.4777221679688 C 85.78008270263672 127.9952850341797 88.61324310302734 125.1621017456055 92.09568023681641 125.1621017456055 L 160.2485809326172 125.1621017456055 C 163.7310180664062 125.1621017456055 166.564208984375 127.9952850341797 166.564208984375 131.4777221679688 C 166.564208984375 134.9601593017578 163.7310180664062 137.7933502197266 160.2485809326172 137.7933502197266 L 152.4793701171875 137.7933502197266 L 152.0503082275391 137.7933502197266 Z M 113.1176147460938 137.7933502197266 L 113.2061157226562 138.3692779541016 L 124.724365234375 213.3393859863281 L 124.7894897460938 213.7634429931641 L 125.2185516357422 213.7634429931641 L 127.1273956298828 213.7634429931641 L 127.5564575195312 213.7634429931641 L 127.62158203125 213.3393859863281 L 139.1398620605469 138.3692779541016 L 139.2283630371094 137.7933502197266 L 138.6456756591797 137.7933502197266 L 113.7003021240234 137.7933502197266 L 113.1176147460938 137.7933502197266 Z" stroke="none"/>
          <path d="M 126.1581726074219 30.172607421875 C 124.9576416015625 30.172607421875 123.7405700683594 30.19772338867188 122.5404663085938 30.24725341796875 C 100.2413635253906 31.42501831054688 79.3704833984375 40.8719482421875 63.76950073242188 56.84820556640625 C 48.169677734375 72.8232421875 39.22067260742188 93.91421508789062 38.57057189941406 116.2342224121094 C 38.46453857421875 121.9848480224609 38.93472290039062 127.7680816650391 39.96806335449219 133.4225006103516 C 40.99183654785156 139.0245056152344 42.57707214355469 144.5492706298828 44.67976379394531 149.8433380126953 C 46.782470703125 155.1374053955078 49.41986083984375 160.2442626953125 52.51873779296875 165.0220336914062 C 55.6473388671875 169.8456268310547 59.27394104003906 174.3760986328125 63.29783630371094 178.4875335693359 L 63.31216430664062 178.5024719238281 C 78.666259765625 194.8541717529297 86.82225036621094 216.2076416015625 86.27850341796875 238.6307373046875 L 86.27850341796875 247.3431396484375 C 86.27850341796875 251.8090362548828 87.15296936035156 256.1408386230469 88.8775634765625 260.2182312011719 C 90.54356384277344 264.156982421875 92.92877197265625 267.6946411132812 95.96693420410156 270.7327880859375 C 99.005126953125 273.7709655761719 102.5427398681641 276.1561889648438 106.4815063476562 277.8221740722656 C 110.5588989257812 279.5468139648438 114.8906707763672 280.4212341308594 119.3565368652344 280.4212341308594 L 132.98779296875 280.4212341308594 C 137.4536743164062 280.4212341308594 141.7854309082031 279.5468139648438 145.8628234863281 277.8221740722656 C 149.8016052246094 276.1561889648438 153.3392028808594 273.7709655761719 156.3774108886719 270.7327880859375 C 159.4155578613281 267.6946411132812 161.8007659912109 264.156982421875 163.4667663574219 260.2182312011719 C 165.1913757324219 256.1408386230469 166.0658264160156 251.8090362548828 166.0658264160156 247.3431396484375 L 166.0658264160156 236.1712951660156 C 165.8756713867188 214.83984375 173.8890380859375 194.5994873046875 188.6300659179688 179.1785278320312 L 188.6396331787109 179.1686706542969 C 192.8057250976562 174.9286041259766 196.5419006347656 170.2716979980469 199.7442932128906 165.3273315429688 C 202.8650360107422 160.5090942382812 205.5172424316406 155.3596038818359 207.6272277832031 150.0218048095703 C 209.6990051269531 144.7807312011719 211.2694091796875 139.3051910400391 212.2947387695312 133.7473297119141 C 213.3103942871094 128.2420043945312 213.8003387451172 122.6079254150391 213.7509307861328 117.0016937255859 C 213.7015075683594 111.3954315185547 213.1123657226562 105.7709045410156 211.9998321533203 100.2843322753906 C 210.876708984375 94.74543762207031 209.2100677490234 89.2984619140625 207.0462646484375 84.09475708007812 C 204.842529296875 78.79505920410156 202.1000366210938 73.69316101074219 198.8949279785156 68.93072509765625 C 195.6059265136719 64.043701171875 191.7883605957031 59.45346069335938 187.5482635498047 55.28753662109375 C 183.4846343994141 51.294921875 179.0117034912109 47.68551635742188 174.2536926269531 44.55963134765625 C 169.5436096191406 41.4652099609375 164.5093688964844 38.81491088867188 159.2908020019531 36.68234252929688 C 154.0772705078125 34.55181884765625 148.6329650878906 32.91888427734375 143.1090698242188 31.82888793945312 C 137.5393676757812 30.7298583984375 131.8362731933594 30.172607421875 126.1581726074219 30.172607421875 M 157.0259094238281 214.263427734375 L 139.7957000732422 214.263427734375 L 151.6212768554688 137.2933349609375 L 160.2485656738281 137.2933349609375 C 163.4553375244141 137.2933349609375 166.064208984375 134.6844635009766 166.064208984375 131.4777374267578 C 166.064208984375 128.2709655761719 163.4553375244141 125.6620941162109 160.2485656738281 125.6620941162109 L 92.09567260742188 125.6620941162109 C 88.88896179199219 125.6620941162109 86.28010559082031 128.2709655761719 86.28010559082031 131.4777374267578 C 86.28010559082031 134.6844635009766 88.88896179199219 137.2933349609375 92.09567260742188 137.2933349609375 L 100.7230377197266 137.2933349609375 L 112.5485687255859 214.263427734375 L 95.05000305175781 214.263427734375 L 94.86940002441406 213.4911346435547 C 91.11048889160156 197.4161376953125 83.09121704101562 182.6123199462891 71.67935180664062 170.6807708740234 C 57.61119079589844 156.3220367431641 49.78291320800781 136.5609130859375 50.2022705078125 116.4637603759766 L 50.20243835449219 116.4563598632812 C 51.32566833496094 76.72723388671875 83.29533386230469 43.96835327148438 122.9844360351562 41.877685546875 L 123.0370330810547 41.87631225585938 L 126.1726379394531 41.87631225585938 C 168.0632019042969 41.89779663085938 202.1261596679688 75.99493408203125 202.104736328125 117.8844604492188 C 202.0946960449219 137.8753662109375 194.3820037841797 156.7478332519531 180.3875427246094 171.0251617431641 C 168.8789672851562 182.7729339599609 160.8619995117188 197.4556274414062 157.203369140625 213.4859313964844 L 157.0259094238281 214.263427734375 M 127.9855041503906 214.263427734375 L 124.3604736328125 214.263427734375 L 112.5349273681641 137.2933349609375 L 139.81103515625 137.2933349609375 L 127.9855041503906 214.263427734375 M 154.4346313476562 241.5259399414062 L 97.90972900390625 241.5259399414062 L 97.90972900390625 238.6224670410156 C 97.88873291015625 234.7529296875 97.66169738769531 230.8442993164062 97.23493957519531 227.005126953125 L 97.11146545410156 225.8946533203125 L 154.8428039550781 225.8946533203125 L 154.8428039550781 226.8946533203125 C 154.8428039550781 228.4525299072266 154.7388000488281 230.0242614746094 154.6382446289062 231.5442962646484 C 154.5381317138672 233.0570373535156 154.4346313476562 234.6213073730469 154.4346313476562 236.1644897460938 L 154.4346313476562 241.5259399414062 M 132.9906005859375 268.7867431640625 L 119.3536987304688 268.7867431640625 C 110.3095703125 268.7611389160156 102.2082977294922 263.0151977539062 99.19476318359375 254.4886932373047 L 98.72354125976562 253.1554565429688 L 153.62255859375 253.1554565429688 L 153.1510620117188 254.4888610839844 C 150.1358947753906 263.0152587890625 142.0340270996094 268.7611389160156 132.9906005859375 268.7867431640625 M 126.1581573486328 29.17257690429688 C 149.3340911865234 29.172607421875 171.6476745605469 38.26284790039062 188.2490997314453 54.57423400878906 C 223.1534423828125 88.86782836914062 223.6482391357422 144.9652252197266 189.3529357910156 179.8695373535156 C 174.8742370605469 195.0160675048828 166.8780670166016 215.2147674560547 167.0658264160156 236.1661376953125 L 167.0658264160156 247.3431396484375 C 167.0658264160156 266.1637268066406 151.8082580566406 281.4212341308594 132.98779296875 281.4212341308594 L 119.3565368652344 281.4212341308594 C 100.5360717773438 281.4212341308594 85.27850341796875 266.1637268066406 85.27850341796875 247.3431396484375 L 85.27850341796875 238.6187286376953 C 85.81570434570312 216.5944976806641 77.66273498535156 195.246337890625 62.58316040039062 179.1869964599609 C 46.14663696289062 162.3928985595703 37.13642883300781 139.7073669433594 37.57080078125 116.2119598388672 L 37.57080078125 116.2119293212891 C 38.92607116699219 69.53627014160156 75.86329650878906 31.70907592773438 122.4933013916016 29.24835205078125 C 123.7168426513672 29.19775390625 124.9386901855469 29.17257690429688 126.1581573486328 29.17257690429688 Z M 156.2284240722656 213.263427734375 C 159.9268646240234 197.0587615966797 168.0422668457031 182.1980285644531 179.6732025146484 170.3253631591797 C 193.4008026123047 156.3202667236328 201.0949096679688 137.4947967529297 201.104736328125 117.8839721679688 C 201.1259307861328 76.47920227050781 167.5769348144531 42.89755249023438 126.1721343994141 42.87631225585938 L 123.0370330810547 42.8763427734375 C 83.57536315917969 44.95498657226562 52.31886291503906 76.98216247558594 51.2020263671875 116.4846343994141 C 50.78559875488281 136.4432678222656 58.42587280273438 155.7274932861328 72.39833068847656 169.9857330322266 C 83.94276428222656 182.0542907714844 92.0401611328125 197 95.8431396484375 213.263427734375 L 111.3831939697266 213.263427734375 L 99.86492919921875 138.2933349609375 L 92.09567260742188 138.2933349609375 C 88.33193969726562 138.2933349609375 85.28010559082031 135.2414703369141 85.28010559082031 131.4777374267578 C 85.28010559082031 127.7139282226562 88.33193969726562 124.6620941162109 92.09567260742188 124.6620941162109 L 160.2485656738281 124.6620941162109 C 164.0123291015625 124.6620941162109 167.064208984375 127.7139282226562 167.064208984375 131.4777374267578 C 167.064208984375 135.2414703369141 164.0123596191406 138.2933349609375 160.2485656738281 138.2933349609375 L 152.4793701171875 138.2933349609375 L 140.9610595703125 213.263427734375 L 156.2284240722656 213.263427734375 Z M 113.7003021240234 138.2933349609375 L 125.2185668945312 213.263427734375 L 127.1273956298828 213.263427734375 L 138.6456604003906 138.2933349609375 L 113.7003021240234 138.2933349609375 Z M 98.22880554199219 226.8946533203125 C 98.66152954101562 230.7874298095703 98.88847351074219 234.6997985839844 98.90972900390625 238.6170349121094 L 98.90972900390625 240.5259399414062 L 153.4346313476562 240.5259399414062 L 153.4346313476562 236.1644897460938 C 153.4346313476562 233.0293273925781 153.8428039550781 229.9612426757812 153.8428039550781 226.8946533203125 L 98.22880554199219 226.8946533203125 Z M 100.1376037597656 254.1554565429688 C 103.0180053710938 262.3052673339844 110.7120971679688 267.7622680664062 119.3565368652344 267.7867431640625 L 132.9877624511719 267.7867431640625 C 141.6322021484375 267.7622680664062 149.3262939453125 262.3052673339844 152.2082672119141 254.1554565429688 L 100.1376037597656 254.1554565429688 Z" stroke="none" fill="#eee"/>
        </g>
        <g id="Path_587" data-name="Path 587" transform="translate(41.841 0)" fill="#f7f7f7">
          <path d="M 94.46758270263672 40.39369583129883 C 90.98514556884766 40.39369583129883 88.15196990966797 37.56051635742188 88.15196990966797 34.07807540893555 L 88.15196990966797 6.815616130828857 C 88.15196990966797 3.333175897598267 90.98514556884766 0.5000060200691223 94.46758270263672 0.5000060200691223 C 97.95005035400391 0.5000060200691223 100.7832565307617 3.333175897598267 100.7832565307617 6.815616130828857 L 100.7832565307617 34.07807540893555 C 100.7832565307617 37.55900573730469 97.949951171875 40.39217758178711 94.46736145019531 40.39369583129883 L 94.46758270263672 40.39369583129883 Z" stroke="none"/>
          <path d="M 94.46728515625 39.89369583129883 L 94.46714019775391 39.89369583129883 C 97.67416381835938 39.89229583740234 100.2832565307617 37.28342437744141 100.2832565307617 34.07807540893555 L 100.2832565307617 6.815616130828857 C 100.2832565307617 3.60887598991394 97.67435455322266 1.000005960464478 94.46758270263672 1.000005960464478 C 91.26084136962891 1.000005960464478 88.65196990966797 3.60887598991394 88.65196990966797 6.815616130828857 L 88.65196990966797 34.07807540893555 C 88.65196990966797 37.28461837768555 91.26081085205078 39.89337921142578 94.46728515625 39.89369583129883 M 94.46758270263672 40.89369583129883 C 90.70388031005859 40.89369583129883 87.65196990966797 37.84185791015625 87.65196990966797 34.07807540893555 L 87.65196990966797 6.815616130828857 C 87.65196990966797 3.051846027374268 90.70388031005859 6.008300715620862e-06 94.46758270263672 6.008300715620862e-06 C 98.23139953613281 6.008300715620862e-06 101.2832565307617 3.051846027374268 101.2832565307617 6.815616130828857 L 101.2832565307617 34.07807540893555 C 101.2832565307617 37.84185791015625 98.23139953613281 40.89205551147461 94.46758270263672 40.89369583129883 Z" stroke="none" fill="#eee"/>
        </g>
        <g id="Path_588" data-name="Path 588" transform="translate(73.525 13.197)" fill="#f7f7f7">
          <path d="M 144.5704956054688 61.31396484375 C 142.8736419677734 61.31396484375 141.2812194824219 60.65039825439453 140.0865478515625 59.44547653198242 L 140.0577087402344 59.41658782958984 L 140.0458679199219 59.40477752685547 C 138.8589019775391 58.20825576782227 138.2082214355469 56.61941528320312 138.2151184082031 54.93236541748047 C 138.2220153808594 53.24540710449219 138.8855590820312 51.66225814819336 140.0835266113281 50.47453689575195 L 167.3458099365234 23.21054649353027 C 168.5442352294922 22.01221656799316 170.1375427246094 21.35224723815918 171.8321990966797 21.35224723815918 C 173.5268707275391 21.35224723815918 175.1201171875 22.01220703125 176.3184204101562 23.21055603027344 C 177.5167846679688 24.40891647338867 178.1767425537109 26.00188636779785 178.1767425537109 27.69602584838867 C 178.1767425537109 29.39017677307129 177.5167846679688 30.98314666748047 176.3184356689453 32.18149566650391 L 149.0561065673828 59.44396591186523 L 149.028076171875 59.47190475463867 L 149.0171051025391 59.48286819458008 C 147.8272552490234 60.66326522827148 146.2476806640625 61.31396484375 144.5704956054688 61.31396484375 Z" stroke="none"/>
          <path d="M 171.8321990966797 21.85223770141602 C 170.2710876464844 21.85223770141602 168.8033447265625 22.46019744873047 167.6993865966797 23.5640869140625 L 140.435546875 50.82960510253906 C 139.3324584960938 51.92326736450195 138.7214660644531 53.38104629516602 138.7151184082031 54.93440628051758 C 138.7087707519531 56.48789596557617 139.3079376220703 57.95094680786133 140.3994293212891 59.05121612548828 L 140.4416046142578 59.09343719482422 C 141.5416717529297 60.20293426513672 143.0079956054688 60.81396484375 144.5704956054688 60.81396484375 C 146.1148834228516 60.81396484375 147.5693969726562 60.21477508544922 148.6638336181641 59.12903594970703 L 148.7025451660156 59.09041595458984 L 175.9648742675781 31.82793807983398 C 177.0687866210938 30.72402572631836 177.6767425537109 29.25661468505859 177.6767425537109 27.69602584838867 C 177.6767425537109 26.13543701171875 177.0687866210938 24.66802597045898 175.9648590087891 23.56410598754883 C 174.8609771728516 22.46018600463867 173.393310546875 21.85223770141602 171.8321990966797 21.85223770141602 M 171.8321990966797 20.85224151611328 C 173.5838623046875 20.85224151611328 175.3355102539062 21.5204963684082 176.6719818115234 22.85700607299805 C 179.3450012207031 25.53002548217773 179.3450012207031 29.86203765869141 176.6719818115234 32.5350456237793 L 149.4096527099609 59.79751586914062 C 149.3964996337891 59.81055450439453 149.3834533691406 59.82364654541016 149.3703918457031 59.83668518066406 C 146.6973876953125 62.48848724365234 142.3817901611328 62.47054290771484 139.7314910888672 59.79751586914062 C 139.7185363769531 59.78444671630859 139.7053680419922 59.77137756347656 139.6923217773438 59.75832366943359 C 137.0406036376953 57.08529663085938 137.0584564208984 52.76963806152344 139.7314910888672 50.11946487426758 L 166.9923400878906 22.85700607299805 C 168.328857421875 21.5204963684082 170.0805358886719 20.85224151611328 171.8321990966797 20.85224151611328 Z" stroke="none" fill="#eee"/>
        </g>
        <g id="Path_589" data-name="Path 589" transform="translate(-0.434 13.197)" fill="#f7f7f7">
          <path d="M 54.95902633666992 61.31396484375 C 54.95882034301758 61.31396484375 54.95865249633789 61.31396484375 54.95844650268555 61.31396484375 C 53.26141738891602 61.31381607055664 51.66899490356445 60.65024566650391 50.47453689575195 59.44548797607422 L 23.21055603027344 32.18149566650391 C 20.73726654052734 29.70820617675781 20.73726654052734 25.68385696411133 23.21055603027344 23.21055603027344 C 24.40891647338867 22.01220703125 26.00188636779785 21.35224723815918 27.69602584838867 21.35224723815918 C 29.39017677307129 21.35224723815918 30.98314666748047 22.01220703125 32.18149566650391 23.21055603027344 L 59.44396591186523 50.47301483154297 L 59.47338485717773 50.50245666503906 L 59.48313522338867 50.5121955871582 C 60.67014694213867 51.70870590209961 61.32082748413086 53.29753494262695 61.31391525268555 54.9846076965332 C 61.3070068359375 56.67155838012695 60.64345550537109 58.25471496582031 59.44548797607422 59.44244766235352 L 59.40486526489258 59.48304748535156 C 58.21519088745117 60.66327285766602 56.63582611083984 61.31396484375 54.95902633666992 61.31396484375 Z" stroke="none"/>
          <path d="M 27.69602584838867 21.85223770141602 C 26.13544464111328 21.85223770141602 24.66803741455078 22.46019744873047 23.56411743164062 23.56411743164062 C 22.46019744873047 24.66802597045898 21.85223770141602 26.13543701171875 21.85223770141602 27.69602584838867 C 21.85223770141602 29.25661468505859 22.46019744873047 30.72402572631836 23.56411743164062 31.82793807983398 L 50.82959747314453 59.09344482421875 C 51.92961883544922 60.20294570922852 53.39591598510742 60.81396484375 54.95839691162109 60.81396484375 C 56.5028076171875 60.81396484375 57.95733642578125 60.21477508544922 59.05139923095703 59.12939453125 L 59.09344482421875 59.08738708496094 C 60.19654846191406 57.99370574951172 60.80755615234375 56.53591918945312 60.81391906738281 54.98255920410156 C 60.82027435302734 53.4290657043457 60.22110748291016 51.96602630615234 59.12957763671875 50.86575698852539 L 59.09040832519531 50.82657623291016 L 31.82793807983398 23.56411743164062 C 30.72401809692383 22.46019744873047 29.25660705566406 21.85223770141602 27.69602584838867 21.85223770141602 M 27.69602966308594 20.85224151611328 C 29.44728469848633 20.85224151611328 31.19853973388672 21.5204963684082 32.5350456237793 22.85700607299805 L 59.79751586914062 50.11946487426758 C 59.81055450439453 50.13252639770508 59.82364654541016 50.14560699462891 59.83668518066406 50.15864562988281 C 62.48849487304688 52.8316764831543 62.47052764892578 57.14734649658203 59.79751586914062 59.79751586914062 L 59.75832366943359 59.83668518066406 C 57.08530044555664 62.48849487304688 52.76964569091797 62.47052764892578 50.11946487426758 59.79751586914062 L 22.85700607299805 32.5350456237793 C 20.18398666381836 29.86203765869141 20.18398666381836 25.53002548217773 22.85700607299805 22.85700607299805 C 24.19351577758789 21.5204963684082 25.94477462768555 20.85224151611328 27.69602966308594 20.85224151611328 Z" stroke="none" fill="#eee"/>
        </g>
        <g id="Path_590" data-name="Path 590" transform="translate(81.465 55.473)" fill="#f7f7f7">
          <path d="M 184.3390350341797 100.7832565307617 L 157.0766906738281 100.7832565307617 C 153.5942077636719 100.7832565307617 150.760986328125 97.95005035400391 150.760986328125 94.46758270263672 C 150.760986328125 90.98514556884766 153.5942077636719 88.15196990966797 157.0766906738281 88.15196990966797 L 184.3390350341797 88.15196990966797 C 187.8215789794922 88.15196990966797 190.6548309326172 90.98514556884766 190.6548309326172 94.46758270263672 C 190.6548309326172 97.95005035400391 187.8215789794922 100.7832565307617 184.3390350341797 100.7832565307617 Z" stroke="none"/>
          <path d="M 157.0766906738281 88.65196990966797 C 153.8699035644531 88.65196990966797 151.260986328125 91.26084136962891 151.260986328125 94.46758270263672 C 151.260986328125 97.67435455322266 153.8699035644531 100.2832565307617 157.0766906738281 100.2832565307617 L 184.3390350341797 100.2832565307617 C 187.5458831787109 100.2832565307617 190.1548309326172 97.67435455322266 190.1548309326172 94.46758270263672 C 190.1548309326172 91.26084136962891 187.5458831787109 88.65196990966797 184.3390350341797 88.65196990966797 L 157.0766906738281 88.65196990966797 M 157.0766906738281 87.65196990966797 L 184.3390350341797 87.65196990966797 C 188.1029510498047 87.65196990966797 191.1548309326172 90.70388031005859 191.1548309326172 94.46758270263672 C 191.1548309326172 98.23139953613281 188.1029510498047 101.2832565307617 184.3390350341797 101.2832565307617 L 157.0766906738281 101.2832565307617 C 153.3128814697266 101.2832565307617 150.260986328125 98.23139953613281 150.260986328125 94.46758270263672 C 150.260986328125 90.70388031005859 153.3128814697266 87.65196990966797 157.0766906738281 87.65196990966797 Z" stroke="none" fill="#eee"/>
        </g>
        <g id="Path_591" data-name="Path 591" transform="translate(-8.348 55.473)" fill="#f7f7f7">
          <path d="M 42.42607879638672 100.7832565307617 L 15.16362762451172 100.7832565307617 C 11.68118762969971 100.7832565307617 8.848007202148438 97.95005035400391 8.848007202148438 94.46758270263672 C 8.848007202148438 90.98514556884766 11.68118762969971 88.15196990966797 15.16362762451172 88.15196990966797 L 42.42607879638672 88.15196990966797 C 45.90851593017578 88.15196990966797 48.7416877746582 90.98514556884766 48.7416877746582 94.46758270263672 C 48.7416877746582 97.95005035400391 45.90851593017578 100.7832565307617 42.42607879638672 100.7832565307617 Z" stroke="none"/>
          <path d="M 15.16362762451172 88.65196990966797 C 11.95688629150391 88.65196990966797 9.348007202148438 91.26084136962891 9.348007202148438 94.46758270263672 C 9.348007202148438 97.67435455322266 11.95688629150391 100.2832565307617 15.16362762451172 100.2832565307617 L 42.42607879638672 100.2832565307617 C 45.63281631469727 100.2832565307617 48.2416877746582 97.67435455322266 48.2416877746582 94.46758270263672 C 48.2416877746582 91.26084136962891 45.63281631469727 88.65196990966797 42.42607879638672 88.65196990966797 L 15.16362762451172 88.65196990966797 M 15.16362762451172 87.65196990966797 L 42.42607879638672 87.65196990966797 C 46.18985748291016 87.65196990966797 49.2416877746582 90.70388031005859 49.2416877746582 94.46758270263672 C 49.2416877746582 98.23139953613281 46.18985748291016 101.2832565307617 42.42607879638672 101.2832565307617 L 15.16362762451172 101.2832565307617 C 11.39984893798828 101.2832565307617 8.348007202148438 98.23139953613281 8.348007202148438 94.46758270263672 C 8.348007202148438 90.70388031005859 11.39984893798828 87.65196990966797 15.16362762451172 87.65196990966797 Z" stroke="none" fill="#eee"/>
        </g>
      </g>
    </g>
    <rect id="Rectangle_129" data-name="Rectangle 129" width="300" height="300" transform="translate(1320 2057)" fill="none"/>
  </g>
</svg>
