<svg xmlns="http://www.w3.org/2000/svg" width="44.812" height="44.813" viewBox="0 0 44.812 44.813">
  <path id="ic-line-square" d="M27.217,19.475v7.112a.316.316,0,0,1-.32.32h-1.14a.331.331,0,0,1-.26-.13l-3.261-4.4V26.6a.316.316,0,0,1-.32.32h-1.14a.316.316,0,0,1-.32-.32V19.485a.316.316,0,0,1,.32-.32h1.13a.3.3,0,0,1,.26.14l3.261,4.4V19.485a.316.316,0,0,1,.32-.32h1.14a.316.316,0,0,1,.33.31Zm-8.2-.32h-1.14a.316.316,0,0,0-.32.32v7.112a.316.316,0,0,0,.32.32h1.14a.316.316,0,0,0,.32-.32V19.475A.322.322,0,0,0,19.015,19.155Zm-2.751,5.962H13.154V19.475a.316.316,0,0,0-.32-.32h-1.14a.316.316,0,0,0-.32.32v7.112a.294.294,0,0,0,.09.22.337.337,0,0,0,.22.09h4.571a.316.316,0,0,0,.32-.32v-1.14a.32.32,0,0,0-.31-.32Zm16.955-5.962H28.648a.322.322,0,0,0-.32.32v7.112a.322.322,0,0,0,.32.32h4.571a.316.316,0,0,0,.32-.32v-1.14a.316.316,0,0,0-.32-.32H30.108v-1.2h3.111a.316.316,0,0,0,.32-.32v-1.15a.316.316,0,0,0-.32-.32H30.108v-1.2h3.111a.316.316,0,0,0,.32-.32v-1.14a.336.336,0,0,0-.32-.32Zm11.593-8.732V38.96a8.147,8.147,0,0,1-8.172,8.1H8.1A8.154,8.154,0,0,1,0,38.89V10.352a8.154,8.154,0,0,1,8.172-8.1H36.71A8.147,8.147,0,0,1,44.812,10.422ZM38.651,22.686c0-7.3-7.322-13.244-16.314-13.244S6.022,15.384,6.022,22.686c0,6.542,5.8,12.023,13.644,13.064,1.911.41,1.69,1.11,1.26,3.681-.07.41-.33,1.61,1.41.88s9.393-5.532,12.824-9.473A11.818,11.818,0,0,0,38.651,22.686Z" transform="translate(0 -2.25)" fill="#57b45b"/>
</svg>
