<svg xmlns="http://www.w3.org/2000/svg" width="18" height="17.25" viewBox="0 0 18 17.25">
  <path id="ic-line-logo" d="M9,.5C4.039.5,0,3.8,0,7.852c0,3.631,3.2,6.673,7.526,7.251.293.062.692.2.793.446a1.856,1.856,0,0,1,.029.815l-.123.77c-.034.227-.18.895.787.487a29.019,29.019,0,0,0,7.077-5.264A6.526,6.526,0,0,0,18,7.852C18,3.8,13.961.5,9,.5ZM5.477,10.263H3.688a.477.477,0,0,1-.473-.475v-3.6a.473.473,0,1,1,.945,0V9.313H5.477a.475.475,0,0,1,0,.95Zm1.849-.475a.472.472,0,1,1-.944,0v-3.6a.472.472,0,1,1,.944,0Zm4.306,0a.475.475,0,0,1-.324.45.485.485,0,0,1-.149.023.463.463,0,0,1-.383-.189l-1.832-2.5V9.787a.471.471,0,1,1-.943,0v-3.6a.473.473,0,0,1,.323-.449.436.436,0,0,1,.146-.025.484.484,0,0,1,.371.192l1.846,2.513V6.187a.473.473,0,1,1,.945,0Zm2.891-2.276a.476.476,0,0,1,0,.952H13.208v.849h1.316a.475.475,0,0,1,0,.95H12.734a.475.475,0,0,1-.47-.475v-3.6a.475.475,0,0,1,.472-.475h1.789a.476.476,0,0,1,0,.951H13.208v.849Z" transform="translate(0 -0.5)" fill="#fff"/>
</svg>
