<svg xmlns="http://www.w3.org/2000/svg" width="63" height="63" viewBox="0 0 63 63">
  <g id="ic-light-light" transform="translate(62)" opacity="0.55">
    <g id="Ellipse_3" data-name="Ellipse 3" transform="translate(-62)" fill="none" stroke="#fff" stroke-width="11" opacity="0.2">
      <circle cx="31.5" cy="31.5" r="31.5" stroke="none"/>
      <circle cx="31.5" cy="31.5" r="26" fill="none"/>
    </g>
    <g id="Path_152" data-name="Path 152" transform="translate(-51 11)" fill="#fff">
      <path d="M 20.5 35.5 C 12.22896671295166 35.5 5.5 28.77103424072266 5.5 20.5 C 5.5 12.22896671295166 12.22896671295166 5.5 20.5 5.5 C 28.77103424072266 5.5 35.5 12.22896671295166 35.5 20.5 C 35.5 28.77103424072266 28.77103424072266 35.5 20.5 35.5 Z" stroke="none"/>
      <path d="M 20.5 11 C 15.26168251037598 11 11 15.26168251037598 11 20.5 C 11 25.73831558227539 15.26168251037598 30 20.5 30 C 25.73831558227539 30 30 25.73831558227539 30 20.5 C 30 15.26168251037598 25.73831558227539 11 20.5 11 M 20.5 0 C 31.82183456420898 0 41 9.178167343139648 41 20.5 C 41 31.82183456420898 31.82183456420898 41 20.5 41 C 9.178167343139648 41 0 31.82183456420898 0 20.5 C 0 9.178167343139648 9.178167343139648 0 20.5 0 Z" stroke="none" fill="#8ac1e5"/>
    </g>
  </g>
</svg>
