<svg xmlns="http://www.w3.org/2000/svg" width="104.364" height="78.273" viewBox="0 0 104.364 78.273">
  <g id="ic-menu" transform="translate(0 -58.025)">
    <g id="grip-solid-horizontal_1_" transform="translate(0 58.025)">
      <path id="Path_1978" data-name="Path 1978" d="M97.841,361.2H6.523a6.523,6.523,0,0,1,0-13.046H97.841a6.523,6.523,0,1,1,0,13.046Z" transform="translate(0 -282.927)" fill="#fff"/>
      <path id="Path_1979" data-name="Path 1979" d="M97.841,216.135H6.523a6.523,6.523,0,1,1,0-13.045H97.841a6.523,6.523,0,1,1,0,13.045Z" transform="translate(0 -170.476)" fill="#fff"/>
      <path id="Path_1980" data-name="Path 1980" d="M97.841,71.07H6.523a6.523,6.523,0,1,1,0-13.045H97.841a6.523,6.523,0,1,1,0,13.045Z" transform="translate(0 -58.025)" fill="#fff"/>
    </g>
  </g>
</svg>
