<svg xmlns="http://www.w3.org/2000/svg" width="26" height="26" viewBox="0 0 26 26">
  <g id="ic-mail" transform="translate(-1037 -9076)">
    <g id="email" transform="translate(1039 9016.734)">
      <path id="Path_305" data-name="Path 305" d="M12.644,177.423a3.259,3.259,0,0,1-3.621,0L.144,171.5q-.074-.049-.144-.1v9.7A1.994,1.994,0,0,0,1.995,183.1H19.672a1.994,1.994,0,0,0,1.995-1.995v-9.7c-.047.035-.1.07-.145.1Z" transform="translate(0 -102.602)" fill="#1f89cd"/>
      <path id="Path_306" data-name="Path 306" d="M.848,67.846l8.878,5.919a1.989,1.989,0,0,0,2.213,0l8.878-5.919a1.9,1.9,0,0,0,.848-1.586,2,2,0,0,0-1.994-1.994H1.994A2,2,0,0,0,0,66.261a1.9,1.9,0,0,0,.848,1.585Z" fill="#1f89cd"/>
    </g>
    <rect id="Rectangle_98" data-name="Rectangle 98" width="26" height="26" transform="translate(1037 9076)" fill="none"/>
  </g>
</svg>
