<svg xmlns="http://www.w3.org/2000/svg" xmlns:xlink="http://www.w3.org/1999/xlink" width="300" height="300" viewBox="0 0 300 300">
  <defs>
    <clipPath id="clip-path">
      <path id="path702" d="M0-682.665H300v300H0Z" transform="translate(0 682.665)" fill="#f7f7f7" stroke="#eee" stroke-width="1"/>
    </clipPath>
  </defs>
  <g id="ic-mess" opacity="0.7">
    <g id="g700" clip-path="url(#clip-path)">
      <g id="g706" transform="translate(2.834 108.889)">
        <path id="path708" d="M-63.467.066A23.559,23.559,0,0,1-87-23.467,23.559,23.559,0,0,1-63.467-47,23.559,23.559,0,0,1-39.934-23.467,23.559,23.559,0,0,1-63.467.066Zm0-35.156A11.637,11.637,0,0,0-75.091-23.467,11.637,11.637,0,0,0-63.467-11.844,11.637,11.637,0,0,0-51.844-23.467,11.637,11.637,0,0,0-63.467-35.091Z" transform="translate(87 47)" fill="#f7f7f7"/>
      </g>
      <g id="g710" transform="translate(20.413 38.577)">
        <path id="path712" d="M104.423-24.153A58.755,58.755,0,0,1,45.734-82.842V-94.465h-29.2A23.559,23.559,0,0,1-7-118v-17.578a5.955,5.955,0,0,1,5.955-5.955,5.955,5.955,0,0,1,5.955,5.955V-118a11.637,11.637,0,0,0,11.623,11.623H45.965A76.373,76.373,0,0,1,122-176.687h46.78v-23.247H104.423a23.559,23.559,0,0,1-23.533-23.533A23.559,23.559,0,0,1,104.423-247H139.58a41.174,41.174,0,0,1,40.681,35.156H263.8a5.955,5.955,0,0,1,5.955,5.955,5.955,5.955,0,0,1-5.955,5.955H180.69v23.677a41.174,41.174,0,0,1,35.156,40.681,76.365,76.365,0,0,1-70.714,76.067A41.173,41.173,0,0,1,104.423-24.153ZM57.644-94.465v11.624a46.833,46.833,0,0,0,46.78,46.78,29.253,29.253,0,0,0,28.591-23.247H122A41.174,41.174,0,0,1,81.321-94.465Zm35.766,0A29.253,29.253,0,0,0,122-71.218h11.013a29.253,29.253,0,0,0-28.591-23.247Zm0-11.909h11.013A41.174,41.174,0,0,1,145.07-71.45a64.448,64.448,0,0,0,58.868-64.126,29.252,29.252,0,0,0-23.755-28.692,41.176,41.176,0,0,1-40.6,34.647H122A29.253,29.253,0,0,0,93.41-106.374Zm-35.493,0h23.4A41.174,41.174,0,0,1,122-141.531H139.58a29.253,29.253,0,0,0,28.591-23.247H122A64.449,64.449,0,0,0,57.917-106.374ZM104.423-235.09A11.637,11.637,0,0,0,92.8-223.467a11.637,11.637,0,0,0,11.623,11.624h63.748A29.253,29.253,0,0,0,139.58-235.09Z" transform="translate(7 246.999)" fill="#f7f7f7"/>
      </g>
      <g id="g714" transform="translate(250.099 56.153)">
        <g id="path716" transform="translate(7.002 87.001)" fill="#f7f7f7" stroke-linecap="round">
          <path d="M -1.040989279747009 -40.43323135375977 C -3.122819185256958 -40.43323135375977 -4.994019508361816 -41.58910369873047 -5.924369335174561 -43.44977188110352 C -7.269439220428467 -46.13993072509766 -6.175139427185059 -49.4228515625 -3.484979391098022 -50.76794052124023 L 21.01932144165039 -63.02007293701172 L 21.91374015808105 -63.46728134155273 L 21.01932144165039 -63.91449356079102 L -3.484979391098022 -76.16664123535156 C -6.175139427185059 -77.51173400878906 -7.269439220428467 -80.79465484619141 -5.924369335174561 -83.48480987548828 C -4.994019508361816 -85.34547424316406 -3.122819185256958 -86.5013427734375 -1.040969252586365 -86.5013427734375 C -0.1913492828607559 -86.5013427734375 0.6278207302093506 -86.30715942382812 1.393780708312988 -85.9241943359375 L 36.55002212524414 -68.34605407714844 C 37.45672988891602 -67.8927001953125 38.21768951416016 -67.19727325439453 38.75062942504883 -66.33495330810547 C 39.2835807800293 -65.47263336181641 39.56528091430664 -64.48101043701172 39.56528091430664 -63.46729278564453 C 39.56528091430664 -62.45357131958008 39.2835807800293 -61.46195220947266 38.75062942504883 -60.5996208190918 C 38.21768951416016 -59.73730087280273 37.45672988891602 -59.04187393188477 36.55002212524414 -58.5885124206543 L 1.393770694732666 -41.01040267944336 C 0.6278107166290283 -40.62742233276367 -0.191359281539917 -40.43323135375977 -1.040989279747009 -40.43323135375977 Z" stroke="none"/>
          <path d="M -1.040989279747009 -40.93323135375977 C -0.2696792781352997 -40.93323135375977 0.4742607176303864 -41.10966110229492 1.170170664787292 -41.45762252807617 L 36.32641220092773 -59.03573226928711 C 38.01581192016602 -59.88043212890625 39.06528091430664 -61.57851409912109 39.06528091430664 -63.46729278564453 C 39.06528091430664 -65.3560791015625 38.01581192016602 -67.05414581298828 36.32641983032227 -67.89883422851562 L 1.170170664787292 -85.47697448730469 C 0.4742707014083862 -85.82492065429688 -0.2696592807769775 -86.0013427734375 -1.040969252586365 -86.0013427734375 C -2.932209253311157 -86.0013427734375 -4.632049083709717 -84.95138549804688 -5.477149486541748 -83.26121520996094 C -6.698929309844971 -80.81764221191406 -5.704939365386963 -77.83565521240234 -3.261379241943359 -76.61386108398438 L 23.03178024291992 -63.46728134155273 L -3.261369228363037 -50.32072067260742 C -5.704939365386963 -49.09893417358398 -6.698929309844971 -46.116943359375 -5.477149486541748 -43.67338180541992 C -4.632049083709717 -41.98319244384766 -2.932219266891479 -40.93323135375977 -1.040989279747009 -40.93323135375977 M -1.040989279747009 -39.93323135375977 C -3.225409269332886 -39.93323135375977 -5.328219413757324 -41.13946151733398 -6.371579170227051 -43.22616195678711 C -7.842309474945068 -46.16763305664062 -6.650049209594727 -49.74441146850586 -3.708589315414429 -51.21515274047852 L 20.79571151733398 -63.46728134155273 L -3.708589315414429 -75.71942901611328 C -6.650049209594727 -77.19017028808594 -7.842309474945068 -80.76695251464844 -6.371579170227051 -83.70841979980469 C -4.900839328765869 -86.64986419677734 -1.324069499969482 -87.84213256835938 1.617380738258362 -86.37139892578125 L 36.77363204956055 -68.79325866699219 C 38.79096984863281 -67.78459930419922 40.06528091430664 -65.72274017333984 40.06528091430664 -63.46729278564453 C 40.06528091430664 -61.21184158325195 38.79096984863281 -59.14998245239258 36.77363204956055 -58.14130401611328 L 1.617380738258362 -40.56319427490234 C 0.7626307010650635 -40.13581085205078 -0.1462092846632004 -39.93323135375977 -1.040989279747009 -39.93323135375977 Z" stroke="none" fill="#eee"/>
        </g>
      </g>
    </g>
  </g>
</svg>
