<svg xmlns="http://www.w3.org/2000/svg" width="100" height="100" viewBox="0 0 100 100">
  <g id="ic-order-manage" transform="translate(-463 -5990)">
    <g id="order_1_" data-name="order (1)" transform="translate(439.292 5990)">
      <path id="Path_223" data-name="Path 223" d="M260.525,8.282l.334-.2a8.393,8.393,0,0,0-16.775,0l.36.2Z" transform="translate(-172.735)" fill="#ff9130"/>
      <path id="Path_225" data-name="Path 225" d="M191.771,76.2a14.107,14.107,0,0,1-14.176-13.012l-.012-.181H152.455a1.825,1.825,0,0,1-1.842-1.8V55.493h-10.8a2.019,2.019,0,0,0-2.04,2v62.335H158.4a.819.819,0,0,1,.664.33.783.783,0,0,1,.119.72l-5.115,15.649.136.079a3.927,3.927,0,0,1,1.051.89H194.6a2.019,2.019,0,0,0,2.04-2V75.362a14.411,14.411,0,0,1-4.871.842Z" transform="translate(-87.47 -44.506)" fill="#83c6f2"/>
      <path id="Path_226" data-name="Path 226" d="M260.951,417.769h-31.9l-2.189,6.84H261.89a1.02,1.02,0,0,0,1.02-1.02v-5.623Z" transform="translate(-158.92 -336.703)" fill="#eaf6ff"/>
      <path id="Path_227" data-name="Path 227" d="M198.588,84.276l-.012-.18H173.448a1.819,1.819,0,0,1-1.842-1.791v-.637h-6.641a1.006,1.006,0,0,0-1.02.992v57.858h15.446a.821.821,0,0,1,.664.328.773.773,0,0,1,.119.715l-1.647,5h33.926V97.191a14.057,14.057,0,0,1-13.865-12.915Z" transform="translate(-108.463 -65.499)" fill="#fff"/>
      <path id="Path_229" data-name="Path 229" d="M228.785,50.68a14.156,14.156,0,0,1,3.979-9.846H203.679a2.04,2.04,0,0,0-2.04,2.04v6.7a2.04,2.04,0,0,0,2.04,2.04h25.141c-.02-.309-.034-.619-.034-.933Z" transform="translate(-138.694 -32.75)" fill="#ff9130"/>
      <g id="Group_181" data-name="Group 181" transform="translate(60.864 25.131)">
        <g id="Group_178" data-name="Group 178">
          <g id="Group_177" data-name="Group 177" transform="translate(2.047)">
            <path id="Path_231" data-name="Path 231" d="M205.855,137.37a1.485,1.485,0,0,1-1.01-.4l-2.9-2.695a1.485,1.485,0,1,1,2.021-2.176l1.671,1.552,4.406-6.1a1.485,1.485,0,1,1,2.407,1.739l-5.39,7.463a1.485,1.485,0,0,1-1.058.608A1.442,1.442,0,0,1,205.855,137.37Z" transform="translate(-201.468 -126.937)" fill="#1f89cd"/>
          </g>
        </g>
        <g id="Group_180" data-name="Group 180" transform="translate(14.9 4.146)">
          <path id="Path_232" data-name="Path 232" d="M286.39,147.879H267.87a1.485,1.485,0,1,0,0,2.97h20.522a1.485,1.485,0,0,0,1.423-1.063A14.225,14.225,0,0,1,286.39,147.879Z" transform="translate(-266.385 -147.879)" fill="#9a9a9a"/>
          <g id="Group_179" data-name="Group 179" transform="translate(0 4.975)">
            <path id="Path_233" data-name="Path 233" d="M283.417,175.978H267.87a1.485,1.485,0,1,1,0-2.97h15.547a1.485,1.485,0,0,1,0,2.97Z" transform="translate(-266.385 -173.008)" fill="#9a9a9a"/>
          </g>
        </g>
      </g>
      <g id="Group_188" data-name="Group 188" transform="translate(60.864 42.337)">
        <g id="Group_184" data-name="Group 184">
          <g id="Group_183" data-name="Group 183" transform="translate(2.047)">
            <path id="Path_234" data-name="Path 234" d="M205.855,224.274a1.485,1.485,0,0,1-1.01-.4l-2.9-2.695a1.485,1.485,0,1,1,2.021-2.176l1.671,1.552,4.406-6.1a1.485,1.485,0,1,1,2.407,1.739l-5.39,7.463a1.485,1.485,0,0,1-1.058.608C205.953,224.271,205.9,224.274,205.855,224.274Z" transform="translate(-201.468 -213.841)" fill="#1f89cd"/>
          </g>
        </g>
        <g id="Group_187" data-name="Group 187" transform="translate(14.9 4.146)">
          <g id="Group_185" data-name="Group 185">
            <path id="Path_235" data-name="Path 235" d="M288.392,237.753H267.87a1.485,1.485,0,1,1,0-2.97h20.522a1.485,1.485,0,0,1,0,2.97Z" transform="translate(-266.385 -234.783)" fill="#9a9a9a"/>
          </g>
          <g id="Group_186" data-name="Group 186" transform="translate(0 4.975)">
            <path id="Path_236" data-name="Path 236" d="M283.417,262.882H267.87a1.485,1.485,0,1,1,0-2.97h15.547a1.485,1.485,0,0,1,0,2.97Z" transform="translate(-266.385 -259.912)" fill="#9a9a9a"/>
          </g>
        </g>
      </g>
      <g id="Group_195" data-name="Group 195" transform="translate(60.864 59.543)">
        <g id="Group_191" data-name="Group 191">
          <g id="Group_190" data-name="Group 190" transform="translate(2.047)">
            <path id="Path_237" data-name="Path 237" d="M205.855,311.178a1.485,1.485,0,0,1-1.01-.4l-2.9-2.695a1.485,1.485,0,0,1,2.021-2.176l1.671,1.552,4.406-6.1a1.485,1.485,0,0,1,2.407,1.739l-5.39,7.463a1.485,1.485,0,0,1-1.058.608C205.953,311.175,205.9,311.178,205.855,311.178Z" transform="translate(-201.468 -300.745)" fill="#1f89cd"/>
          </g>
        </g>
        <g id="Group_194" data-name="Group 194" transform="translate(14.9 4.146)">
          <g id="Group_192" data-name="Group 192">
            <path id="Path_238" data-name="Path 238" d="M288.392,324.657H267.87a1.485,1.485,0,1,1,0-2.97h20.522a1.485,1.485,0,0,1,0,2.97Z" transform="translate(-266.385 -321.687)" fill="#9a9a9a"/>
          </g>
          <g id="Group_193" data-name="Group 193" transform="translate(0 4.975)">
            <path id="Path_239" data-name="Path 239" d="M283.417,349.786H267.87a1.485,1.485,0,1,1,0-2.97h15.547a1.485,1.485,0,0,1,0,2.97Z" transform="translate(-266.385 -346.816)" fill="#9a9a9a"/>
          </g>
        </g>
      </g>
      <g id="Group_198" data-name="Group 198" transform="translate(89.894 3.524)">
        <g id="Group_196" data-name="Group 196">
          <circle id="Ellipse_22" data-name="Ellipse 22" cx="14.407" cy="14.407" r="14.407" fill="#f9bf00"/>
        </g>
        <path id="Path_241" data-name="Path 241" d="M387.321,46.34H384.01a1.511,1.511,0,1,1,0-3.022h5.834a1.485,1.485,0,1,0,0-2.97H387.15v-1.59a1.485,1.485,0,1,0-2.97,0v1.59h-.171a4.481,4.481,0,0,0,0,8.962h3.311a1.511,1.511,0,1,1,0,3.022h-5.834a1.485,1.485,0,0,0,0,2.97h2.694v1.59a1.485,1.485,0,0,0,2.97,0V55.3h.171a4.481,4.481,0,1,0,0-8.962Z" transform="translate(-371.258 -33.418)" fill="#fff"/>
      </g>
      <g id="Group_211" data-name="Group 211" transform="translate(28.708 66.2)">
        <g id="Group_199" data-name="Group 199" transform="translate(13.923 2.28)">
          <path id="Path_242" data-name="Path 242" d="M106.276,362.2v-5.287l-.2-.923H100.05a1.02,1.02,0,0,0-1.02,1.02v5.19Z" transform="translate(-99.03 -355.992)" fill="#f9bf00"/>
          <path id="Path_243" data-name="Path 243" d="M175.511,362.2h7.246v-5.19a1.02,1.02,0,0,0-1.02-1.02h-6.028l-.2.908Z" transform="translate(-160.369 -355.992)" fill="#f9bf00"/>
        </g>
        <path id="Path_244" data-name="Path 244" d="M142.921,352.964v-7.47a1.02,1.02,0,0,0-1.02-1.02h-6.252a1.02,1.02,0,0,0-1.02,1.02v7.47Z" transform="translate(-113.658 -344.474)" fill="#ffd15b"/>
        <path id="Path_245" data-name="Path 245" d="M106.668,386.356H73.27L78.661,403.2a3.916,3.916,0,0,1,4.14,1.964H97.02a3.932,3.932,0,0,1,5.49-1.452l5.129-16.027A1.02,1.02,0,0,0,106.668,386.356Z" transform="translate(-64.447 -378.064)" fill="#ff9130"/>
        <g id="Group_200" data-name="Group 200" transform="translate(0 1.754)">
          <path id="Path_247" data-name="Path 247" d="M134.739,483.334a3.9,3.9,0,0,1,.526-2.97H120.806a3.9,3.9,0,0,1,.526,2.97Z" transform="translate(-102.572 -455.214)" fill="#cdbfba"/>
          <path id="Path_248" data-name="Path 248" d="M43.12,376.687l-7.144-22.322a1.485,1.485,0,0,0-1.414-1.032H30.193a1.485,1.485,0,0,0,0,2.97h3.286l7.009,21.9A3.942,3.942,0,0,1,43.12,376.687Z" transform="translate(-28.708 -353.333)" fill="#cdbfba"/>
        </g>
        <g id="Group_205" data-name="Group 205" transform="translate(10.761 24.875)">
          <g id="Group_201" data-name="Group 201" transform="translate(21.112 0)">
            <circle id="Ellipse_23" data-name="Ellipse 23" cx="4.146" cy="4.146" r="4.146" fill="#9a9a9a"/>
          </g>
          <g id="Group_203" data-name="Group 203" transform="translate(0 0)">
            <circle id="Ellipse_24" data-name="Ellipse 24" cx="4.146" cy="4.146" r="4.146" fill="#9a9a9a"/>
          </g>
        </g>
        <g id="Group_210" data-name="Group 210" transform="translate(15.547 11.989)">
          <g id="Group_206" data-name="Group 206" transform="translate(16.791)">
            <path id="Path_251" data-name="Path 251" d="M193.53,414.221a1.485,1.485,0,0,1-1.485-1.485v-6.219a1.485,1.485,0,0,1,2.97,0v6.219A1.485,1.485,0,0,1,193.53,414.221Z" transform="translate(-192.045 -405.032)" fill="#fff"/>
          </g>
          <g id="Group_207" data-name="Group 207" transform="translate(11.194)">
            <path id="Path_252" data-name="Path 252" d="M165.26,414.221a1.485,1.485,0,0,1-1.485-1.485v-6.219a1.485,1.485,0,0,1,2.97,0v6.219A1.485,1.485,0,0,1,165.26,414.221Z" transform="translate(-163.775 -405.032)" fill="#fff"/>
          </g>
          <g id="Group_208" data-name="Group 208" transform="translate(5.597)">
            <path id="Path_253" data-name="Path 253" d="M136.99,414.221a1.485,1.485,0,0,1-1.485-1.485v-6.219a1.485,1.485,0,0,1,2.97,0v6.219A1.485,1.485,0,0,1,136.99,414.221Z" transform="translate(-135.505 -405.032)" fill="#fff"/>
          </g>
          <g id="Group_209" data-name="Group 209">
            <path id="Path_254" data-name="Path 254" d="M108.721,414.221a1.485,1.485,0,0,1-1.485-1.485v-6.219a1.485,1.485,0,0,1,2.97,0v6.219A1.485,1.485,0,0,1,108.721,414.221Z" transform="translate(-107.236 -405.032)" fill="#fff"/>
          </g>
        </g>
      </g>
      <g id="Group_212" data-name="Group 212" transform="translate(96.286 34.253)">
        <circle id="Ellipse_25" data-name="Ellipse 25" cx="1.485" cy="1.485" r="1.485" fill="#9a9a9a"/>
        <circle id="Ellipse_26" data-name="Ellipse 26" cx="1.485" cy="1.485" r="1.485" transform="translate(0 17.205)" fill="#9a9a9a"/>
        <circle id="Ellipse_27" data-name="Ellipse 27" cx="1.485" cy="1.485" r="1.485" transform="translate(0 34.411)" fill="#9a9a9a"/>
      </g>
    </g>
    <rect id="Rectangle_92" data-name="Rectangle 92" width="100" height="100" transform="translate(463 5990)" fill="none"/>
  </g>
</svg>
