<svg xmlns="http://www.w3.org/2000/svg" xmlns:xlink="http://www.w3.org/1999/xlink" width="87.938" height="81.041" viewBox="0 0 87.938 81.041">
  <defs>
    <clipPath id="clip-path">
      <rect id="Rectangle_8" data-name="Rectangle 8" width="76.945" height="65.468" fill="#333"/>
    </clipPath>
  </defs>
  <g id="ic-point" transform="translate(-2.428 -146.594)">
    <path id="Subtraction_1" data-name="Subtraction 1" d="M14.7,33.678h0a16.913,16.913,0,1,1,14.476-5.118c-.045-4.119-1.575-7.9-3.995-9.859a8.456,8.456,0,1,0-10.8,6.278,16.626,16.626,0,0,0-.425,3.77,16.168,16.168,0,0,0,.744,4.928Z" transform="translate(2.428 146.594)" fill="#f9bf00"/>
    <g id="Group_25" data-name="Group 25" transform="translate(13.421 162.167)">
      <g id="Group_24" data-name="Group 24" transform="translate(0 0)" clip-path="url(#clip-path)">
        <path id="Path_30" data-name="Path 30" d="M67.28,34.688a9.748,9.748,0,0,0-15.289-5.154A9.743,9.743,0,0,0,37.72,26.758a9.745,9.745,0,0,0-13.98-2.99L19.111,7.138A9.762,9.762,0,0,0,7.1.358L7.08.364A9.716,9.716,0,0,0,.362,12.356L14.413,62.9a3.252,3.252,0,0,0,4,2.26,3.214,3.214,0,0,0,2.218-3.992C20.444,60.48,6.776,11.314,6.584,10.625a3.244,3.244,0,0,1,2.24-4l.019-.006A3.293,3.293,0,0,1,12.89,8.87L23.46,46.85a3.214,3.214,0,0,0,3.961,2.273,3.252,3.252,0,0,0,2.261-4L26.243,32.758c-.011-.045-.019-.092-.032-.138a3.251,3.251,0,1,1,6.264-1.743L35.961,43.4a3.251,3.251,0,1,0,6.264-1.743L40.482,35.4a3.251,3.251,0,0,1,6.264-1.743l1.743,6.264a3.251,3.251,0,1,0,6.264-1.743,3.251,3.251,0,1,1,6.264-1.743c.369,1.326,9.169,25.332,9.538,26.655l.156-.043.031.111a3.159,3.159,0,1,0,6.087-1.693l-.031-.111.019-.006c-.369-1.323-9.169-25.33-9.538-26.655" transform="translate(0 0)" fill="#333"/>
      </g>
    </g>
  </g>
</svg>
