<svg xmlns="http://www.w3.org/2000/svg" width="100" height="100" viewBox="0 0 100 100">
  <g id="ic-price" transform="translate(-459 -1258)">
    <g id="Group_30" data-name="Group 30" transform="translate(460 1259)">
      <g id="Group_33" data-name="Group 33" transform="translate(17.125)">
        <path id="Path_35" data-name="Path 35" d="M114,0A24.439,24.439,0,0,0,89.585,24.412c0,.536.019,1.067.053,1.594h2.756q-.058-.79-.059-1.594a21.661,21.661,0,1,1,43.322,0c0,.346-.008.694-.024,1.035a1.375,1.375,0,0,0,1.309,1.438l.066,0a1.375,1.375,0,0,0,1.372-1.31c.018-.385.027-.776.027-1.165A24.439,24.439,0,0,0,114,0Z" transform="translate(-89.585)" fill="#bbb"/>
        <g id="Group_32" data-name="Group 32" transform="translate(35.596 28.981)">
          <path id="Path_40" data-name="Path 40" d="M285.086,174.173a1.375,1.375,0,0,1-.752-2.528,21.855,21.855,0,0,0,1.793-1.3,1.375,1.375,0,0,1,1.728,2.14,24.619,24.619,0,0,1-2.019,1.467,1.37,1.37,0,0,1-.749.223Zm5.37-4.851a1.375,1.375,0,0,1-1.069-2.239,21.828,21.828,0,0,0,1.3-1.793,1.375,1.375,0,0,1,2.3,1.5,24.612,24.612,0,0,1-1.468,2.02A1.373,1.373,0,0,1,290.455,169.322Zm3.609-6.275a1.376,1.376,0,0,1-1.285-1.865,21.54,21.54,0,0,0,.68-2.108,1.375,1.375,0,0,1,2.658.708,24.272,24.272,0,0,1-.767,2.378A1.376,1.376,0,0,1,294.064,163.046Z" transform="translate(-283.709 -158.052)" fill="#bbb"/>
        </g>
      </g>
      <g id="Group_53" data-name="Group 53" transform="translate(26.219 9.094)">
        <g id="Group_43" data-name="Group 43">
          <ellipse id="Ellipse_5" data-name="Ellipse 5" cx="15.317" cy="15.317" rx="15.317" ry="15.317" fill="#bbb"/>
        </g>
        <path id="Path_54" data-name="Path 54" d="M196.914,84.452h-3.963a1.508,1.508,0,0,1-1.507-1.507V82.1a1.508,1.508,0,0,1,1.507-1.507h3.963a1.508,1.508,0,0,1,1.507,1.507,1.375,1.375,0,0,0,2.75,0,4.262,4.262,0,0,0-4.257-4.257h-.606V76.581a1.375,1.375,0,0,0-2.75,0v1.267h-.606a4.262,4.262,0,0,0-4.257,4.257v.841a4.262,4.262,0,0,0,4.257,4.257h3.963a1.508,1.508,0,0,1,1.507,1.507v.841a1.508,1.508,0,0,1-1.507,1.507h-3.963a1.508,1.508,0,0,1-1.507-1.507,1.375,1.375,0,0,0-2.75,0,4.262,4.262,0,0,0,4.257,4.257h.606v1.267a1.375,1.375,0,0,0,2.75,0V93.807h.606a4.262,4.262,0,0,0,4.257-4.257V88.71A4.262,4.262,0,0,0,196.914,84.452Z" transform="translate(-179.615 -70.51)" fill="#fff"/>
      </g>
      <g id="Group_54" data-name="Group 54" transform="translate(4.338 25.822)">
        <path id="Path_36" data-name="Path 36" d="M42.545,181.059a1.654,1.654,0,0,1,1.218-1.218l.385-.385v-.029a1.652,1.652,0,0,1-1.65-1.65v-6.029a1.652,1.652,0,0,1,1.65-1.65v-.367a1.652,1.652,0,0,1-1.65-1.65v-6.029a1.652,1.652,0,0,1,1.65-1.65h3.333v-.183a1.834,1.834,0,0,0,1.834-1.834v-5.967a15.151,15.151,0,0,1-7.333-11.592h-20.3a1.834,1.834,0,0,0-1.834,1.834v6.029a1.834,1.834,0,0,0,1.834,1.834,1.834,1.834,0,0,0-1.834,1.834v6.029a1.834,1.834,0,0,0,1.834,1.834,1.834,1.834,0,0,0-1.834,1.834v6.029a1.834,1.834,0,0,0,1.834,1.834,1.834,1.834,0,0,0-1.834,1.834v6.029a1.834,1.834,0,0,0,1.834,1.834,1.834,1.834,0,0,0-1.834,1.834v6.029a1.834,1.834,0,0,0,1.834,1.834H34.3Z" transform="translate(-19.849 -140.825)" fill="#ff9130"/>
        <path id="Path_37" data-name="Path 37" d="M138.843,398.783l-1.181,1.181h2.7v-.183A1.652,1.652,0,0,1,138.843,398.783Z" transform="translate(-116.059 -351.483)" fill="#f9bf00"/>
      </g>
      <g id="Group_55" data-name="Group 55" transform="translate(26.803 45.215)">
        <path id="Path_38" data-name="Path 38" d="M149.6,365.486l-6.243,6.243a1.832,1.832,0,0,0,1.653,1.044h25.8a1.834,1.834,0,0,0,1.834-1.834v-5.453Z" transform="translate(-143.172 -343.684)" fill="#f9bf00"/>
        <path id="Path_39" data-name="Path 39" d="M144.053,265.97l1.9-1.9a2.513,2.513,0,0,1,1.789-.741h24.09v-5.213A1.834,1.834,0,0,0,170,256.281a1.834,1.834,0,0,0,1.834-1.834v-6.029A1.834,1.834,0,0,0,170,246.585H144.2a1.834,1.834,0,0,0-1.834,1.834v6.029a1.834,1.834,0,0,0,1.834,1.834,1.834,1.834,0,0,0-1.834,1.834v6.029A1.833,1.833,0,0,0,144.053,265.97Z" transform="translate(-142.367 -246.585)" fill="#f9bf00"/>
      </g>
      <g id="Group_56" data-name="Group 56" transform="translate(4.338 35.519)">
        <path id="Path_42" data-name="Path 42" d="M44.148,308.978a1.652,1.652,0,0,1-1.65-1.65V301.3a1.652,1.652,0,0,1,1.65-1.65v-.183H21.683a1.834,1.834,0,0,0-1.834,1.834v6.029a1.834,1.834,0,0,0,1.834,1.834H44.148v-.183Z" transform="translate(-19.849 -280.072)" fill="#f9bf00"/>
        <path id="Path_45" data-name="Path 45" d="M46.782,193.7h-25.1a1.834,1.834,0,0,0-1.834,1.834v6.029a1.834,1.834,0,0,0,1.834,1.834h25.8a1.834,1.834,0,0,0,1.834-1.834V195.6A15.208,15.208,0,0,1,46.782,193.7Z" transform="translate(-19.849 -193.705)" fill="#f9bf00"/>
      </g>
      <g id="Group_57" data-name="Group 57" transform="translate(26.803 54.911)">
        <g id="Group_42" data-name="Group 42" transform="translate(0 0)">
          <path id="Path_50" data-name="Path 50" d="M144.053,309.154l1.9-1.9a2.513,2.513,0,0,1,1.789-.741h24.09V301.3A1.834,1.834,0,0,0,170,299.465H144.2a1.834,1.834,0,0,0-1.834,1.834v6.029a1.833,1.833,0,0,0,1.686,1.826Z" transform="translate(-142.367 -299.465)" fill="#ffd15b"/>
        </g>
      </g>
      <g id="Group_52" data-name="Group 52" transform="translate(0 28.138)">
        <g id="Group_49" data-name="Group 49" transform="translate(2 2)">
          <path id="Path_55" data-name="Path 55" d="M139.322,177.91H121.708a.684.684,0,0,0-.684.684v4.557a.684.684,0,0,0,.684.684h8.184l-25.908,25.908H77.344a2.943,2.943,0,0,0-2.095.868L53.726,232.133a5.55,5.55,0,0,1,4.313,4.065l20.532-20.532h26.641a2.943,2.943,0,0,0,2.095-.868l26.776-26.775v8.116a.684.684,0,0,0,.684.684h4.557a.684.684,0,0,0,.684-.684V178.594A.684.684,0,0,0,139.322,177.91Z" transform="translate(-46.943 -177.91)" fill="#1f89cd"/>
          <g id="Group_47" data-name="Group 47" transform="translate(0 53.922)">
            <ellipse id="Ellipse_6" data-name="Ellipse 6" cx="5.734" cy="5.734" rx="5.734" ry="5.734" fill="#1f89cd"/>
          </g>
          <g id="Group_48" data-name="Group 48" transform="translate(0 53.922)">
            <path id="Path_56" data-name="Path 56" d="M24.654,452.958a5.734,5.734,0,0,1,3.331-5.206,5.734,5.734,0,1,0,0,10.412A5.733,5.733,0,0,1,24.654,452.958Z" transform="translate(-19.849 -447.224)" fill="#1f89cd"/>
          </g>
        </g>
        <g id="Group_51" data-name="Group 51" transform="translate(23.563 26.405)">
          <path id="Path_57" data-name="Path 57" d="M135.044,464.856h8.221v-7.7a.6.6,0,0,0-.6-.6h-7.02a.6.6,0,0,0-.6.6Z" transform="translate(-133.543 -425.172)" fill="#ff9130"/>
          <path id="Path_59" data-name="Path 59" d="M220.4,446.162V433.786a.6.6,0,0,0-.6-.6h-7.02a.6.6,0,0,0-.6.6v12.377Z" transform="translate(-195.235 -406.478)" fill="#ff9130"/>
          <path id="Path_61" data-name="Path 61" d="M297.539,446.162V433.786a.6.6,0,0,0-.6-.6h-7.02a.6.6,0,0,0-.6.6v12.377Z" transform="translate(-256.928 -406.478)" fill="#ff9130"/>
          <path id="Path_63" data-name="Path 63" d="M374.675,386.675V359.406a.6.6,0,0,0-.6-.6h-7.02a.6.6,0,0,0-.6.6v27.269Z" transform="translate(-318.62 -346.991)" fill="#ff9130"/>
          <path id="Path_65" data-name="Path 65" d="M451.811,339.483V300.4a.6.6,0,0,0-.6-.6h-7.02a.6.6,0,0,0-.6.6v39.083Z" transform="translate(-380.311 -299.799)" fill="#ff9130"/>
          <g id="Group_50" data-name="Group 50" transform="translate(0 39.484)">
            <path id="Path_67" data-name="Path 67" d="M199.045,500h-70a1.5,1.5,0,1,1,0-3h70a1.5,1.5,0,0,1,0,3Z" transform="translate(-127.545 -497)" fill="#9a9a9a"/>
          </g>
        </g>
      </g>
    </g>
    <rect id="Rectangle_83" data-name="Rectangle 83" width="100" height="100" transform="translate(459 1258)" fill="none"/>
  </g>
</svg>
