<svg xmlns="http://www.w3.org/2000/svg" width="32" height="32" viewBox="0 0 32 32">
  <g id="ic-price-tag" transform="translate(0 -0.002)">
    <g id="Group_239" data-name="Group 239" transform="translate(0 0.002)">
      <path id="Path_523" data-name="Path 523" d="M29.334,0H18.25a3.713,3.713,0,0,0-2.276.942L.778,16.14a2.673,2.673,0,0,0,0,3.771L12.093,31.225a2.673,2.673,0,0,0,3.77,0l15.2-15.193A3.715,3.715,0,0,0,32,13.755V2.669A2.675,2.675,0,0,0,29.334,0ZM24,10.669A2.667,2.667,0,1,1,26.667,8,2.668,2.668,0,0,1,24,10.669Z" transform="translate(0 -0.002)" fill="#fff"/>
    </g>
  </g>
</svg>
