<svg id="ic-right-arrow" xmlns="http://www.w3.org/2000/svg" width="29.753" height="24.752" viewBox="0 0 29.753 24.752">
  <g id="Group_219" data-name="Group 219">
    <path id="Path_302" data-name="Path 302" d="M29.278,52.566,18.533,41.821a1.633,1.633,0,0,0-2.3,0l-.976.976a1.616,1.616,0,0,0-.475,1.151,1.648,1.648,0,0,0,.475,1.165L21.522,51.4H1.607A1.589,1.589,0,0,0,0,53v1.38a1.65,1.65,0,0,0,1.607,1.672H21.594l-6.339,6.317a1.613,1.613,0,0,0,0,2.287l.976.973a1.633,1.633,0,0,0,2.3,0L29.278,54.878a1.642,1.642,0,0,0,0-2.311Z" transform="translate(0 -41.346)" fill="#fff"/>
  </g>
</svg>
