<svg xmlns="http://www.w3.org/2000/svg" width="100" height="100" viewBox="0 0 100 100">
  <g id="ic-sale" transform="translate(-1370 -5542)">
    <g id="discount" transform="translate(1373.837 5549)">
      <path id="Path_196" data-name="Path 196" d="M375.366,168.372a1.283,1.283,0,0,1-1.283-1.283c0-6.334-2.067-10.8-6.142-13.278a13.072,13.072,0,0,0-6.093-1.867,1.283,1.283,0,0,1,0-2.567,15.642,15.642,0,0,1,7.426,2.24c3.365,2.044,7.376,6.388,7.376,15.471A1.283,1.283,0,0,1,375.366,168.372Z" transform="translate(-297.198 -124.564)" fill="#cbcbcb"/>
      <path id="Path_197" data-name="Path 197" d="M413.318,253.569l-7.623-4.8a1.711,1.711,0,0,0-1.824,0l-7.623,4.8a1.711,1.711,0,0,0-.8,1.448v23.274A1.711,1.711,0,0,0,397.159,280h15.247a1.711,1.711,0,0,0,1.711-1.711V255.017A1.712,1.712,0,0,0,413.318,253.569Z" transform="translate(-326.288 -207.226)" fill="#ff9130"/>
      <circle id="Ellipse_17" data-name="Ellipse 17" cx="2.074" cy="2.074" r="2.074" transform="translate(72.79 51.168)" fill="#fff"/>
      <circle id="Ellipse_18" data-name="Ellipse 18" cx="2.074" cy="2.074" r="2.074" transform="translate(80.05 63.268)" fill="#fff"/>
      <path id="Path_198" data-name="Path 198" d="M413.14,318.442a1.284,1.284,0,0,1-1.1-1.944L422,299.9a1.284,1.284,0,1,1,2.2,1.321l-9.956,16.593A1.283,1.283,0,0,1,413.14,318.442Z" transform="translate(-339.971 -249.567)" fill="#fff"/>
      <path id="Path_199" data-name="Path 199" d="M59.41,10.372,57.4,4.63A6.915,6.915,0,0,0,50.874,0H42.3a6.915,6.915,0,0,0-6.915,6.915V17.286H59.41V10.372Z" transform="translate(-26.033)" fill="#ffd15b"/>
      <path id="Path_201" data-name="Path 201" d="M211.252,10.372l2.009-5.741A6.915,6.915,0,0,1,219.788,0h8.6A6.915,6.915,0,0,1,235.3,6.915V17.286H211.252Z" transform="translate(-172.689)" fill="#ffd15b"/>
      <path id="Path_203" data-name="Path 203" d="M77.954,215.218H23.515a1.661,1.661,0,0,1-1.661-1.661V156.1H79.615v57.458A1.661,1.661,0,0,1,77.954,215.218Z" transform="translate(-14.752 -130.168)" fill="#83c6f2"/>
      <g id="Group_173" data-name="Group 173" transform="translate(7.102 25.93)">
        <path id="Path_205" data-name="Path 205" d="M79.615,156.1v3.686L25.477,215.217H23.565a1.711,1.711,0,0,1-1.711-1.711v-2L75.967,156.1h3.647Z" transform="translate(-21.854 -156.097)" fill="#fff"/>
        <path id="Path_206" data-name="Path 206" d="M63.234,156.1l-41.38,42.3v-7.423L55.915,156.1Z" transform="translate(-21.854 -156.098)" fill="#fff"/>
        <path id="Path_207" data-name="Path 207" d="M43.161,156.1,21.854,177.863v-7.421L35.863,156.1Z" transform="translate(-21.854 -156.098)" fill="#fff"/>
        <path id="Path_208" data-name="Path 208" d="M120.32,299.661l41.38-42.3v7.423l-34.061,34.875Z" transform="translate(-103.964 -240.541)" fill="#fff"/>
        <path id="Path_209" data-name="Path 209" d="M241.16,402.737l21.307-21.765v7.421l-14.009,14.344Z" transform="translate(-204.731 -343.618)" fill="#fff"/>
      </g>
      <path id="Path_215" data-name="Path 215" d="M174.829,156.1h6.915v59.12h-6.915Z" transform="translate(-142.316 -130.168)" fill="#ffd15b"/>
      <path id="Path_217" data-name="Path 217" d="M66.141,112.708H5.824a1.661,1.661,0,0,1-1.661-1.661v-5.321a1.661,1.661,0,0,1,1.661-1.661H66.141a1.661,1.661,0,0,1,1.661,1.661v5.321A1.661,1.661,0,0,1,66.141,112.708Z" transform="translate(0 -86.779)" fill="#83c6f2"/>
      <path id="Path_219" data-name="Path 219" d="M164.423,104.065h10.372v8.643H164.423Z" transform="translate(-133.639 -86.779)" fill="#ffd15b"/>
      <path id="Path_220" data-name="Path 220" d="M180.033,62.439h5.186v6.915h-5.186Z" transform="translate(-146.656 -52.067)" fill="#ff9130"/>
      <path id="Path_221" data-name="Path 221" d="M212.932,42.483a1.279,1.279,0,0,1-.6-.15c-2.029-1.074-5.853-.3-7.155.1a1.284,1.284,0,0,1-1.485-1.863,15.217,15.217,0,0,1,8.354-6.445,1.283,1.283,0,0,1,.737,2.459,12.2,12.2,0,0,0-4.707,2.705,10.051,10.051,0,0,1,5.458.78,1.284,1.284,0,0,1-.6,2.418Z" transform="translate(-166.246 -28.407)" fill="#ff9130"/>
      <path id="Path_222" data-name="Path 222" d="M124.679,42.484a1.284,1.284,0,0,1-.6-2.418,10.043,10.043,0,0,1,5.445-.782,12.193,12.193,0,0,0-4.694-2.7,1.283,1.283,0,0,1,.737-2.459,15.218,15.218,0,0,1,8.354,6.445,1.284,1.284,0,0,1-1.485,1.863c-1.3-.389-5.136-1.164-7.155-.1A1.277,1.277,0,0,1,124.679,42.484Z" transform="translate(-99.425 -28.409)" fill="#ff9130"/>
    </g>
    <rect id="Rectangle_91" data-name="Rectangle 91" width="100" height="100" transform="translate(1370 5542)" fill="none"/>
  </g>
</svg>
