<svg xmlns="http://www.w3.org/2000/svg" width="100" height="100" viewBox="0 0 100 100">
  <g id="ic-set" transform="translate(-905 -5575)">
    <g id="Group_1137" data-name="Group 1137" transform="translate(-8 -7.644)">
      <g id="Group_213" data-name="Group 213" transform="translate(3.029 169.56)">
        <g id="menu" transform="translate(926.685 5417.084)">
          <path id="Path_110" data-name="Path 110" d="M150.609,67.4h6.311V60.68l-1.722-.193H101.759l-1.728.193v66.85c7.1,1.526,12.44-5.544,12.44,2.006a15.668,15.668,0,0,1-3.058,9.314h44.429a3.078,3.078,0,0,0,3.078-3.078V116.954h-6.311a2.888,2.888,0,0,1-2.885-2.885V70.289A2.889,2.889,0,0,1,150.609,67.4Z" transform="translate(-100.031 -50.777)" fill="#fff"/>
          <g id="Group_92" data-name="Group 92" transform="translate(0 0)">
            <circle id="Ellipse_7" data-name="Ellipse 7" cx="1.444" cy="1.444" r="1.444" transform="translate(27 15.157)" fill="#1f89cd"/>
            <path id="Path_111" data-name="Path 111" d="M311.238,332.035v-1.612H303.68a1.147,1.147,0,0,0-1.147,1.147v9.257a1.147,1.147,0,0,0,1.147,1.147h9.257a1.147,1.147,0,0,0,1.147-1.147v-5.909A2.887,2.887,0,0,1,311.238,332.035Z" transform="translate(-263.546 -268.742)" fill="#f9bf00"/>
            <g id="Group_66" data-name="Group 66" transform="translate(0 0)">
              <path id="Path_113" data-name="Path 113" d="M153.842,10.051H103.109a3.078,3.078,0,0,0-3.078,3.078v6.825h56.888V13.129A3.078,3.078,0,0,0,153.842,10.051Z" transform="translate(-100.031 -10.051)" fill="#83c6f2"/>
            </g>
            <path id="Path_115" data-name="Path 115" d="M209.71,113.633a11.982,11.982,0,0,0-23.833,0Z" transform="translate(-169.349 -85.026)" fill="#1f89cd"/>
            <g id="Group_78" data-name="Group 78" transform="translate(5.517 37.472)">
              <g id="Group_71" data-name="Group 71" transform="translate(0 0)">
                <g id="Group_68" data-name="Group 68" transform="translate(0.832)">
                  <path id="Path_117" data-name="Path 117" d="M143.416,216.235h-9.257a1.147,1.147,0,0,1-1.147-1.147V205.83a1.147,1.147,0,0,1,1.147-1.147h9.257a1.147,1.147,0,0,1,1.147,1.147v9.257A1.147,1.147,0,0,1,143.416,216.235Z" transform="translate(-133.012 -204.683)" fill="#ff9130"/>
                </g>
                <g id="Group_70" data-name="Group 70" transform="translate(0 14.97)">
                  <path id="Path_119" data-name="Path 119" d="M140.461,285.326H130.133a1.444,1.444,0,0,1,0-2.888h10.328a1.444,1.444,0,0,1,0,2.888Z" transform="translate(-128.689 -282.438)" fill="#9a9a9a"/>
                </g>
              </g>
              <g id="Group_75" data-name="Group 75" transform="translate(16.319 0)">
                <g id="Group_72" data-name="Group 72" transform="translate(0.832)">
                  <path id="Path_120" data-name="Path 120" d="M228.176,216.235h-9.257a1.147,1.147,0,0,1-1.147-1.147V205.83a1.147,1.147,0,0,1,1.147-1.147h9.257a1.147,1.147,0,0,1,1.147,1.147v9.257A1.147,1.147,0,0,1,228.176,216.235Z" transform="translate(-217.772 -204.683)" fill="#83c6f2"/>
                </g>
                <g id="Group_74" data-name="Group 74" transform="translate(0 14.97)">
                  <path id="Path_122" data-name="Path 122" d="M225.222,285.326H214.894a1.444,1.444,0,1,1,0-2.888h10.328a1.444,1.444,0,1,1,0,2.888Z" transform="translate(-213.45 -282.438)" fill="#9a9a9a"/>
                </g>
              </g>
              <g id="Group_77" data-name="Group 77" transform="translate(32.637)">
                <path id="Path_123" data-name="Path 123" d="M311.841,204.683h-7.414a1.147,1.147,0,0,0-1.147,1.147v9.257a1.147,1.147,0,0,0,1.147,1.147h7.414Z" transform="translate(-302.304 -204.683)" fill="#ff9130"/>
                <path id="Path_125" data-name="Path 125" d="M307.748,282.453a1.441,1.441,0,0,0-.193-.014h-7.9a1.444,1.444,0,1,0,0,2.888h7.9a1.472,1.472,0,0,0,.193-.014Z" transform="translate(-298.21 -267.469)" fill="#9a9a9a"/>
              </g>
            </g>
            <g id="Group_91" data-name="Group 91" transform="translate(6.35 61.68)">
              <g id="Group_83" data-name="Group 83">
                <path id="Path_129" data-name="Path 129" d="M143.416,330.423h-9.257a1.147,1.147,0,0,0-1.147,1.147v11.8c2.276,1.774,4.055-4.137,5.087-1.391h5.317a1.147,1.147,0,0,0,1.147-1.147V331.57A1.148,1.148,0,0,0,143.416,330.423Z" transform="translate(-133.012 -330.423)" fill="#83c6f2"/>
                <path id="Path_131" data-name="Path 131" d="M168.908,408.178H164.25a1.446,1.446,0,0,0-.332.04,15.8,15.8,0,0,1,.14,2.068c0,.256-.007.51-.019.763a1.448,1.448,0,0,0,.212.017h4.657a1.444,1.444,0,1,0,0-2.888Z" transform="translate(-157.968 -393.208)" fill="#9a9a9a"/>
              </g>
              <g id="Group_88" data-name="Group 88" transform="translate(15.487)">
                <g id="Group_84" data-name="Group 84" transform="translate(0.832)">
                  <path id="Path_132" data-name="Path 132" d="M228.176,341.975h-9.257a1.147,1.147,0,0,1-1.147-1.147V331.57a1.147,1.147,0,0,1,1.147-1.147h9.257a1.147,1.147,0,0,1,1.147,1.147v9.257A1.148,1.148,0,0,1,228.176,341.975Z" transform="translate(-217.772 -330.423)" fill="#ff9130"/>
                </g>
                <g id="Group_87" data-name="Group 87" transform="translate(0 14.97)">
                  <path id="Path_135" data-name="Path 135" d="M225.222,411.066H214.894a1.444,1.444,0,1,1,0-2.888h10.328a1.444,1.444,0,1,1,0,2.888Z" transform="translate(-213.45 -408.178)" fill="#9a9a9a"/>
                </g>
              </g>
              <g id="Group_90" data-name="Group 90" transform="translate(31.805 14.97)">
                <g id="Group_89" data-name="Group 89">
                  <path id="Path_136" data-name="Path 136" d="M309.982,411.066H299.654a1.444,1.444,0,1,1,0-2.888h10.328a1.444,1.444,0,1,1,0,2.888Z" transform="translate(-298.21 -408.178)" fill="#9a9a9a"/>
                </g>
              </g>
            </g>
          </g>
          <g id="Group_111" data-name="Group 111" transform="translate(47.5 16.435)">
            <g id="Group_93" data-name="Group 93" transform="translate(0 0)">
              <path id="Path_137" data-name="Path 137" d="M375.487,145.349h-25.66a3.078,3.078,0,0,1-3.078-3.078V98.491a3.078,3.078,0,0,1,3.078-3.078h25.66a3.078,3.078,0,0,1,3.078,3.078v43.78A3.078,3.078,0,0,1,375.487,145.349Z" transform="translate(-346.749 -95.413)" fill="#bbb"/>
            </g>
            <g id="Group_95" data-name="Group 95" transform="translate(5.267 5.478)">
              <path id="Path_139" data-name="Path 139" d="M374.108,143.067V124.892a1.026,1.026,0,0,1,1.026-1.026h19.229a1.026,1.026,0,0,1,1.026,1.026v18.175a1.026,1.026,0,0,1-1.026,1.026H375.134A1.026,1.026,0,0,1,374.108,143.067Z" transform="translate(-374.108 -123.866)" fill="#fff"/>
            </g>
            <g id="Group_97" data-name="Group 97" transform="translate(10.881 11.086)">
              <path id="Path_141" data-name="Path 141" d="M413.3,158.394c.009-.123.015-.248.015-.373a5.027,5.027,0,1,0-10.054,0c0,.126.006.25.015.373Z" transform="translate(-403.263 -152.994)" fill="#ffcebf"/>
            </g>
            <g id="Group_98" data-name="Group 98" transform="translate(9.042 16.486)">
              <path id="Path_142" data-name="Path 142" d="M397.093,190.263h6.97l3.2-8.384a.616.616,0,0,0-.575-.835H394.329a.615.615,0,0,0-.572.843Z" transform="translate(-393.713 -181.044)" fill="#1f89cd"/>
            </g>
            <g id="Group_110" data-name="Group 110" transform="translate(5.614 29.95)">
              <g id="Group_103" data-name="Group 103">
                <g id="Group_101" data-name="Group 101" transform="translate(6.953)">
                  <g id="Group_100" data-name="Group 100">
                    <path id="Path_144" data-name="Path 144" d="M424.215,253.864H413.47a1.444,1.444,0,1,1,0-2.888h10.745a1.444,1.444,0,1,1,0,2.888Z" transform="translate(-412.026 -250.976)" fill="#fff"/>
                  </g>
                </g>
                <g id="Group_102" data-name="Group 102">
                  <path id="Path_145" data-name="Path 145" d="M379.882,253.864h-2.528a1.444,1.444,0,1,1,0-2.888h2.528a1.444,1.444,0,1,1,0,2.888Z" transform="translate(-375.91 -250.976)" fill="#fff"/>
                </g>
              </g>
              <g id="Group_107" data-name="Group 107" transform="translate(0 5.583)">
                <g id="Group_106" data-name="Group 106">
                  <g id="Group_104" data-name="Group 104" transform="translate(6.953)">
                    <path id="Path_146" data-name="Path 146" d="M424.215,282.865H413.47a1.444,1.444,0,1,1,0-2.888h10.745a1.444,1.444,0,1,1,0,2.888Z" transform="translate(-412.026 -279.977)" fill="#fff"/>
                  </g>
                  <g id="Group_105" data-name="Group 105">
                    <path id="Path_147" data-name="Path 147" d="M379.882,282.865h-2.528a1.444,1.444,0,1,1,0-2.888h2.528a1.444,1.444,0,1,1,0,2.888Z" transform="translate(-375.91 -279.977)" fill="#fff"/>
                  </g>
                </g>
              </g>
              <g id="Group_109" data-name="Group 109" transform="translate(0 11.167)">
                <g id="Group_108" data-name="Group 108">
                  <path id="Path_148" data-name="Path 148" d="M395.053,311.866h-17.7a1.444,1.444,0,1,1,0-2.888h17.7a1.444,1.444,0,0,1,0,2.888Z" transform="translate(-375.91 -308.978)" fill="#fff"/>
                </g>
              </g>
            </g>
          </g>
          <g id="Group_116" data-name="Group 116" transform="translate(14.309 28.414)">
            <path id="Path_151" data-name="Path 151" d="M201.18,160.525H175.8a1.444,1.444,0,0,1,0-2.888H201.18a1.444,1.444,0,1,1,0,2.888Z" transform="translate(-174.354 -157.637)" fill="#1d7cb8"/>
          </g>
        </g>
        <g id="XMLID_228_" transform="translate(912.971 5478.863)">
          <g id="Group_172" data-name="Group 172" transform="translate(0 0)">
            <path id="Path_195" data-name="Path 195" d="M264.458,320.335a2.739,2.739,0,0,1,5.478,0v15.333a1.074,1.074,0,0,1-1.074,1.074H245.829a1.075,1.075,0,0,1-.91-.5l-1.468-2.336a6.122,6.122,0,0,1-.942-3.263V323.7a4.894,4.894,0,0,1,3.548-4.707l1.905-.546v-8.707a2.816,2.816,0,0,1,2.746-2.841,2.771,2.771,0,0,1,2.8,2.771v7.739a2.739,2.739,0,0,1,5.478,0v1.472a2.738,2.738,0,1,1,5.476,0Z" transform="translate(-242.51 -306.9)" fill="#ffd15b"/>
          </g>
        </g>
      </g>
    </g>
    <rect id="Rectangle_90" data-name="Rectangle 90" width="100" height="100" transform="translate(905 5575)" fill="none"/>
  </g>
</svg>
