<svg xmlns="http://www.w3.org/2000/svg" width="300" height="300" viewBox="0 0 300 300">
  <g id="ic-shop" transform="translate(-1320 -1224)">
    <g id="shop" transform="translate(1338 1226.95)" opacity="0.7">
      <g id="Group_305" data-name="Group 305" transform="translate(0 31.05)">
        <g id="Path_584" data-name="Path 584" transform="translate(-113.805 -137.748)" fill="#f7f7f7">
          <path d="M 302.0772705078125 326.6027221679688 L 266.0687561035156 326.6027221679688 C 256.4915466308594 326.6027221679688 248.6999359130859 318.8111877441406 248.6999359130859 309.2341003417969 L 248.6999359130859 281.6188659667969 C 248.6999359130859 272.0415649414062 256.4915466308594 264.2498779296875 266.0687561035156 264.2498779296875 L 302.0772705078125 264.2498779296875 C 311.6544494628906 264.2498779296875 319.4460754394531 272.0415649414062 319.4460754394531 281.6188659667969 L 319.4460754394531 309.2341003417969 C 319.4460754394531 318.8111877441406 311.6544494628906 326.6027221679688 302.0772705078125 326.6027221679688 Z M 266.0687561035156 276.245361328125 C 263.1058959960938 276.245361328125 260.6954345703125 278.6559143066406 260.6954345703125 281.6188659667969 L 260.6954345703125 309.2341003417969 C 260.6954345703125 312.1970520019531 263.1058959960938 314.6076049804688 266.0687561035156 314.6076049804688 L 302.0772705078125 314.6076049804688 C 305.0400390625 314.6076049804688 307.4504089355469 312.1970520019531 307.4504089355469 309.2341003417969 L 307.4504089355469 281.6188659667969 C 307.4504089355469 278.6559143066406 305.0400390625 276.245361328125 302.0772705078125 276.245361328125 L 266.0687561035156 276.245361328125 Z" stroke="none"/>
          <path d="M 266.0687561035156 264.7498779296875 C 256.7672729492188 264.7498779296875 249.199951171875 272.3172912597656 249.199951171875 281.6188659667969 L 249.199951171875 309.2341003417969 C 249.199951171875 318.5354919433594 256.7672729492188 326.1027221679688 266.0687561035156 326.1027221679688 L 302.0772705078125 326.1027221679688 C 311.3787536621094 326.1027221679688 318.9460754394531 318.5354919433594 318.9460754394531 309.2341003417969 L 318.9460754394531 281.6188659667969 C 318.9460754394531 272.3172912597656 311.3787536621094 264.7498779296875 302.0772705078125 264.7498779296875 L 266.0687561035156 264.7498779296875 M 302.0772705078125 315.1076049804688 L 266.0687561035156 315.1076049804688 C 262.8302001953125 315.1076049804688 260.1954345703125 312.4727478027344 260.1954345703125 309.2341003417969 L 260.1954345703125 281.6188659667969 C 260.1954345703125 278.3802185058594 262.8302001953125 275.745361328125 266.0687561035156 275.745361328125 L 302.0772705078125 275.745361328125 C 305.3157348632812 275.745361328125 307.9504089355469 278.3802185058594 307.9504089355469 281.6188659667969 L 307.9504089355469 309.2341003417969 C 307.9504089355469 312.4727478027344 305.3157348632812 315.1076049804688 302.0772705078125 315.1076049804688 M 266.0687561035156 263.7498779296875 L 302.0772705078125 263.7498779296875 C 311.931884765625 263.7498779296875 319.9460754394531 271.763916015625 319.9460754394531 281.6188659667969 L 319.9460754394531 309.2341003417969 C 319.9460754394531 319.0890808105469 311.931884765625 327.1027221679688 302.0772705078125 327.1027221679688 L 266.0687561035156 327.1027221679688 C 256.2137451171875 327.1027221679688 248.199951171875 319.0890808105469 248.199951171875 309.2341003417969 L 248.199951171875 281.6188659667969 C 248.199951171875 271.763916015625 256.2137451171875 263.7498779296875 266.0687561035156 263.7498779296875 Z M 302.0772705078125 314.1076049804688 C 304.7303466796875 314.1076049804688 306.9504089355469 311.9417724609375 306.9504089355469 309.2341003417969 L 306.9504089355469 281.6188659667969 C 306.9504089355469 278.9656066894531 304.7845458984375 276.745361328125 302.0772705078125 276.745361328125 L 266.0687561035156 276.745361328125 C 263.4154663085938 276.745361328125 261.1954345703125 278.9114074707031 261.1954345703125 281.6188659667969 L 261.1954345703125 309.2341003417969 C 261.1954345703125 311.8873901367188 263.3612976074219 314.1076049804688 266.0687561035156 314.1076049804688 L 302.0772705078125 314.1076049804688 Z" stroke="none" fill="#eee"/>
        </g>
        <g id="Path_585" data-name="Path 585" transform="translate(0 -31.05)" fill="#f7f7f7">
          <path d="M 235.7059631347656 261.9241943359375 L 115.8224334716797 261.9241943359375 L 115.6600036621094 261.9241943359375 L 65.30239868164062 261.9241943359375 L 65.13996887207031 261.9241943359375 L 29.23990058898926 261.9241943359375 C 27.64503288269043 261.9241943359375 26.14083290100098 261.29833984375 25.0044002532959 260.161865234375 C 23.86800003051758 259.0254516601562 23.24213409423828 257.521240234375 23.24213409423828 255.9263763427734 L 23.24213409423828 141.6200714111328 L 23.24213409423828 141.2942047119141 L 22.94400024414062 141.1626434326172 C 16.35930061340332 138.2568359375 10.76690006256104 133.5584106445312 6.771433353424072 127.575309753418 C 2.668633222579956 121.4314727783203 0.5 114.2672424316406 0.5 106.8571090698242 C 0.5 105.8580093383789 0.7703333497047424 104.8648376464844 1.303433299064636 103.9052429199219 L 40.66669845581055 34.59997177124023 L 40.66813278198242 34.59743881225586 L 40.6695671081543 34.59487152099609 C 41.70746612548828 32.71673965454102 43.69760131835938 31.55000686645508 45.86330032348633 31.55000686645508 L 219.0825653076172 31.55000686645508 C 220.1298065185547 31.55000686645508 221.1700286865234 31.83727264404297 222.0908050537109 32.38080596923828 C 223.0045928955078 32.92020797729492 223.7613067626953 33.68750762939453 224.2790374755859 34.59983825683594 L 263.6990051269531 103.9096069335938 L 263.7029113769531 103.9164428710938 L 263.7070007324219 103.9231414794922 C 264.2331848144531 104.7841415405273 264.5 105.7712707519531 264.5 106.8571090698242 C 264.5 114.2931060791016 262.3197326660156 121.4829711914062 258.1949462890625 127.6494064331055 C 254.1780395507812 133.6545104980469 248.5600738525391 138.3646392822266 241.9483642578125 141.2705993652344 L 241.5621032714844 141.4403686523438 L 241.6645355224609 141.8497009277344 C 241.7037658691406 142.0065765380859 241.7037658691406 142.1851348876953 241.7037658691406 142.4323120117188 L 241.7037658691406 255.9263763427734 C 241.7037658691406 257.521240234375 241.0778961181641 259.0254516601562 239.9414672851562 260.161865234375 C 238.8050384521484 261.29833984375 237.3008270263672 261.9241943359375 235.7059631347656 261.9241943359375 Z M 35.23763275146484 144.2778015136719 L 35.23763275146484 144.8148040771484 L 35.23763275146484 249.4827728271484 L 35.23763275146484 249.9827728271484 L 35.73763275146484 249.9827728271484 L 58.75053405761719 249.9827728271484 L 59.25053405761719 249.9827728271484 L 59.25053405761719 249.4827728271484 L 59.25053405761719 179.3070373535156 C 59.25053405761719 167.3114013671875 69.00966644287109 157.55224609375 81.00530242919922 157.55224609375 L 99.90293121337891 157.55224609375 C 111.8985977172852 157.55224609375 121.6577682495117 167.3114013671875 121.6577682495117 179.3070373535156 L 121.6577682495117 249.4287109375 L 121.6577682495117 249.9287109375 L 122.1577682495117 249.9287109375 L 229.2082061767578 249.9287109375 L 229.7082061767578 249.9287109375 L 229.7082061767578 249.4287109375 L 229.7082061767578 144.8148040771484 L 229.7082061767578 144.3148040771484 L 229.2082061767578 144.3148040771484 C 228.8199005126953 144.3148040771484 228.443603515625 144.3287353515625 228.0796661376953 144.3422393798828 C 227.7248382568359 144.3553771972656 227.3579406738281 144.3689727783203 226.9881591796875 144.3689727783203 C 214.5037384033203 144.3689727783203 202.8777618408203 138.1763458251953 195.8887329101562 127.8037033081055 L 195.4740600585938 127.1883087158203 L 195.0594024658203 127.8037033081055 C 191.69189453125 132.8015441894531 187.1276397705078 136.9616088867188 181.8601379394531 139.8342132568359 C 179.1786346435547 141.2965087890625 176.3233032226562 142.4242401123047 173.3734283447266 143.1859741210938 C 170.3336639404297 143.9709777832031 167.1847381591797 144.3689727783203 164.0140991210938 144.3689727783203 C 160.8560638427734 144.3689727783203 157.7148284912109 143.9709777832031 154.6777038574219 143.1860046386719 C 151.728759765625 142.4238433837891 148.8724670410156 141.2961120605469 146.1881408691406 139.8340759277344 C 140.9036407470703 136.9558410644531 136.3324737548828 132.7958068847656 132.9687957763672 127.8037033081055 L 132.5557708740234 127.1907424926758 L 132.1405029296875 127.8022079467773 C 128.7442016601562 132.8030395507812 124.163330078125 136.9636077880859 118.89306640625 139.8340759277344 C 116.2078018188477 141.2966003417969 113.3504028320312 142.4243469238281 110.4002304077148 143.1859741210938 C 107.3596343994141 143.970947265625 104.2104034423828 144.3689727783203 101.0400314331055 144.3689727783203 C 88.55560302734375 144.3689727783203 76.92966461181641 138.1763458251953 69.94063568115234 127.8037033081055 L 69.52597045898438 127.1883087158203 L 69.11129760742188 127.8037033081055 C 62.12223434448242 138.1763458251953 50.49626541137695 144.3689727783203 38.01186752319336 144.3689727783203 C 37.27523422241211 144.3689727783203 36.51353454589844 144.3689727783203 35.77326583862305 144.3160705566406 L 35.23763275146484 144.2778015136719 Z M 81.05946350097656 169.5477752685547 C 75.67816925048828 169.5477752685547 71.30016326904297 173.9257659912109 71.30016326904297 179.3070373535156 L 71.30016326904297 249.4287109375 L 71.30016326904297 249.9287109375 L 71.80016326904297 249.9287109375 L 109.1622314453125 249.9287109375 L 109.2164001464844 249.9287109375 L 109.7164001464844 249.9287109375 L 109.7164001464844 249.4287109375 L 109.7164001464844 179.3070373535156 C 109.7164001464844 173.9257659912109 105.3384017944336 169.5477752685547 99.95709991455078 169.5477752685547 L 81.05946350097656 169.5477752685547 Z M 201.8093719482422 110.7972030639648 L 201.9125671386719 111.3838424682617 C 204.0522003173828 123.5460739135742 214.5980377197266 132.3734741210938 226.9881591796875 132.3734741210938 C 239.3431396484375 132.3734741210938 249.9114990234375 123.5471420288086 252.117431640625 111.3864364624023 L 252.2243347167969 110.7972030639648 L 251.6254730224609 110.7972030639648 L 202.4049987792969 110.7972030639648 L 201.8093719482422 110.7972030639648 Z M 12.83306694030762 110.7430725097656 L 12.93626689910889 111.329704284668 C 15.07590007781982 123.4920425415039 25.5749340057373 132.3195037841797 37.900634765625 132.3195037841797 C 37.9380989074707 132.3195037841797 37.97656631469727 132.3194427490234 38.01406478881836 132.3192749023438 C 50.43336486816406 132.3192749023438 61.00196838378906 123.4918746948242 63.1416015625 111.329704284668 L 63.24480056762695 110.7430725097656 L 62.64916610717773 110.7430725097656 L 13.42870044708252 110.7430725097656 L 12.83306694030762 110.7430725097656 Z M 138.8352966308594 110.7430725097656 L 138.9385070800781 111.329704284668 C 141.0781402587891 123.4918746948242 151.6239624023438 132.3192749023438 164.0140991210938 132.3192749023438 C 176.4042358398438 132.3192749023438 186.9500732421875 123.4918746948242 189.0897064208984 111.329704284668 L 189.1929016113281 110.7430725097656 L 188.5972595214844 110.7430725097656 L 139.4309387207031 110.7430725097656 L 138.8352966308594 110.7430725097656 Z M 75.80439758300781 110.7430725097656 L 75.91073608398438 111.3319091796875 C 78.10639953613281 123.492805480957 88.67479705810547 132.3192749023438 101.0400314331055 132.3192749023438 C 113.4301986694336 132.3192749023438 123.9760360717773 123.4918746948242 126.1156311035156 111.329704284668 L 126.2188339233398 110.7430725097656 L 125.6231994628906 110.7430725097656 L 76.40276336669922 110.7430725097656 L 75.80439758300781 110.7430725097656 Z M 49.36249923706055 43.59963989257812 L 49.21879959106445 43.85287475585938 L 18.46276664733887 98.05493927001953 L 18.03903388977051 98.80170440673828 L 18.89763259887695 98.80170440673828 L 246.102294921875 98.80170440673828 L 246.9616394042969 98.80170440673828 L 246.5369720458984 98.05460357666016 L 215.7268371582031 43.8525390625 L 215.5830993652344 43.59963989257812 L 215.2921600341797 43.59963989257812 L 49.65366744995117 43.59963989257812 L 49.36249923706055 43.59963989257812 Z" stroke="none"/>
          <path d="M 45.86329650878906 32.05001831054688 C 43.87950134277344 32.05001831054688 42.05706787109375 33.1177978515625 41.10713195800781 34.83670043945312 L 41.1014404296875 34.84689331054688 L 1.73876953125 104.1512145996094 C 1.248565673828125 105.03466796875 1 105.9450836181641 1 106.8571014404297 C 1 114.1680450439453 3.139495849609375 121.2362670898438 7.187225341796875 127.297607421875 C 11.12983703613281 133.2015686035156 16.64823913574219 137.8378448486328 23.1458740234375 140.7052001953125 L 23.74212646484375 140.9683380126953 L 23.74212646484375 255.9263763427734 C 23.74212646484375 257.3876647949219 24.31596374511719 258.7662963867188 25.35797119140625 259.808349609375 C 26.39996337890625 260.850341796875 27.778564453125 261.4241943359375 29.2398681640625 261.4241943359375 L 235.7059326171875 261.4241943359375 C 237.167236328125 261.4241943359375 238.5458679199219 260.850341796875 239.5879058837891 259.808349609375 C 240.6298675537109 258.7662963867188 241.2037353515625 257.3876647949219 241.2037353515625 255.9263763427734 L 241.2037353515625 142.4323120117188 C 241.2037353515625 142.2208709716797 241.2037353515625 142.0680999755859 241.1794281005859 141.9709014892578 L 240.9747619628906 141.1523742675781 L 241.7471923828125 140.8128662109375 C 248.2716064453125 137.9452667236328 253.8154296875 133.2972717285156 257.7793273925781 127.3713989257812 C 261.8489379882812 121.2875061035156 264 114.1938018798828 264 106.8571014404297 C 264 105.8646697998047 263.7578735351562 104.9652709960938 263.2803344726562 104.183837890625 L 263.264404296875 104.1567687988281 L 223.8442077636719 34.84661865234375 C 223.3695068359375 34.01019287109375 222.67529296875 33.306396484375 221.8366394042969 32.81137084960938 C 220.9927978515625 32.31326293945312 220.0404663085938 32.05001831054688 219.0825347900391 32.05001831054688 L 45.86329650878906 32.05001831054688 M 247.8209991455078 99.30171203613281 L 17.18043518066406 99.30171203613281 L 49.07133483886719 43.09963989257812 L 215.8739929199219 43.09963989257812 L 247.8209991455078 99.30171203613281 M 37.90060424804688 132.8195037841797 C 25.33172607421875 132.8195037841797 14.62559509277344 123.8181762695312 12.44380187988281 111.4163360595703 L 12.23739624023438 110.2430725097656 L 63.84046936035156 110.2430725097656 L 63.634033203125 111.4163360595703 C 61.4522705078125 123.8180389404297 50.67655944824219 132.8192749023438 38.01637268066406 132.8192749023438 C 37.97810363769531 132.8194427490234 37.93882751464844 132.8195037841797 37.90060424804688 132.8195037841797 M 101.0400390625 132.8192749023438 C 88.4327392578125 132.8192749023438 77.65736389160156 123.8199005126953 75.41864013671875 111.4207458496094 L 75.20599365234375 110.2430725097656 L 126.8144683837891 110.2430725097656 L 126.6080627441406 111.4163360595703 C 124.4263305664062 123.8180389404297 113.6734008789062 132.8192749023438 101.0400390625 132.8192749023438 M 164.0140991210938 132.8192749023438 C 151.3807678222656 132.8192749023438 140.6278381347656 123.8180389404297 138.4460754394531 111.4163360595703 L 138.2396240234375 110.2430725097656 L 189.78857421875 110.2430725097656 L 189.5821228027344 111.4163360595703 C 187.4003601074219 123.8180389404297 176.6474304199219 132.8192749023438 164.0140991210938 132.8192749023438 M 226.9881591796875 132.8734741210938 C 214.3548278808594 132.8734741210938 203.6018981933594 123.8722076416016 201.4201354980469 111.4704742431641 L 201.2136993408203 110.2972106933594 L 252.8231964111328 110.2972106933594 L 252.6094055175781 111.4757080078125 C 250.3603057861328 123.8744049072266 239.5850372314453 132.8734741210938 226.9881591796875 132.8734741210938 M 101.0400390625 143.8689727783203 C 104.1682739257812 143.8689727783203 107.2754364013672 143.4763031005859 110.2752685546875 142.7018432617188 C 113.1856994628906 141.9504699707031 116.0046691894531 140.8378753662109 118.6539001464844 139.3949737548828 C 123.8545684814453 136.5624084472656 128.3751373291016 132.4565734863281 131.7268676757812 127.5212707519531 L 132.5574035644531 126.2983703613281 L 133.3834381103516 127.5243072509766 C 136.7024688720703 132.4501342773438 141.2129669189453 136.5549774169922 146.4273071289062 139.3949737548828 C 149.0756225585938 140.83740234375 151.8935699462891 141.9500122070312 154.8028259277344 142.701904296875 C 157.7991333007812 143.4763031005859 160.8982238769531 143.8689727783203 164.0140991210938 143.8689727783203 C 167.1426086425781 143.8689727783203 170.2494659423828 143.4763031005859 173.2483978271484 142.7018737792969 C 176.1584777832031 141.9503784179688 178.975341796875 140.8378753662109 181.6207275390625 139.3952331542969 C 186.8182067871094 136.5608367919922 191.3218383789062 132.4559326171875 194.644775390625 127.5243072509766 L 195.4740600585938 126.2935028076172 L 196.3033752441406 127.5243072509766 C 203.1993408203125 137.7588043212891 214.6703033447266 143.8689727783203 226.9881591796875 143.8689727783203 C 227.3486633300781 143.8689727783203 227.6947631835938 143.8561401367188 228.0611572265625 143.8425750732422 C 228.4296264648438 143.8289337158203 228.8106384277344 143.8148040771484 229.2081909179688 143.8148040771484 L 230.2081909179688 143.8148040771484 L 230.2081909179688 250.4287109375 L 121.1577301025391 250.4287109375 L 121.1577301025391 179.3070373535156 C 121.1577301025391 167.5870971679688 111.6228637695312 158.05224609375 99.90293884277344 158.05224609375 L 81.00529479980469 158.05224609375 C 69.28536987304688 158.05224609375 59.75050354003906 167.5870971679688 59.75050354003906 179.3070373535156 L 59.75050354003906 250.4827423095703 L 34.73764038085938 250.4827423095703 L 34.73764038085938 143.7407989501953 L 35.80889892578125 143.8173370361328 C 36.5313720703125 143.8689727783203 37.25050354003906 143.8689727783203 38.0118408203125 143.8689727783203 C 50.32969665527344 143.8689727783203 61.8006591796875 137.7588043212891 68.69667053222656 127.5243072509766 L 69.52597045898438 126.2935028076172 L 70.35527038574219 127.5243072509766 C 77.25123596191406 137.7588043212891 88.72216796875 143.8689727783203 101.0400390625 143.8689727783203 M 110.2164001464844 250.4287109375 L 70.8001708984375 250.4287109375 L 70.8001708984375 179.3070373535156 C 70.8001708984375 173.6500701904297 75.4024658203125 169.0477752685547 81.05946350097656 169.0477752685547 L 99.95710754394531 169.0477752685547 C 105.6141052246094 169.0477752685547 110.2164001464844 173.6500701904297 110.2164001464844 179.3070373535156 L 110.2164001464844 250.4287109375 M 45.86329650878906 31.05001831054688 L 219.0825347900391 31.05001831054688 C 221.4109039306641 31.05001831054688 223.5768737792969 32.34954833984375 224.7138977050781 34.35302734375 L 264.1336364746094 103.6623992919922 C 264.729248046875 104.6370391845703 265 105.719970703125 265 106.8571014404297 C 265 122.4517059326172 255.5782012939453 135.8262023925781 242.1495666503906 141.7283325195312 C 242.2037353515625 141.9449768066406 242.2037353515625 142.1614990234375 242.2037353515625 142.4323120117188 L 242.2037353515625 255.9263763427734 C 242.2037353515625 259.5000610351562 239.2796936035156 262.4241943359375 235.7059326171875 262.4241943359375 L 115.8224334716797 262.4241943359375 C 115.7682647705078 262.4241943359375 115.7141265869141 262.4241943359375 115.6600036621094 262.4241943359375 L 65.30239868164062 262.4241943359375 C 65.24826049804688 262.4241943359375 65.19413757324219 262.4241943359375 65.13996887207031 262.4241943359375 L 29.2398681640625 262.4241943359375 C 25.6661376953125 262.4241943359375 22.74212646484375 259.5000610351562 22.74212646484375 255.9263763427734 L 22.74212646484375 141.6200714111328 C 9.367568969726562 135.7179412841797 0 122.3975372314453 0 106.8571014404297 C 0 105.719970703125 0.32489013671875 104.6370391845703 0.866363525390625 103.6623992919922 L 40.23190307617188 34.35302734375 C 41.36900329589844 32.29541015625 43.53492736816406 31.05001831054688 45.86329650878906 31.05001831054688 Z M 246.102294921875 98.30171203613281 L 215.2921752929688 44.09963989257812 L 49.65367126464844 44.09963989257812 L 18.89762878417969 98.30171203613281 L 246.102294921875 98.30171203613281 Z M 13.42866516113281 111.2430725097656 C 15.48631286621094 122.9390258789062 25.71682739257812 131.8732147216797 38.0118408203125 131.8192749023438 C 50.30343627929688 131.8192749023438 60.59153747558594 122.9390411376953 62.649169921875 111.2430725097656 L 13.42866516113281 111.2430725097656 Z M 76.40274047851562 111.2430725097656 C 78.51449584960938 122.9390411376953 88.74847412109375 131.8192749023438 101.0400390625 131.8192749023438 C 113.3316345214844 131.8192749023438 123.5655975341797 122.9390411376953 125.6231994628906 111.2430725097656 L 76.40274047851562 111.2430725097656 Z M 139.4309387207031 111.2430725097656 C 141.4885559082031 122.9390411376953 151.7225341796875 131.8192749023438 164.0140991210938 131.8192749023438 C 176.3056640625 131.8192749023438 186.5396423339844 122.9390411376953 188.5972595214844 111.2430725097656 L 139.4309387207031 111.2430725097656 Z M 202.4049987792969 111.2972106933594 C 204.4626312255859 122.9932098388672 214.696533203125 131.8734741210938 226.9881591796875 131.8734741210938 C 239.2796936035156 131.8734741210938 249.513671875 122.9390411376953 251.6254730224609 111.2972106933594 L 202.4049987792969 111.2972106933594 Z M 101.0400390625 144.8689727783203 C 87.93623352050781 144.8689727783203 76.34860229492188 138.2087707519531 69.52597045898438 128.0830993652344 C 62.70329284667969 138.2087707519531 51.11563110351562 144.8689727783203 38.0118408203125 144.8689727783203 C 37.25376892089844 144.8689727783203 36.49569702148438 144.8689727783203 35.73764038085938 144.8148040771484 L 35.73764038085938 249.4827423095703 L 58.75050354003906 249.4827423095703 L 58.75050354003906 179.3070373535156 C 58.75050354003906 167.0154724121094 68.76786804199219 157.05224609375 81.00529479980469 157.05224609375 L 99.90293884277344 157.05224609375 C 112.1945343017578 157.05224609375 122.1577301025391 167.0696105957031 122.1577301025391 179.3070373535156 L 122.1577301025391 249.4287109375 L 229.2081909179688 249.4287109375 L 229.2081909179688 144.8148040771484 C 228.4501342773438 144.8148040771484 227.7462310791016 144.8689727783203 226.9881591796875 144.8689727783203 C 213.8843383789062 144.8689727783203 202.2966918945312 138.2087707519531 195.4740600585938 128.0830993652344 C 188.6513977050781 138.2087707519531 177.1178894042969 144.8689727783203 164.0140991210938 144.8689727783203 C 150.9644317626953 144.8689727783203 139.3768005371094 138.2087707519531 132.5541381835938 128.0830993652344 C 125.6773681640625 138.2087707519531 114.1438293457031 144.8689727783203 101.0400390625 144.8689727783203 Z M 109.2164001464844 249.4287109375 L 109.2164001464844 179.3070373535156 C 109.2164001464844 174.1630096435547 105.0469970703125 170.0477752685547 99.95710754394531 170.0477752685547 L 81.05946350097656 170.0477752685547 C 75.9154052734375 170.0477752685547 71.8001708984375 174.2171325683594 71.8001708984375 179.3070373535156 L 71.8001708984375 249.4287109375 L 109.2164001464844 249.4287109375 Z" stroke="none" fill="#eee"/>
        </g>
      </g>
    </g>
    <rect id="Rectangle_128" data-name="Rectangle 128" width="300" height="300" transform="translate(1320 1224)" fill="none"/>
  </g>
</svg>
