<svg xmlns="http://www.w3.org/2000/svg" width="26" height="26" viewBox="0 0 26 26">
  <g id="ic-tel" transform="translate(-806 -9075)">
    <g id="Icon_ICON_feather_phone_SIZE_LARGE_STYLE_STYLE1_" data-name="Icon [ICON=feather/phone][SIZE=LARGE][STYLE=STYLE1]" transform="translate(808 9077)">
      <rect id="Area_ICON:feather_phone_SIZE:LARGE_STYLE:STYLE1_" data-name="Area [ICON:feather/phone][SIZE:LARGE][STYLE:STYLE1]" width="22" height="22" fill="#1f89cd" opacity="0"/>
      <g id="Icon" transform="translate(0.024 0)">
        <path id="bb15ff6f-01c0-4d76-9b60-37d9b12fbd88" d="M24.5,18.88v3.312A2.207,2.207,0,0,1,22.089,24.4a21.841,21.841,0,0,1-9.526-3.39A21.539,21.539,0,0,1,5.94,14.387,21.851,21.851,0,0,1,2.552,4.815a2.207,2.207,0,0,1,2.2-2.406H8.06a2.207,2.207,0,0,1,2.207,1.9,14.234,14.234,0,0,0,.773,3.1,2.206,2.206,0,0,1-.5,2.329l-1.4,1.4a17.664,17.664,0,0,0,6.623,6.624l1.4-1.4a2.209,2.209,0,0,1,2.33-.5,14.111,14.111,0,0,0,3.1.773A2.208,2.208,0,0,1,24.5,18.88Z" transform="translate(-2.543 -2.409)" fill="#1f89cd"/>
      </g>
    </g>
    <rect id="Rectangle_97" data-name="Rectangle 97" width="26" height="26" transform="translate(806 9075)" fill="none"/>
  </g>
</svg>
