<svg xmlns="http://www.w3.org/2000/svg" width="100" height="100" viewBox="0 0 100 100">
  <g id="ic-table" transform="translate(-892 -5988)">
    <g id="Group_216" data-name="Group 216" transform="translate(-17 197.375)">
      <g id="dining-table" transform="translate(914 5817.756)">
        <path id="Path_255" data-name="Path 255" d="M463.159,326.492,458.737,303l-6.123-.551,6.593,24.951a2.028,2.028,0,0,0,3.952-.9Z" transform="translate(-371.972 -259.444)" fill="#ff9130"/>
        <path id="Path_257" data-name="Path 257" d="M317.946,302.445v24.443a1.937,1.937,0,0,0,1.859,2.007h.984a1.937,1.937,0,0,0,1.859-2.007V302.445Z" transform="translate(-261.298 -259.444)" fill="#ff9130"/>
        <path id="Path_259" data-name="Path 259" d="M.036,326.492,4.457,303l6.123-.551L3.988,327.4a2.028,2.028,0,0,1-3.952-.9Z" transform="translate(0 -259.444)" fill="#ff9130"/>
        <path id="Path_260" data-name="Path 260" d="M172.366,302.445v24.443a1.937,1.937,0,0,1-1.859,2.007h-.984a1.937,1.937,0,0,1-1.859-2.007V302.445Z" transform="translate(-137.791 -259.444)" fill="#ff9130"/>
        <path id="Path_263" data-name="Path 263" d="M349.623,84.671h-2.905a.732.732,0,0,0-.721.6,187.651,187.651,0,0,1-4.6,18.551,18.2,18.2,0,0,1-17.791,13.088h-5.661v6.99h30.117l2.366-39.377A2.334,2.334,0,0,1,349.623,84.671Z" transform="translate(-261.297 -80.352)" fill="#f9bf00"/>
        <path id="Path_265" data-name="Path 265" d="M12.541,84.67h2.905a.732.732,0,0,1,.721.6,187.654,187.654,0,0,0,4.6,18.551,18.2,18.2,0,0,0,17.791,13.088h5.661v6.99H14.1L11.736,84.525a2.331,2.331,0,0,0,.805.145Z" transform="translate(-9.645 -80.351)" fill="#f9bf00"/>
        <path id="Path_267" data-name="Path 267" d="M230.812,238.08l-3.7-44.549h-6.53l-3.7,44.549a1.206,1.206,0,0,0,1.2,1.306h11.53A1.206,1.206,0,0,0,230.812,238.08Z" transform="translate(-178.234 -169.935)" fill="#83c6f2"/>
        <path id="Path_269" data-name="Path 269" d="M5.526,61.1H9.017a4.619,4.619,0,0,1,4.556,3.824A169.751,169.751,0,0,0,17.79,83.207,14.216,14.216,0,0,0,31.464,93.34h6.1a2.343,2.343,0,0,1,2.343,2.387,2.394,2.394,0,0,1-2.42,2.3H31.464A18.964,18.964,0,0,1,13.307,84.571,168.849,168.849,0,0,1,9.074,66.387a.732.732,0,0,0-.721-.6H5.448A2.343,2.343,0,0,1,3.105,63.4a2.394,2.394,0,0,1,2.42-2.3Z" transform="translate(-2.552 -61.098)" fill="#ff9130"/>
        <path id="Path_271" data-name="Path 271" d="M336.715,61.1h-3.491a4.619,4.619,0,0,0-4.556,3.824,169.706,169.706,0,0,1-4.217,18.285A14.216,14.216,0,0,1,310.776,93.34h-6.1a2.343,2.343,0,0,0-2.343,2.387,2.394,2.394,0,0,0,2.42,2.3h6.022a18.964,18.964,0,0,0,18.158-13.455,168.856,168.856,0,0,0,4.233-18.184.732.732,0,0,1,.721-.6h2.905a2.343,2.343,0,0,0,2.343-2.387,2.394,2.394,0,0,0-2.421-2.3Z" transform="translate(-248.466 -61.098)" fill="#ff9130"/>
        <path id="Path_273" data-name="Path 273" d="M175.236,169.289H132.761a.876.876,0,0,0-.876.876V173.1a.876.876,0,0,0,.876.876h42.475a.876.876,0,0,0,.876-.876v-2.934A.876.876,0,0,0,175.236,169.289Z" transform="translate(-108.387 -150.013)" fill="#83c6f2"/>
      </g>
      <g id="Group_214" data-name="Group 214" transform="translate(942.23 5794.625)">
        <g id="Group_112" data-name="Group 112" transform="translate(0)">
          <ellipse id="Ellipse_8" data-name="Ellipse 8" cx="16.914" cy="16.914" rx="16.914" ry="16.914" fill="#fff"/>
        </g>
        <g id="Group_114" data-name="Group 114" transform="translate(8.443 10.705)">
          <path id="Path_150" data-name="Path 150" d="M48.947,401.669a1.533,1.533,0,0,1-1.083-.448l-6.072-6.072a1.532,1.532,0,0,1,2.166-2.166l4.879,4.88,7.074-8.58a1.532,1.532,0,0,1,2.364,1.948l-8.147,9.881a1.531,1.531,0,0,1-1.108.556Z" transform="translate(-41.343 -388.725)" fill="#1f89cd"/>
        </g>
      </g>
    </g>
    <rect id="Rectangle_93" data-name="Rectangle 93" width="100" height="100" transform="translate(892 5988)" fill="none"/>
  </g>
</svg>
