<svg xmlns="http://www.w3.org/2000/svg" xmlns:xlink="http://www.w3.org/1999/xlink" width="242" height="44.566" viewBox="0 0 242 44.566">
  <defs>
    <clipPath id="clip-path">
      <rect id="Rectangle_27" data-name="Rectangle 27" width="242" height="44.566" fill="#fff"/>
    </clipPath>
  </defs>
  <g id="logo-white" transform="translate(0 0)">
    <g id="Group_226" data-name="Group 226" transform="translate(0 0)" clip-path="url(#clip-path)">
      <path id="Path_307" data-name="Path 307" d="M155.028,23.115c-.83,0-2.772,0-2.772-3.836,0-3.811,2.051-3.811,2.824-3.811,1.822,0,2.747,1.282,2.747,3.811,0,3.836-1.961,3.836-2.8,3.836" transform="translate(-22.178 -2.253)" fill="#fff"/>
      <path id="Path_308" data-name="Path 308" d="M209.38,42.951a25.157,25.157,0,0,1-1.872,3.664l-1.088-.529a19.2,19.2,0,0,0,1.3-3.758Zm4.783-6.334h-7.23V35.338h2.975a16.019,16.019,0,0,0-.8-1.44L211,33.482a15.187,15.187,0,0,1,.479,1.856h2.688Zm-.512.928V41.88h-1.984v4.654a1.392,1.392,0,0,1-.48,1.184,2.407,2.407,0,0,1-1.456.367,7.165,7.165,0,0,1-1.359-.113l-.3-1.551a5.134,5.134,0,0,0,1.055.112.665.665,0,0,0,.48-.144.414.414,0,0,0,.144-.336V41.88h-2.224V37.544Zm-1.888,1.28h-2.351V40.6h2.351Zm5.423-.64c-.1,4.623-1.233,8.014-3.392,10.141l-1.1-.672a11.887,11.887,0,0,0,1.28-2.159l-.864.239a20.08,20.08,0,0,0-1.184-2.959l1.52-.543a17.794,17.794,0,0,1,.736,2.75,19.677,19.677,0,0,0,1.152-6.8h-1.248V36.809h1.264V33.5H217.2v3.311h4.126v1.375h-1.759V46.2c0,.208.064.32.208.32h.3a.282.282,0,0,0,.255-.191,2.671,2.671,0,0,0,.128-.928c.016-.5,0-1.072-.015-1.7l1.311.544a20.075,20.075,0,0,1-.049,2.112,2.944,2.944,0,0,1-.352,1.231.948.948,0,0,1-.911.432h-1.472a1.129,1.129,0,0,1-1.3-1.264V38.184Zm2.015-4.367a17.478,17.478,0,0,1,1.216,2.176l-1.056.576a12.511,12.511,0,0,0-1.759-1.887Z" transform="translate(-30.068 -4.877)" fill="#fff"/>
      <path id="Path_309" data-name="Path 309" d="M226.675,40.934h14.2v1.311h-5.855v1.44h5.23V45h-5.23v1.7l.736.015c1.9-.015,3.774-.063,5.63-.159l-.32,1.472c-1.616.079-3.343.111-5.2.111q-1.608,0-2.591-.1a5.854,5.854,0,0,1-3.839-2.08,16.092,16.092,0,0,1-2.112,2.512l-1.119-.7a13.957,13.957,0,0,0,2.911-5.119l1.808.56c-.208.5-.448.991-.7,1.471a5.047,5.047,0,0,0,2.783,1.839V42.245h-6.334Zm12.78-1.007H228.386V34.344h11.069ZM230.337,36.6H237.5V35.526h-7.166ZM237.5,37.75h-7.166v.992H237.5Z" transform="translate(-32.95 -5.003)" fill="#fff"/>
      <path id="Path_310" data-name="Path 310" d="M247.618,37.486h-1.583V36.143h1.807c.113-.944.208-1.9.256-2.848l2.032.065c-.144.959-.288,1.887-.449,2.783h2.752v1.344a17.735,17.735,0,0,1-1.584,6.542l-.048.1c.624.608,1.28,1.3,1.968,2.048l-.944.88a22.477,22.477,0,0,0-1.807-1.7,11.206,11.206,0,0,1-3.359,2.926l-.865-1.024a9.334,9.334,0,0,0,3.024-2.879q-1.175-.911-2.5-1.775a33.752,33.752,0,0,0,1.3-5.118m1.775,0a36.039,36.039,0,0,1-1.3,4.414,15.425,15.425,0,0,1,1.456,1.1,18.142,18.142,0,0,0,1.088-5.518Zm3.68-3.071h7.134v1.343a11.1,11.1,0,0,1-2.367,2.656v1.744h3.071v1.375h-3.071v4.959a1.473,1.473,0,0,1-.512,1.247,2.985,2.985,0,0,1-1.744.384,10.256,10.256,0,0,1-1.775-.144l-.32-1.616a11.387,11.387,0,0,0,1.52.129.982.982,0,0,0,.672-.161.835.835,0,0,0,.176-.56V41.533H252.5V40.158h3.36V38.126h.335a11.488,11.488,0,0,0,1.856-2.368h-4.974Z" transform="translate(-35.803 -4.85)" fill="#fff"/>
      <path id="Path_311" data-name="Path 311" d="M267.592,45.48a13.891,13.891,0,0,1-.943,2.783l-1.12-.16a18.593,18.593,0,0,0,.56-2.848Zm5.807-1.727a70.52,70.52,0,0,1-7.326,1.2l-.128-1.759c.944-.032,1.856-.08,2.751-.128V41.977h-2.607V40.7H268.7V39.626h-2.542v-5.5h7.037v5.5h-2.607V40.7h2.56v1.279h-2.56v.96c.928-.08,1.839-.161,2.72-.256Zm-4.511-8.382h-1.264v.656l.783-.239a10.1,10.1,0,0,1,.48,1.743Zm0,3.008v-.592l-.672.16a10.338,10.338,0,0,0-.592-1.519v1.951Zm.352,6.781a18.431,18.431,0,0,1,.5,2.768l-1.12.128a15.821,15.821,0,0,0-.879-2.736Zm1.856-.351a19.456,19.456,0,0,1,.655,2.783l-1.088.16a14.646,14.646,0,0,0-1.04-2.688Zm-.64-9.438v2.24a11.975,11.975,0,0,0,.432-1.839l.831.273v-.673Zm0,2.384v.625h1.264V36.491a11.886,11.886,0,0,1-.64,1.5Zm2.415,6.671a17.246,17.246,0,0,1,.591,2.607l-1.023.159a14.2,14.2,0,0,0-1.007-2.511ZM280,40.538v7.614h-1.888V47.033h-2.59v1.119h-1.888V40.538h2.032V33.276h1.951v2.768h3.056v1.343h-3.056v3.151Zm-4.478,5.119h2.59V41.914h-2.59Z" transform="translate(-38.677 -4.847)" fill="#fff"/>
      <line id="Line_2" data-name="Line 2" y2="38.803" transform="translate(169.14 4.78)" fill="none" stroke="#fff" stroke-miterlimit="10" stroke-width="1.4"/>
      <path id="Path_312" data-name="Path 312" d="M121.739,7.554h5.739c6.939,0,9.955,1.9,9.955,7.466s-3.016,7.467-9.927,7.467h-2.371v6.266h-3.4Zm6.237,11.829c4.012,0,6-.937,6-4.421,0-3.455-1.991-4.392-6-4.392h-2.84v8.813Z" transform="translate(-17.733 -1.1)" fill="#fff"/>
      <path id="Path_313" data-name="Path 313" d="M143.847,18.143c0-7.554,4.714-10.863,10.014-10.863,5.212,0,9.985,3.309,9.985,10.863,0,7.7-4.743,10.892-10.043,10.892s-9.956-3.192-9.956-10.892m16.6,0c0-4.89-2.577-7.789-6.588-7.789-4.1,0-6.676,2.87-6.676,7.789,0,5.006,2.489,7.818,6.618,7.818,4.1,0,6.646-2.812,6.646-7.818" transform="translate(-20.953 -1.061)" fill="#fff"/>
      <path id="Path_314" data-name="Path 314" d="M170.616,23.252l3.192-.644a5.6,5.6,0,0,0,5.592,3.426c2.928,0,4.6-1.171,4.6-3.192,0-5.006-12.473-1.522-12.473-9.692,0-3.543,2.987-5.974,7.35-5.974,4.3,0,7.2,1.9,8.286,5.446l-3.1.615c-.908-2.021-2.548-3.045-5.1-3.045-2.635,0-4.157,1.112-4.157,2.957,0,5.27,12.531,1.405,12.531,9.692,0,3.719-3.1,6.149-7.905,6.149-4.421,0-7.73-2.108-8.813-5.739" transform="translate(-24.852 -1.046)" fill="#fff"/>
      <path id="Path_315" data-name="Path 315" d="M67.506,41.512h2.015c2.437,0,3.371.781,3.371,2.683s-.935,2.654-3.334,2.654h-.53V48.76H67.506Zm2.284,3.944c1.079,0,1.551-.361,1.551-1.292s-.472-1.282-1.551-1.282h-.761v2.573Z" transform="translate(-9.833 -6.047)" fill="#fff"/>
      <path id="Path_316" data-name="Path 316" d="M74.757,46.138a2.849,2.849,0,1,1,5.693,0,2.85,2.85,0,1,1-5.693,0m4.239,0c0-1.071-.578-1.712-1.4-1.712s-1.387.631-1.387,1.712.578,1.722,1.4,1.722S79,47.22,79,46.138" transform="translate(-10.889 -6.288)" fill="#fff"/>
      <path id="Path_317" data-name="Path 317" d="M81.973,43.293h1.581l1.3,3.955,1.233-3.955H87.2l1.224,3.955,1.3-3.955h1.6L89.188,49.02H87.762l-1.117-3.7-1.128,3.7H84.083Z" transform="translate(-11.94 -6.306)" fill="#fff"/>
      <path id="Path_318" data-name="Path 318" d="M93.372,46.138a2.767,2.767,0,0,1,2.823-2.974c1.821,0,2.89,1.322,2.717,3.324H94.836a1.363,1.363,0,0,0,1.445,1.472,1.216,1.216,0,0,0,1.243-.711l1.34.17a2.519,2.519,0,0,1-2.621,1.692,2.752,2.752,0,0,1-2.871-2.973m4.2-.651a1.263,1.263,0,0,0-1.339-1.252,1.291,1.291,0,0,0-1.368,1.252Z" transform="translate(-13.601 -6.287)" fill="#fff"/>
      <path id="Path_319" data-name="Path 319" d="M101.332,43.278H102.8v.861a1.6,1.6,0,0,1,1.86-.931l-.145,1.441c-1.1-.21-1.715.32-1.715,1.652V49h-1.464Z" transform="translate(-14.76 -6.291)" fill="#fff"/>
      <path id="Path_320" data-name="Path 320" d="M111.105,47.762v.931h-1.464V41.114h1.464v2.823a1.833,1.833,0,0,1,1.754-1.07c1.367,0,2.447,1.051,2.447,2.973s-1.08,2.994-2.438,2.994a1.863,1.863,0,0,1-1.762-1.071m2.736-1.922c0-1.071-.568-1.712-1.4-1.712-.809,0-1.387.631-1.387,1.712s.578,1.722,1.4,1.722,1.387-.641,1.387-1.722" transform="translate(-15.97 -5.989)" fill="#fff"/>
      <path id="Path_321" data-name="Path 321" d="M119.062,48.99l-2.284-5.7h1.6l1.464,4.065,1.455-4.065h1.609l-3.015,7.579h-1.609Z" transform="translate(-17.01 -6.306)" fill="#fff"/>
      <path id="Path_322" data-name="Path 322" d="M132.429,47.5h-2.987L129,48.76h-1.6l2.764-7.248h1.542l2.774,7.248h-1.609Zm-.4-1.161-1.088-3.1-1.089,3.1Z" transform="translate(-18.557 -6.047)" fill="#fff"/>
      <path id="Path_323" data-name="Path 323" d="M136.533,43.278H138v.861a1.6,1.6,0,0,1,1.86-.931l-.145,1.441c-1.1-.21-1.715.32-1.715,1.652V49h-1.464Z" transform="translate(-19.888 -6.291)" fill="#fff"/>
      <path id="Path_324" data-name="Path 324" d="M141.812,46.506V44.213h-.781V43.063h.781V42.031l1.474-.32v1.352h1.5v1.151h-1.5v2.153c0,.971.27,1.311.993,1.311a3.139,3.139,0,0,0,.443-.05l.193,1.152a3.966,3.966,0,0,1-.887.1c-1.5,0-2.215-.631-2.215-2.372" transform="translate(-20.543 -6.076)" fill="#fff"/>
      <path id="Path_325" data-name="Path 325" d="M146.68,43.278h1.464v.861a1.6,1.6,0,0,1,1.86-.931l-.145,1.441c-1.1-.21-1.715.32-1.715,1.652V49H146.68Z" transform="translate(-21.366 -6.291)" fill="#fff"/>
      <path id="Path_326" data-name="Path 326" d="M151.517,41.392a.752.752,0,0,1,.839-.771.774.774,0,1,1,0,1.542.758.758,0,0,1-.839-.771m.106,1.512h1.455V48.63h-1.455Z" transform="translate(-22.07 -5.917)" fill="#fff"/>
      <path id="Path_327" data-name="Path 327" d="M156.51,47.762v.931h-1.464V41.114h1.464v2.823a1.833,1.833,0,0,1,1.754-1.07c1.367,0,2.447,1.051,2.447,2.973s-1.08,2.994-2.438,2.994a1.863,1.863,0,0,1-1.762-1.071m2.736-1.922c0-1.071-.568-1.712-1.4-1.712-.809,0-1.387.631-1.387,1.712s.578,1.722,1.4,1.722,1.387-.641,1.387-1.722" transform="translate(-22.584 -5.989)" fill="#fff"/>
      <path id="Path_328" data-name="Path 328" d="M163.131,43.278H164.6v.861a1.6,1.6,0,0,1,1.86-.931l-.145,1.441c-1.1-.21-1.715.32-1.715,1.652V49h-1.464Z" transform="translate(-23.762 -6.291)" fill="#fff"/>
      <path id="Path_329" data-name="Path 329" d="M60.9,11.9H58.4V9.777h2.851c.177-1.488.326-3,.4-4.49l3.2.1c-.226,1.514-.454,2.977-.706,4.39h4.338V11.9A27.975,27.975,0,0,1,66,22.213l-.075.151c.982.959,2.018,2.044,3.1,3.229L67.537,26.98a36.65,36.65,0,0,0-2.85-2.674,17.69,17.69,0,0,1-5.3,4.616l-1.362-1.614a14.724,14.724,0,0,0,4.767-4.541q-1.854-1.438-3.936-2.8A53.19,53.19,0,0,0,60.9,11.9m2.8,0a56.994,56.994,0,0,1-2.044,6.962,23.862,23.862,0,0,1,2.3,1.74,28.6,28.6,0,0,0,1.715-8.7Zm5.8-4.843h11.25V9.172a17.489,17.489,0,0,1-3.734,4.187v2.75h4.843v2.169H77.02V26.1a2.322,2.322,0,0,1-.807,1.968,4.71,4.71,0,0,1-2.749.6,16.235,16.235,0,0,1-2.8-.226l-.5-2.548a17.952,17.952,0,0,0,2.4.2,1.539,1.539,0,0,0,1.059-.253,1.3,1.3,0,0,0,.278-.883V18.278H68.6V16.109h5.3v-3.2h.53a18.114,18.114,0,0,0,2.927-3.733H69.5Z" transform="translate(-8.452 -0.77)" fill="#fff"/>
      <path id="Path_330" data-name="Path 330" d="M90.923,24.5a21.959,21.959,0,0,1-1.488,4.389l-1.765-.252a29.669,29.669,0,0,0,.883-4.49Zm9.157-2.724a111.741,111.741,0,0,1-11.553,1.892l-.2-2.775c1.488-.05,2.926-.126,4.339-.2V18.98H88.553V16.962h4.112V15.272H88.653V6.6h11.1v8.677H95.64v1.691h4.036V18.98H95.64v1.514c1.463-.126,2.9-.252,4.289-.4ZM92.966,8.563H90.974V9.6l1.236-.378a15.833,15.833,0,0,1,.756,2.749Zm0,4.742v-.933l-1.059.252a16.321,16.321,0,0,0-.934-2.4V13.3ZM93.521,24a29.021,29.021,0,0,1,.783,4.364l-1.766.2a24.888,24.888,0,0,0-1.388-4.314Zm2.926-.554a30.5,30.5,0,0,1,1.035,4.389l-1.716.252a23.068,23.068,0,0,0-1.639-4.238ZM95.439,8.563v3.531a18.573,18.573,0,0,0,.681-2.9l1.312.429V8.563Zm0,3.758V13.3h1.993V10.328a18.54,18.54,0,0,1-1.01,2.372Zm3.809,10.519a27.205,27.205,0,0,1,.934,4.112l-1.615.252a22.389,22.389,0,0,0-1.589-3.961Zm11.25-6.13V28.716h-2.977V26.951h-4.085v1.765h-2.977V16.71h3.2V5.258h3.077V9.622h4.818v2.119h-4.818V16.71Zm-7.062,8.072h4.086v-5.9h-4.086Z" transform="translate(-12.77 -0.766)" fill="#fff"/>
      <path id="Path_331" data-name="Path 331" d="M42.833,28.44,36.227,16.5,29.782,28.44Z" transform="translate(-4.338 -2.403)" fill="#fff"/>
      <path id="Path_332" data-name="Path 332" d="M24.1,0,0,43.57H11.433L29.584,9.925Z" transform="translate(0 0)" fill="#fff"/>
      <path id="Path_333" data-name="Path 333" d="M26.008,35.167l-7.3,13.525h32.2l-7.48-13.525Z" transform="translate(-2.726 -5.123)" fill="#fff"/>
      <path id="Path_334" data-name="Path 334" d="M26.008,35.167l-7.3,13.525h32.2l-7.48-13.525Z" transform="translate(-2.726 -5.123)" fill="#fff"/>
      <path id="Path_335" data-name="Path 335" d="M36.227,16.5,29.782,28.44h13.05Z" transform="translate(-4.338 -2.403)" fill="#fff"/>
    </g>
  </g>
</svg>
