<svg xmlns="http://www.w3.org/2000/svg" width="171.083" height="46.925" viewBox="0 0 171.083 46.925">
  <g id="logo-short" transform="translate(-809 -2396.001)">
    <path id="Path_607" data-name="Path 607" d="M121.739,7.554h6.043c7.306,0,10.482,2,10.482,7.861s-3.175,7.862-10.452,7.862h-2.5v6.6h-3.577Zm6.567,12.455c4.224,0,6.32-.987,6.32-4.655,0-3.638-2.1-4.625-6.32-4.625h-2.99v9.28Z" transform="translate(796.773 2395.242)" fill="#fff"/>
    <path id="Path_608" data-name="Path 608" d="M143.847,18.718c0-7.954,4.964-11.438,10.544-11.438,5.488,0,10.513,3.484,10.513,11.438,0,8.108-4.994,11.469-10.574,11.469s-10.483-3.361-10.483-11.469m17.48,0c0-5.149-2.713-8.2-6.937-8.2-4.316,0-7.029,3.022-7.029,8.2,0,5.271,2.62,8.232,6.968,8.232,4.315,0,7-2.96,7-8.232" transform="translate(794.553 2395.27)" fill="#fff"/>
    <path id="Path_609" data-name="Path 609" d="M170.616,24.1l3.361-.678c.925,2.312,3.051,3.607,5.888,3.607,3.083,0,4.841-1.233,4.841-3.361,0-5.271-13.134-1.6-13.134-10.2,0-3.73,3.145-6.29,7.739-6.29,4.532,0,7.583,2,8.725,5.735l-3.268.648c-.956-2.127-2.682-3.206-5.365-3.206-2.774,0-4.377,1.171-4.377,3.113,0,5.549,13.195,1.48,13.195,10.2,0,3.916-3.268,6.474-8.324,6.474-4.655,0-8.139-2.219-9.28-6.042" transform="translate(791.864 2395.28)" fill="#fff"/>
    <path id="Path_610" data-name="Path 610" d="M67.506,41.512h2.121c2.566,0,3.55.822,3.55,2.825s-.984,2.794-3.51,2.794h-.558v2.013h-1.6Zm2.4,4.153c1.136,0,1.633-.38,1.633-1.36s-.5-1.349-1.633-1.349h-.8v2.709Z" transform="translate(802.22 2391.832)" fill="#fff"/>
    <path id="Path_611" data-name="Path 611" d="M74.757,46.3a3,3,0,1,1,5.995,0,3,3,0,1,1-5.995,0m4.464,0c0-1.128-.609-1.8-1.472-1.8s-1.46.664-1.46,1.8.608,1.814,1.471,1.814,1.461-.675,1.461-1.814" transform="translate(801.492 2391.666)" fill="#fff"/>
    <path id="Path_612" data-name="Path 612" d="M81.973,43.293h1.664l1.369,4.164,1.3-4.164h1.177l1.289,4.164,1.369-4.164h1.683l-2.252,6.03h-1.5l-1.176-3.9-1.187,3.9H84.194Z" transform="translate(800.767 2391.653)" fill="#fff"/>
    <path id="Path_613" data-name="Path 613" d="M93.372,46.3a2.913,2.913,0,0,1,2.972-3.131c1.918,0,3.043,1.392,2.861,3.5H94.914a1.435,1.435,0,0,0,1.521,1.55,1.281,1.281,0,0,0,1.309-.748l1.411.179a2.652,2.652,0,0,1-2.76,1.781,2.9,2.9,0,0,1-3.023-3.13m4.422-.685a1.33,1.33,0,0,0-1.41-1.318,1.359,1.359,0,0,0-1.44,1.318Z" transform="translate(799.622 2391.665)" fill="#fff"/>
    <path id="Path_614" data-name="Path 614" d="M101.332,43.282h1.542v.907a1.68,1.68,0,0,1,1.958-.981l-.153,1.518c-1.156-.221-1.805.337-1.805,1.74v2.846h-1.542Z" transform="translate(798.823 2391.663)" fill="#fff"/>
    <path id="Path_615" data-name="Path 615" d="M111.183,48.114v.981h-1.542v-7.98h1.542v2.972a1.93,1.93,0,0,1,1.847-1.127c1.439,0,2.576,1.106,2.576,3.13s-1.137,3.152-2.567,3.152a1.962,1.962,0,0,1-1.856-1.128m2.88-2.024c0-1.128-.6-1.8-1.471-1.8-.852,0-1.461.664-1.461,1.8s.609,1.814,1.472,1.814,1.46-.675,1.46-1.814" transform="translate(797.988 2391.872)" fill="#fff"/>
    <path id="Path_616" data-name="Path 616" d="M119.183,49.292l-2.4-6h1.684L120,47.574l1.532-4.28h1.694l-3.175,7.98h-1.694Z" transform="translate(797.271 2391.653)" fill="#fff"/>
    <path id="Path_617" data-name="Path 617" d="M132.695,47.816H129.55l-.467,1.329H127.4l2.91-7.632h1.624l2.921,7.632h-1.694Zm-.426-1.223-1.146-3.268-1.147,3.268Z" transform="translate(796.205 2391.832)" fill="#fff"/>
    <path id="Path_618" data-name="Path 618" d="M136.533,43.282h1.542v.907a1.68,1.68,0,0,1,1.958-.981l-.153,1.518c-1.156-.221-1.805.337-1.805,1.74v2.846h-1.542Z" transform="translate(795.287 2391.663)" fill="#fff"/>
    <path id="Path_619" data-name="Path 619" d="M141.853,46.761V44.347h-.822V43.135h.822V42.049l1.552-.337v1.423h1.582v1.212H143.4v2.267c0,1.023.284,1.381,1.045,1.381a3.306,3.306,0,0,0,.466-.053l.2,1.213a4.175,4.175,0,0,1-.934.105c-1.582,0-2.333-.664-2.333-2.5" transform="translate(794.835 2391.812)" fill="#fff"/>
    <path id="Path_620" data-name="Path 620" d="M146.68,43.282h1.542v.907a1.68,1.68,0,0,1,1.958-.981l-.153,1.518c-1.156-.221-1.805.337-1.805,1.74v2.846H146.68Z" transform="translate(794.268 2391.663)" fill="#fff"/>
    <path id="Path_621" data-name="Path 621" d="M151.517,41.433a.792.792,0,0,1,.883-.811.815.815,0,1,1,0,1.624.8.8,0,0,1-.883-.812m.112,1.592h1.532v6.03h-1.532Z" transform="translate(793.782 2391.921)" fill="#fff"/>
    <path id="Path_622" data-name="Path 622" d="M156.588,48.114v.981h-1.542v-7.98h1.542v2.972a1.93,1.93,0,0,1,1.847-1.127c1.439,0,2.576,1.106,2.576,3.13s-1.137,3.152-2.567,3.152a1.962,1.962,0,0,1-1.856-1.128m2.88-2.024c0-1.128-.6-1.8-1.471-1.8-.852,0-1.461.664-1.461,1.8s.609,1.814,1.472,1.814,1.46-.675,1.46-1.814" transform="translate(793.428 2391.872)" fill="#fff"/>
    <path id="Path_623" data-name="Path 623" d="M163.131,43.282h1.542v.907a1.68,1.68,0,0,1,1.958-.981l-.153,1.518c-1.156-.221-1.805.337-1.805,1.74v2.846h-1.542Z" transform="translate(792.616 2391.663)" fill="#fff"/>
    <path id="Path_624" data-name="Path 624" d="M61.055,12.246h-2.63V10.015h3c.186-1.567.344-3.161.425-4.728l3.372.106c-.238,1.594-.478,3.135-.743,4.622h4.568v2.231a29.456,29.456,0,0,1-2.629,10.863l-.079.159c1.034,1.009,2.125,2.152,3.266,3.4L68.04,28.129a38.591,38.591,0,0,0-3-2.816,18.626,18.626,0,0,1-5.578,4.86l-1.434-1.7a15.5,15.5,0,0,0,5.02-4.781q-1.952-1.514-4.144-2.948a56.006,56.006,0,0,0,2.153-8.5m2.948,0a60.009,60.009,0,0,1-2.152,7.331,25.127,25.127,0,0,1,2.417,1.832,30.116,30.116,0,0,0,1.805-9.163Zm6.109-5.1H81.957V9.377a18.415,18.415,0,0,1-3.932,4.409v2.9h5.1v2.284h-5.1V27.2a2.445,2.445,0,0,1-.85,2.072,4.96,4.96,0,0,1-2.895.637,17.1,17.1,0,0,1-2.948-.238L70.8,26.986a18.9,18.9,0,0,0,2.523.213,1.62,1.62,0,0,0,1.115-.266A1.371,1.371,0,0,0,74.732,26V18.966H69.155V16.682h5.577V13.308h.558a19.073,19.073,0,0,0,3.082-3.931h-8.26Z" transform="translate(803.172 2395.47)" fill="#fff"/>
    <path id="Path_625" data-name="Path 625" d="M91.1,25.523a23.13,23.13,0,0,1-1.567,4.622l-1.858-.266a31.227,31.227,0,0,0,.929-4.727Zm9.642-2.868a117.656,117.656,0,0,1-12.165,1.992l-.212-2.922c1.567-.053,3.081-.133,4.569-.212V19.707H88.6V17.582h4.33V15.8H88.705V6.666h11.686V15.8h-4.33v1.779h4.25v2.125h-4.25V21.3c1.541-.133,3.055-.265,4.516-.425ZM93.246,8.738h-2.1V9.827l1.3-.4a16.669,16.669,0,0,1,.8,2.895Zm0,4.993v-.982l-1.115.265a17.146,17.146,0,0,0-.983-2.523v3.24Zm.585,11.262a30.561,30.561,0,0,1,.824,4.595L92.8,29.8a26.2,26.2,0,0,0-1.462-4.542Zm3.081-.585A32.169,32.169,0,0,1,98,29.029L96.2,29.3a24.321,24.321,0,0,0-1.726-4.463ZM95.85,8.738v3.719A19.58,19.58,0,0,0,96.567,9.4l1.382.451V8.738Zm0,3.958v1.035h2.1V10.6a19.563,19.563,0,0,1-1.063,2.5Zm4.01,11.075a28.66,28.66,0,0,1,.983,4.329l-1.7.265A23.593,23.593,0,0,0,97.47,24.2Zm11.845-6.454V29.959h-3.134V28.1h-4.3v1.859h-3.134V17.317h3.372V5.258h3.24V9.853h5.074v2.231h-5.074v5.233Zm-7.436,8.5h4.3V19.6h-4.3Z" transform="translate(800.195 2395.473)" fill="#fff"/>
    <path id="Path_626" data-name="Path 626" d="M43.523,29.072,36.568,16.5,29.783,29.072Z" transform="translate(806.009 2394.344)" fill="#fff"/>
    <path id="Path_627" data-name="Path 627" d="M25.371,0,0,45.876H12.038L31.15,10.45Z" transform="translate(809 2396.001)" fill="#fff"/>
    <path id="Path_628" data-name="Path 628" d="M26.395,35.167,18.711,49.408H52.62L44.745,35.167Z" transform="translate(807.121 2392.469)" fill="#fff"/>
    <path id="Path_629" data-name="Path 629" d="M26.395,35.167,18.711,49.408H52.62L44.745,35.167Z" transform="translate(807.121 2392.469)" fill="#fff"/>
    <path id="Path_630" data-name="Path 630" d="M36.568,16.5,29.782,29.072H43.523Z" transform="translate(806.009 2394.344)" fill="#fff"/>
    <path id="Path_631" data-name="Path 631" d="M155.1,24.387c-1.069,0-3.57,0-3.57-4.941,0-4.908,2.642-4.908,3.637-4.908,2.347,0,3.537,1.652,3.537,4.908,0,4.941-2.525,4.941-3.6,4.941" transform="translate(793.781 2394.541)" fill="#fff"/>
  </g>
</svg>
