<svg xmlns="http://www.w3.org/2000/svg" xmlns:xlink="http://www.w3.org/1999/xlink" width="114" height="132" viewBox="0 0 114 132">
  <defs>
    <clipPath id="clip-path">
      <path id="path1221" d="M0-682.665H60.017v60.017H0Z" transform="translate(0 682.665)"/>
    </clipPath>
  </defs>
  <g id="plan-p3" transform="translate(-300 -2397)">
    <rect id="Rectangle_113" data-name="Rectangle 113" width="114" height="132" transform="translate(300 2397)" fill="none"/>
    <g id="plan-p3-2" data-name="plan-p3" transform="translate(327 2433)">
      <g id="g1217" transform="translate(0 0)">
        <g id="g1219" clip-path="url(#clip-path)">
          <g id="g1225" transform="translate(0.879 41.696)">
            <path id="path1227" d="M-130.192-175.929H-141.4a1.337,1.337,0,0,1-1.337-1.337v-14.283a1.337,1.337,0,0,1,1.337-1.337H-85.82a1.338,1.338,0,0,1,1.337,1.337v14.283a1.337,1.337,0,0,1-1.337,1.337h-40.855" transform="translate(142.741 192.886)" fill="rgba(0,0,0,0)" stroke="#9a9a9a" stroke-linecap="round" stroke-linejoin="round" stroke-miterlimit="10" stroke-width="2"/>
          </g>
          <g id="g1229" transform="translate(10.33 50.175)">
            <path id="path1231" d="M0,0H31.62" fill="rgba(0,0,0,0)" stroke="#9a9a9a" stroke-linecap="round" stroke-linejoin="round" stroke-miterlimit="10" stroke-width="2"/>
          </g>
          <g id="g1233" transform="translate(48.888 47.608)">
            <path id="path1235" d="M-53.266-26.633a2.567,2.567,0,0,1-2.567,2.567A2.567,2.567,0,0,1-58.4-26.633,2.567,2.567,0,0,1-55.833-29.2,2.567,2.567,0,0,1-53.266-26.633Z" transform="translate(58.4 29.2)" fill="rgba(0,0,0,0)" stroke="#9a9a9a" stroke-linecap="round" stroke-linejoin="round" stroke-miterlimit="10" stroke-width="2"/>
          </g>
          <g id="g1237" transform="translate(6.751 1.363)">
            <path id="path1239" d="M-122.384,0h33.518A1.068,1.068,0,0,1-87.8,1.068V33.144a1.068,1.068,0,0,1-1.068,1.068h-44.246a1.068,1.068,0,0,1-1.068-1.068V1.068A1.068,1.068,0,0,1-133.113,0h7.212" transform="translate(134.181)" fill="rgba(0,0,0,0)" stroke="#9a9a9a" stroke-linecap="round" stroke-linejoin="round" stroke-miterlimit="10" stroke-width="2"/>
          </g>
          <path id="path1241" d="M122.648-621.312h38.32v26.15h-38.32Z" transform="translate(-111.865 626.706)" fill="rgba(0,0,0,0)" stroke="#9a9a9a" stroke-linecap="round" stroke-linejoin="round" stroke-miterlimit="10" stroke-width="2"/>
          <path id="path1243" d="M260.107-271.891H242.938v-6.121h17.169Z" transform="translate(-221.58 313.588)" fill="rgba(0,0,0,0)" stroke="#9a9a9a" stroke-linecap="round" stroke-linejoin="round" stroke-miterlimit="10" stroke-width="2"/>
          <g id="g1245" transform="translate(14.708 9.416)">
            <path id="path1247" d="M-175.244-187.191h-15.74a1.152,1.152,0,0,1-1.152-1.152v-15.74a1.152,1.152,0,0,1,1.152-1.152h15.74a1.152,1.152,0,0,1,1.152,1.152v15.74A1.152,1.152,0,0,1-175.244-187.191Z" transform="translate(192.135 205.234)" fill="rgba(0,0,0,0)" stroke="#9a9a9a" stroke-linecap="round" stroke-linejoin="round" stroke-miterlimit="10" stroke-width="2"/>
          </g>
          <g id="g1249" transform="translate(20.651 9.768)">
            <path id="path1251" d="M0,0V17.574" fill="rgba(0,0,0,0)" stroke="#9a9a9a" stroke-linecap="round" stroke-linejoin="round" stroke-miterlimit="10" stroke-width="2"/>
          </g>
          <g id="g1253" transform="translate(26.808 9.768)">
            <path id="path1255" d="M0,0V17.574" fill="rgba(0,0,0,0)" stroke="#9a9a9a" stroke-linecap="round" stroke-linejoin="round" stroke-miterlimit="10" stroke-width="2"/>
          </g>
          <g id="g1257" transform="translate(14.948 14.253)">
            <path id="path1259" d="M-181.166,0h-17.462" transform="translate(198.629)" fill="rgba(0,0,0,0)" stroke="#9a9a9a" stroke-linecap="round" stroke-linejoin="round" stroke-miterlimit="10" stroke-width="2"/>
          </g>
          <g id="g1261" transform="translate(14.948 18.555)">
            <path id="path1263" d="M-181.166,0h-17.462" transform="translate(198.629)" fill="rgba(0,0,0,0)" stroke="#9a9a9a" stroke-linecap="round" stroke-linejoin="round" stroke-miterlimit="10" stroke-width="2"/>
          </g>
          <g id="g1265" transform="translate(14.948 22.857)">
            <path id="path1267" d="M-181.166,0h-17.462" transform="translate(198.629)" fill="rgba(0,0,0,0)" stroke="#9a9a9a" stroke-linecap="round" stroke-linejoin="round" stroke-miterlimit="10" stroke-width="2"/>
          </g>
          <g id="g1269" transform="translate(37.015 21.724)">
            <path id="path1271" d="M-77.483-58.288h-6.533a.935.935,0,0,1-.935-.935v-3.748a.935.935,0,0,1,.935-.935h6.533a.935.935,0,0,1,.935.935v3.748A.935.935,0,0,1-77.483-58.288Z" transform="translate(84.952 63.907)" fill="rgba(0,0,0,0)" stroke="#9a9a9a" stroke-linecap="round" stroke-linejoin="round" stroke-miterlimit="10" stroke-width="2"/>
          </g>
          <g id="g1273" transform="translate(38.72 17.24)">
            <path id="path1275" d="M0,0H5.374" fill="rgba(0,0,0,0)" stroke="#9a9a9a" stroke-linecap="round" stroke-linejoin="round" stroke-miterlimit="10" stroke-width="2"/>
          </g>
          <g id="g1277" transform="translate(38.72 13.491)">
            <path id="path1279" d="M0,0H5.374" fill="rgba(0,0,0,0)" stroke="#9a9a9a" stroke-linecap="round" stroke-linejoin="round" stroke-miterlimit="10" stroke-width="2"/>
          </g>
        </g>
      </g>
    </g>
  </g>
</svg>
